/* XPM */
static char *result[] = {
/* columns rows colors chars-per-pixel */
"65 65 44 1 ",
"  c #080122",
". c #090123",
"X c #0A0123",
"o c #0A0124",
"O c #0B0124",
"+ c #0B0125",
"@ c #0C0125",
"# c #0C0126",
"$ c #0D0126",
"% c #0D0127",
"& c #0E0127",
"* c #0E0227",
"= c #0E0228",
"- c #0F0228",
"; c #0F0229",
": c #100229",
"> c #10022A",
", c #11022A",
"< c #11022B",
"1 c #12022B",
"2 c #10062A",
"3 c #12022C",
"4 c #13022C",
"5 c #13022D",
"6 c #13032D",
"7 c #14022D",
"8 c #14032D",
"9 c #14032E",
"0 c #15032E",
"q c #15032F",
"w c #16032F",
"e c #13072C",
"r c #160330",
"t c #170330",
"y c #170331",
"u c #180331",
"i c #190332",
"p c #1A0433",
"a c #150C30",
"s c #1A0F33",
"d c #1E1137",
"f c #221C3E",
"g c #252042",
"h c #322E4F",
/* pixels */
"w099955g>,:,;=;$&%%$:;<3<<591<<1700w008<,::-::==%=&%$;:,13471,1,4",
"07781483::;,;#$%O%#@@=:,59481>849w031131>,;;&$$&#$&$%%:>344442540",
"8431<4431>->-%&$o$@@=:114333,31,8834,1446,-=-&-%Oo$#&=-184443441<",
",1,<>4805,;;==%o.o#@-><11<,4411>,;,3,47904,-;&%@.Xo+%:><84<351<,,",
",4,,140908:3;%+XXO+&-:,34>178a<>>31>181400,:>=#@ .o#-;4143,381,:1",
"83,1<188084<;$$%oX&-&:,3,13441>>,7<<<1<5q05,<&&$@.#-=%1111<454>:>",
",::1<>>407411=#%++#-;;54,,1345<,,;:,34380q413-%%OOO&;:,47<133431>",
"<3<48809w7481;@$#@@%;1184<1>1001<<<54430w9807>-#%$$#-;147413<8043",
"00484,3414114,=$$$@$;:41<,475444303493><73433,;#%+##;:15,<,543478",
"8w4,<<;::4444,>=+$&-=>4<,,13<3587w73:,>,<48115,;%&&&;,11,,,4<1717",
"0081<>:>307033:=-$%#-74,::1314377w8411:3140094<:=$$&%1w3,::3>4417",
"ww043<13510ww4:,==&%%>1,-><7<1,4qq043<><<340w4<1;=&&%,14,=>1<<137",
"w081>=,33<88834,,;,;;31;,:;;;-5000041,11,400041<,,><-,7,;,:;>-447",
"485<1,113,40w8q3,,4,1,4>>&=$&,3<5873f,11,110049113131511>:=&$=11<",
">>831,>5430080w885437441<:;%&;41<>35<1>>8588q809844344751;:&%&,0,",
"3>3541,44,1348ttwq0049853,;&=<,3<>31584471<4350twt0045q847;-=;,3,",
"14<41>33114<7wwuuurtww88811;-;351>>51,1,114>41tutiyrt0w9045,--,75",
"44<<1,1733388tutiuuutiwt044,>,18451,15110,5550tuuiyiiitwt04<,11,<",
";>>::<1371158700t0wuuiiutw7341,>=;>;-1181<410w9wwrwtiuirwy81,,<<:",
"-:<,>11144>38040w0500wttw0411>:,:->>;,41454180800070wtuu0w441<;,>",
",<;>:<<10488854988438850004,<>-:,,,==,33548705445143<988800>:&,:1",
"144<,>48083,4>3744,33444055h<>>,1333,<58504313,711,33384004<,1,,:",
"844,3,45004,:<13<431,11344411131404313438ww3::,4344<,,3,5<44,<4<8",
"qw91,<450q94:<1>40814<,14174<1389478,1338098,<411855,<,<11354177w",
"u8973,110w05>3544870<1,18479900ttt081<317wt43,37748043,,479807q8u",
"iut8548080914<041800744547wqwttuiut787438008144414484013494w0wtti",
"iwr813115411181<318w7314558utwtyuit0331,383,34313,70w445198ttutti",
"w004,1,:>>,113,1478w9445370wqyw80008<41;,;,,131,<40t9781857rqtt87",
"953,,>,>,,>43><><>444,7144w08w008858,;>>,,11111>;:,071441704870w0",
"044711>:;1<3>,,>>;,,11,4,89080050435351:;>3441,,1::,1,,3138q8899q",
"rqw0791>,,1535:1>-;,1<<:4www8808q500903;;-4<143:1=;><431449808098",
"0rw98q41-;<41<:::&-:14,134908074wqt0008<>:,,81>::&==,1,48<w780344",
"08q0889,>;;:,;:=%%#-:>,1430744188800888<,:;;>:-;%-$%-::>118011514",
"0w878441;:,;=&%%#$#%--,,145w1,310404844,<;==,&&=$=*$%;;<148081417",
"0534430,3;-::=%%+%@+&-<1341711487w71134441;::%&%+O$+&%>314444s114",
"14:<<40041>=&#$+Xo+#=-11414<41311,,<148444>==%&@X.+@$-;444<<51,,<",
"11:,348901,:&%@o.O$#->4751<8831,<11,,04703:-1-%@..o%=-1,4,1504>>>",
"44<<<30w901,-#@O.o@&&:311,1451>>,51,1315994>,=%$oX+%&&<,4<37411;1",
"3,,><118w54,,=%&#+$>=;,>,3448<4:,,>144<4w03,1&%$$+$&;=:,1<33443,:",
":,<114400005<=+$#++;:,3031,7443<:<<,14480849<;=#OOO$>:344343,751<",
"7401434507441;#&$+$#=<9,31<444841484413397184>&%#@@#-:7571:445034",
"0835<1,,>544<>=%d+%=:,1:><<141484w331,,111935,=@$@#%-:<3>:<411337",
"w081>>,14874413-$#$&:14<::<,,4385048>,:<,558451>=&#-&<44:>:114487",
"ww41<1,,448t41,:-$&%-<3,;>,4,5159w8311,<358708>,-&$$=<4,:,:413149",
"8001>:,31448051<;;-&=34:;>:1;>8700033>;11189841>1;,-=>7,:>1,:;178",
"4w71;,143<5q078<,,1><:4:>:%#-;140541<1,3>338q875>11>:,41;=>%&-,11",
"1441,,,4178t95w441113184---&&;11,31441,<<447780871<115741;;=%=>31",
">17534>4383087ww93983084<:-&-:34,1,841<>433488q0805884081<;==;>73",
"44134,41,13<10tttuwt00078,,-&>113,<5e513511,14wttttrw4w8833==:,4<",
"441,<41344740tutuuttttw0w73::,334,3<4,14417480uuuuiiutt8q741=-541",
",>,,<>15434589ww0tuipiuutq4><<,,,:<,31:99<454q9tqttuuuitwu4,<,,<1",
"-1,>;,1801<40w8ww0wwtpuu00114<,>-:,:;,374744888w0090tuuwwt8<<1,:;",
";::,&:<38484480577550w090w<1,:-::>,;-14841438844747880wtq491;:,,:",
"111:<>15441753485,351554408><;,;111>:;485443351085,448537701::,;,",
"<14<11758813>1333151>31473414<<,1144,<388w11,,:41115,111044,<1<,3",
"887,<<57808,13,13411>,34418:>954485311144093314<373<14<>31411,944",
"t897,,137r45,,1157871;4144574770ww07<45,70w4<13,457w4>13447444q8r",
"uuu4717487894,54480w35,447088twtiuw041178tw9<,,4444w534<3880w0qwi",
"pyt0134530814343190w8134<80wt0wiuit0111130037<83<<00073>459twuttu",
"rwt5,,,,1><>774<1,9805448700iiw0wtw5<,,,,14,1811<15005345400ii080",
"0481,>,<<1,,1<3>1170445837ww8t0080843:,;,1;114<,,1408451780w8w8w8",
"047,31,:>1<>::1,;:<31<44,4w09000w9381<1;::,1,;,,,-;44,<4359w97800",
"050478>1-<3343:,,-::134<150095040844843,-,3143,>3;;::1<,110900840",
"www4474:::,435;,>;;>,11148w708400qw7308,-;3<151,>--;><3,839800518",
"w0000011:;::4>>;;=#-,<<<447543380qwr00w<::;>4:>:==$-,4,<48q039444"
};
