/* XPM */
static char *result[] = {
/* columns rows colors chars-per-pixel */
"65 65 163 2 ",
"   c #2D2B28",
".  c #2D2A29",
"X  c #2C2B29",
"o  c #2D2B29",
"O  c #2E2B29",
"+  c #2D2A2A",
"@  c #2D2B2A",
"#  c #2D2C29",
"$  c #2E2C29",
"%  c #2E2C2A",
"&  c #2E2D2A",
"*  c #2F2D2B",
"=  c #302F2B",
"-  c #312F2D",
";  c #312F2E",
":  c #30302B",
">  c #30312B",
",  c #32322C",
"<  c #33332C",
"1  c #32302F",
"2  c #32342C",
"3  c #33362C",
"4  c #34362D",
"5  c #36392F",
"6  c #363A2F",
"7  c #373B2F",
"8  c #333130",
"9  c #343331",
"0  c #3A3F31",
"q  c #393836",
"w  c #3B3937",
"e  c #3F3D3B",
"r  c #3B4131",
"t  c #3C4232",
"y  c #3C4332",
"u  c #3C4432",
"i  c #3F4834",
"p  c #404434",
"a  c #404A35",
"s  c #414A35",
"d  c #414B36",
"f  c #445037",
"g  c #445038",
"h  c #4A593B",
"j  c #4E613E",
"k  c #50633F",
"l  c #4C4B49",
"z  c #4D4B49",
"x  c #5D5B59",
"c  c #5F5E5C",
"v  c #566240",
"b  c #576441",
"n  c #586541",
"m  c #536941",
"M  c #556C42",
"N  c #576F44",
"B  c #5E6D45",
"V  c #5F6E46",
"C  c #5A7345",
"Z  c #5C7747",
"A  c #5E7A48",
"S  c #657548",
"D  c #657749",
"F  c #67784A",
"G  c #6A7D4B",
"H  c #656361",
"J  c #656462",
"K  c #686664",
"L  c #6C6A69",
"P  c #6D6B6A",
"I  c #797977",
"U  c #7C7B79",
"Y  c #5D8647",
"T  c #64844C",
"R  c #65844C",
"E  c #65854C",
"W  c #66874D",
"Q  c #6A8D4F",
"!  c #70844E",
"~  c #68984B",
"^  c #728750",
"/  c #728850",
"(  c #7A9254",
")  c #729B54",
"_  c #739C55",
"`  c #73AF55",
"'  c #79A659",
"]  c #7EAE5C",
"[  c #819B58",
"{  c #849F5A",
"}  c #86A15B",
"|  c #8AA75E",
" . c #80B05D",
".. c #82817F",
"X. c #85B860",
"o. c #86BB61",
"O. c #88BE62",
"+. c #88BF63",
"@. c #89BF63",
"#. c #82C85A",
"$. c #8AC163",
"%. c #8AC264",
"&. c #8DC565",
"*. c #9DC068",
"=. c #9DC169",
"-. c #92CD68",
";. c #96D46B",
":. c #98D86D",
">. c #9ADA6D",
",. c #9ADB6D",
"<. c #9ADB6E",
"1. c #9BDC6E",
"2. c #9CDC6E",
"3. c #9EDD6F",
"4. c #A1C76B",
"5. c #A6CD6E",
"6. c #A3DF71",
"7. c #AFD872",
"8. c #B4DF75",
"9. c #AAE173",
"0. c #AFE375",
"q. c #B0E375",
"w. c #B1E375",
"e. c #B2E376",
"r. c #B5E075",
"t. c #B6E276",
"y. c #B6E277",
"u. c #B1E476",
"i. c #B7E577",
"p. c #B8E477",
"a. c #B8E678",
"s. c #B9E678",
"d. c #BBE77B",
"f. c #BDE77F",
"g. c #868583",
"h. c #ABAAAA",
"j. c #B0B0AF",
"k. c #B4B4B3",
"l. c #B6B6B5",
"z. c #BFE883",
"x. c #C2E989",
"c. c #C7EB93",
"v. c #D1EEA6",
"b. c #D7F1B3",
"n. c #DAF2B8",
"m. c #DAF2B9",
"M. c #CAC9C9",
"N. c #EAF7D7",
"B. c #F5FBEB",
"V. c #F1F1F1",
"C. c #F4F4F3",
"Z. c #FAFDF5",
"A. c #FBFEF7",
"S. c #F8F8F8",
"D. c #FBFBFB",
"F. c #FCFEF9",
"G. c gray99",
"H. c #FDFDFD",
"J. c #FEFFFD",
"K. c #FEFEFE",
"L. c #FFFFFE",
"P. c white",
"I. c None",
/* pixels */
"I.I.I.I.I.I.I.I.I.I.I.I.I.I.I.I.I.I.I.I.I.I.I.o o o I.I.I.I.I.I.I.I.I.I.I.I.o o o I.I.I.I.I.I.I.I.I.I.I.I.I.I.I.I.I.I.I.I.I.I.I.I.",
"I.I.I.I.I.I.I.I.I.I.I.I.I.I.I.I.I.I.I.I.I.I.o o o o o o o I.I.I.I.I.I.o o o o o o o I.I.I.I.I.I.I.I.I.I.I.I.I.I.I.I.I.I.I.I.I.I.I.",
"I.I.I.I.I.I.I.I.I.I.I.I.I.I.I.I.I.I.I.I.I.I.o o <.;.o o o o o o o o o o o o V s.o o I.I.I.I.I.I.I.I.I.I.I.I.I.I.I.I.I.I.I.I.I.I.I.",
"I.I.I.I.I.I.I.I.I.I.I.I.I.I.I.I.I.I.I.I.I.I.I.o o 1.1.s.s.= o o o o o 4.s.s.s.s.o o I.I.I.I.I.I.I.I.I.I.I.I.I.I.I.I.I.I.I.I.I.I.I.",
"I.I.I.I.I.I.I.I.I.I.I.I.I.I.I.I.I.I.I.I.I.I.I.o o 1.1.s.s.s.s.s.s.s.s.s.s.s.s.G o O I.I.I.I.I.I.I.I.I.I.I.I.I.I.I.I.I.I.I.I.I.I.I.",
"I.I.I.I.I.I.I.I.I.I.I.I.I.I.I.I.I.I.I.I.I.I.I.o o 1.1.w.s.s.s.s.s.s.s.s.s.s.s.o o I.I.I.I.I.I.I.I.I.I.I.I.I.I.I.I.I.I.I.I.I.I.I.I.",
"I.I.I.I.I.I.I.I.I.I.I.I.I.I.I.I.I.I.I.I.I.I.I.I.o : 1.1.y.o s.s.s.s.s.o y.s.s.o o I.I.I.I.I.I.I.I.I.I.I.I.I.I.I.I.I.I.I.I.I.I.I.I.",
"I.I.I.I.I.I.I.I.I.I.I.I.I.I.I.I.I.I.I.I.I.I.I.I.o o 1.1.*.o o s.s.s.o o *.s.s.o o I.I.I.I.I.I.I.I.I.I.I.I.I.I.I.I.I.I.I.I.I.I.I.I.",
"I.I.I.I.I.I.I.I.I.I.I.I.I.I.I.I.I.I.I.I.I.I.I.I.o o 1.1.i.o o s.s.s.o o s.s.n o   I.I.I.I.I.I.I.I.I.I.I.I.I.I.I.I.I.I.I.I.I.I.I.I.",
"I.I.I.I.I.I.I.I.I.I.I.I.I.I.I.I.I.I.I.I.I.I.I.I.X o 5 1.1.= o S s.S o = s.s.o o I.I.I.I.I.I.I.I.I.I.I.I.I.I.I.I.I.I.I.I.I.I.I.I.I.",
"I.I.I.I.I.I.I.I.I.I.I.I.I.I.I.I.I.I.I.I.I.I.I.I.I.o o 1.1.s.o o s.o o s.s.s.o o I.I.I.I.I.I.I.I.I.I.I.I.I.I.I.I.I.I.I.I.I.I.I.I.I.",
"I.I.I.I.I.I.I.I.I.I.I.I.I.I.I.I.I.I.I.I.I.I.I.I.I.o o o o o o o o o o o o o o o I.I.I.I.I.I.I.I.I.I.I.I.I.I.I.I.I.I.I.I.I.I.I.I.I.",
"I.I.I.I.I.I.I.I.I.I.I.I.I.I.I.I.I.I.I.I.I.I.I.I.o o o o o o o o o o o o o o o o o I.I.I.I.I.I.I.I.I.I.I.I.I.I.I.I.I.I.I.I.I.I.I.I.",
"I.I.I.I.I.I.I.I.I.I.I.I.I.I.I.I.I.I.I.I.I.I.I.@ o 2 ` ` ` #.#.#.#.#.#.#.#.#.#.3 o X I.I.I.I.I.I.I.I.I.I.I.I.I.I.I.I.I.I.I.I.I.I.I.",
"I.I.I.I.I.I.I.I.I.I.I.I.I.I.I.I.I.I.I.I.I.I.I.o o Y ` ` ` #.#.#.#.#.#.#.#.#.#.~ o o I.I.I.I.I.I.I.I.I.I.I.I.I.I.I.I.I.I.I.I.I.I.I.",
"I.I.I.I.I.I.I.I.I.I.I.I.I.I.I.I.I.I.I.I.I.I.I.I.o o o o o o o o o o o o o o o o o I.I.I.I.I.I.I.I.I.I.I.I.I.I.I.I.I.I.I.I.I.I.I.I.",
"I.I.I.I.I.I.I.I.I.I.I.I.I.I.I.I.I.I.I.I.I.I.I.o o o o o o o o o o o o o o o o o o o I.I.I.I.I.I.I.I.I.I.I.I.I.I.I.I.I.I.I.I.I.I.I.",
"I.I.I.I.I.I.I.I.I.I.I.I.I.I.I.I.I.I.I.I.I.  o o o 1.1.1.# o o s.s.s.o o $ s.s.s.o o o   I.I.I.I.I.I.I.I.I.I.I.I.I.I.I.I.I.I.I.I.I.",
"I.I.I.I.I.I.I.I.I.I.I.I.I.I.I.I.I.I.I.I.o o o ) 1.1.1.,.o o s.s.s.s.s.o o p.s.s.s.} o o o I.I.I.I.I.I.I.I.I.I.I.I.I.I.I.I.I.I.I.I.",
"I.I.I.I.I.I.I.I.I.I.I.I.I.I.I.I.I.I.I.o o o 1.1.1.1.2.v o | s.s.s.s.s.| o v s.s.s.s.s.o o o I.I.I.I.I.I.I.I.I.I.I.I.I.I.I.I.I.I.I.",
"I.I.I.I.I.I.I.I.I.I.I.I.I.I.I.I.I.I.o o o 1.1.1.1.3.s.s.s.s.s.s.s.s.s.s.s.s.s.s.s.s.s.s.o o o I.I.I.I.I.I.I.I.I.I.I.I.I.I.I.I.I.I.",
"I.I.I.I.I.I.I.I.I.I.I.I.I.I.I.I.I.o o o 1.1.1.1.3.s.s.s.s.s.s.s.s.s.s.s.s.s.s.s.s.s.s.s.s.o o o I.I.I.I.I.I.I.I.I.I.I.I.I.I.I.I.I.",
"I.I.I.I.I.I.I.I.I.I.I.I.I.I.I.I.o o o 1.1.1.1.1.s.s.s.s.s.s.s.s.s.s.s.s.s.s.s.s.s.s.s.s.s.s.o o o I.I.I.I.I.I.I.I.I.I.I.I.I.I.I.I.",
"I.I.I.I.I.I.I.I.I.I.I.I.I.I.I.o o o 1.1.1.1.1.s.s.s.s.s.s.s.s.s.s.s.s.s.s.s.s.s.s.s.s.s.s.s.s.o o o I.I.I.I.I.I.I.I.I.I.I.I.I.I.I.",
"I.I.I.I.I.I.I.I.I.I.I.I.I.I.I.o o 1.1.1.1.1.s.s.s.s.s.s.s.s.s./ o ^ s.s.s.s.s.s.s.s.s.s.s.s.s.s.o o I.I.I.I.I.I.I.I.I.I.I.I.I.I.I.",
"I.I.I.I.I.I.I.I.I.I.I.I.I.I.o o >.1.1.1.1.s.s.s.s.s.s.s.s.s.o o o o o s.s.s.s.s.s.s.s.s.s.s.s.s.p.o o I.I.I.I.I.I.I.I.I.I.I.I.I.I.",
"I.I.I.I.I.I.I.I.I.I.I.I.I.o o C 1.1.1.1.0.s.s.s.s.s.s.s.s.r.o o 1.o o 8.s.s.s.s.s.s.s.s.s.s.s.s.s.D o o I.I.I.I.I.I.I.I.I.I.I.I.I.",
"I.I.I.I.I.I.I.I.I.I.I.I.o o o 1.1.1.1.1.s.s.s.s.s.s.s.[ o o o _ 1._ o o o F s.s.s.s.s.s.s.s.s.s.s.s.o o o I.I.I.I.I.I.I.I.I.I.I.I.",
"I.I.I.I.I.I.I.I.I.I.I.I.o o 1.1.1.1.1.s.s.s.s.s.s.s.o o o o o 1.1.1.o o o o o s.s.s.s.s.s.s.s.s.s.s.s.o o I.I.I.I.I.I.I.I.I.I.I.I.",
"I.I.I.I.I.I.I.I.I.I.I.o o &.1.1.1.1.w.s.s.s.s.s.t.o o o 1.1.1.1.1.1.1.1.1.o o o 7.s.s.s.s.s.s.s.s.s.s.5.o o I.I.I.I.I.I.I.I.I.I.I.",
"I.I.I.I.I.I.I.I.I.I.O o o 1.1.1.1.1.s.s.s.s.s.s.o o u 1.1.1.1.Z a N 1.1.1.1.h o o s.s.s.s.s.s.s.s.s.s.s.o o O I.I.I.I.I.I.I.I.I.I.",
"I.I.I.I.I.I.I.I.I.I.o o 1.1.1.1.1.s.s.s.s.s.s.o o 4 1.1.o.o o o o o o o X.1.1.i o o s.s.s.s.s.s.s.s.s.s.s.o o I.I.I.I.I.I.I.I.I.I.",
"I.I.I.I.I.I.I.I.I.o o , 1.1.1.1.1.s.s.s.s.s.J.o o 1.1.r o o o P l.L o o o t 1.1.o o P.s.s.s.s.s.s.s.s.s.s.< o o I.I.I.I.I.I.I.I.I.",
"I.I.I.I.I.I.I.I.I.o o 1.1.1.1.1.s.s.s.s.s.x.U o 7 1.1.o o S.P.P.P.P.P.D.o o 1.1.y o g.m.s.s.s.s.s.s.s.s.s.s.o o I.I.I.I.I.I.I.I.I.",
"I.I.I.I.I.I.I.I.o o y 1.1.1.1.1.s.s.s.s.s.P.1 o +.1.M o x P.P.P.P.P.P.P.K o g 1.&.o w P.s.s.s.s.s.s.s.s.s.s.p o o I.I.I.I.I.I.I.I.",
"I.I.I.I.I.I.I.I.o o 1.1.1.1.1.s.s.s.s.s.n.P.9 o -.1.M o J P.P.P.P.P.P.P.K.o o 1.A o e P.Z.s.s.s.s.s.s.s.s.s.s.o o I.I.I.I.I.I.I.I.",
"I.I.I.I.I.I.I.X o o 1.1.1.1.1.s.s.s.s.s.P.P...o s 1.1.o o G.P.P.P.P.P.P.P.o o o o o P.P.P.s.s.s.s.s.s.s.s.s.s.o o + I.I.I.I.I.I.I.",
"I.I.I.I.I.I.I.o o 1.1.1.1.1.q.s.s.s.s.s.P.P.P.o o 1.1.2 o o o z M.P.P.P.P.P.o o o V.P.P.P.s.s.s.s.s.s.s.s.s.s.s.o o I.I.I.I.I.I.I.",
"I.I.I.I.I.I.I.o o 1.1.1.1.1.s.s.s.s.s.d.P.P.P.o o 0 1.1.@.o o o o o o o o P.P.P.P.P.P.P.P.z.s.s.s.s.s.s.s.s.s.s.o o I.I.I.I.I.I.I.",
"I.I.I.I.I.I.O o m 1.1.1.1.1.s.s.s.s.s.v.P.P.P.P.o o j 1.1.1.1.Q d o o o o o o P.P.P.P.P.P.B.s.s.s.s.s.s.s.s.s.s.B o O I.I.I.I.I.I.",
"I.I.I.I.I.I.o o 1.1.1.1.1.u.s.s.s.s.s.N.P.P.P.P.C.o o o 1.1.1.1.1.1.1.1. .o o o P.P.P.P.P.P.s.s.s.s.s.s.s.s.s.s.s.o o I.I.I.I.I.I.",
"I.I.I.I.I.I.o o 1.1.1.1.1.s.s.s.s.s.s.b.P.P.P.P.P.P.o o o o 5 ] -.1.1.1.1.1.% o o P.P.P.P.A.s.s.s.s.s.s.s.s.s.s.s.o o I.I.I.I.I.I.",
"I.I.I.I.I.I.o o 1.1.1.1.1.s.s.s.s.s.s.f.P.P.P.P.P.P.P.I o o o o o o o o 1.1.1.o o % P.P.P.c.s.s.s.s.s.s.s.s.s.s.s.o o I.I.I.I.I.I.",
"I.I.I.I.I.o o Q 1.1.1.1.1.s.s.s.s.s.s.s.P.P.P.P.o o o P.P.P.k.e 8 o o o o %.1.1.o o P.P.P.s.s.s.s.s.s.s.s.s.s.s.s.( o . I.I.I.I.I.",
"I.I.I.I.I.o o 1.1.1.1.1.1.s.s.s.s.s.s.s.P.P.P.o o o o o P.P.P.P.P.P.P.H o o 1.1.o o h.P.P.s.s.s.s.s.s.s.s.s.s.s.s.s.o o I.I.I.I.I.",
"I.I.I.I.I.o o 1.1.1.1.1.e.s.s.s.s.s.s.s.J.P.l o > 1.o o P.P.P.P.P.P.P.P.o o W 1.&.o q P.L.s.s.s.s.s.s.s.s.s.s.s.s.s.o o I.I.I.I.I.",
"I.I.I.I.I.o o 1.1.1.1.1.a.s.s.s.s.s.s.s.s.P.% o -.1.f o j.P.P.P.P.P.P.P.j.o f 1.-.o * P.s.s.s.s.s.s.s.s.s.s.s.s.s.s.o o I.I.I.I.I.",
"I.I.I.I.I.o o 1.1.1.1.1.s.s.s.s.s.s.s.s.s.B.c o k 1.,.o o P.P.P.P.P.P.P.o o ,.1.k o c F.s.s.s.s.s.s.s.s.s.s.s.s.s.s.o o I.I.I.I.I.",
"I.I.I.I.I.o o 1.1.1.1.1.a.s.s.s.s.s.s.s.s.s.P.o o 1.1.o o o ; H.P.H.- o o o 1.1.o o P.s.s.s.s.s.s.s.s.s.s.s.s.s.s.s.o o I.I.I.I.I.",
"I.I.I.I.I.o o 1.1.1.1.1.a.s.s.s.s.s.s.s.s.s.s.o o E 1.1.6 o o o o o o o 6 1.1.E o o s.s.s.s.s.s.s.s.s.s.s.s.s.s.s.s.o o I.I.I.I.I.",
"I.I.I.I.I.o o 1.1.1.1.1.6.s.s.s.s.s.s.s.s.s.s.s.o o $.1.1.1.R o o o T 1.1.1.$.o o s.s.s.s.s.s.s.s.s.s.s.s.s.s.s.s.s.o o I.I.I.I.I.",
"I.I.I.I.I.o o O.1.1.1.1.1.s.s.s.s.s.s.s.s.s.s.s.! o o & 1.1.1.1.1.1.1.1.1.& o o ! s.s.s.s.s.s.s.s.s.s.s.s.s.s.s.s.4.o o I.I.I.I.I.",
"I.I.I.I.I.I.o o 1.1.1.1.1.s.s.s.s.s.s.s.s.s.s.s.s.=.o o o o ;.1.1.1.;.o o o o =.s.s.s.s.s.s.s.s.s.s.s.s.s.s.s.s.s.o o I.I.I.I.I.I.",
"I.I.I.I.I.I.o o 1.1.1.1.1.s.s.s.s.s.s.s.s.s.s.s.s.s.s.o o o o ' 1.' o o o o s.s.s.s.s.s.s.s.s.s.s.s.s.s.s.s.s.s.s.o o I.I.I.I.I.I.",
"I.I.I.I.I.I.o o 1.1.1.1.1.9.s.s.s.s.s.s.s.s.s.s.s.s.s.s.s.{ o o 1.o o { s.s.s.s.s.s.s.s.s.s.s.s.s.s.s.s.s.s.s.s.s.o o I.I.I.I.I.I.",
"I.I.I.I.I.I.I.o o 1.1.1.1.1.s.s.s.s.s.s.s.s.s.s.s.s.s.s.s.s.o o o o o s.s.s.s.s.s.s.s.s.s.s.s.s.s.s.s.s.s.s.s.s.o o I.I.I.I.I.I.I.",
"I.I.I.I.I.I.I.o o :.1.1.1.1.0.s.s.s.s.s.s.s.s.s.s.s.s.s.s.s.s.o o o s.s.s.s.s.s.s.s.s.s.s.s.s.s.s.s.s.s.s.s.s.t.o o I.I.I.I.I.I.I.",
"I.I.I.I.I.I.I.I.o o 1.1.1.1.1.s.s.s.s.s.s.s.s.s.s.s.s.s.s.s.s.s.s.s.s.s.s.s.s.s.s.s.s.s.s.s.s.s.s.s.s.s.s.s.s.o o I.I.I.I.I.I.I.I.",
"I.I.I.I.I.I.I.I.o o o 1.1.1.1.1.s.s.s.s.s.s.s.s.s.s.s.s.s.s.s.s.s.s.s.s.s.s.s.s.s.s.s.s.s.s.s.s.s.s.s.s.s.s.o o o I.I.I.I.I.I.I.I.",
"I.I.I.I.I.I.I.I.I.o o o 1.1.1.1.1.s.s.s.s.s.s.s.s.s.s.s.s.s.s.s.s.s.s.s.s.s.s.s.s.s.s.s.s.s.s.s.s.s.s.s.s.o o o I.I.I.I.I.I.I.I.I.",
"I.I.I.I.I.I.I.I.I.I.o o o o 1.1.1.1.s.s.s.s.s.s.s.s.s.s.s.s.s.s.s.s.s.s.s.s.s.s.s.s.s.s.s.s.s.s.s.s.s.o o o o I.I.I.I.I.I.I.I.I.I.",
"I.I.I.I.I.I.I.I.I.I.I.I.o o o = 1.1.1.2.s.s.s.s.s.s.s.s.s.s.s.s.s.s.s.s.s.s.s.s.s.s.s.s.s.s.s.s.s.= o o o I.I.I.I.I.I.I.I.I.I.I.I.",
"I.I.I.I.I.I.I.I.I.I.I.I.I.o o o o o o j 1.1.s.s.s.s.s.s.s.s.s.s.s.s.s.s.s.s.s.s.s.s.s.s.s.b o o o o o o I.I.I.I.I.I.I.I.I.I.I.I.I.",
"I.I.I.I.I.I.I.I.I.I.I.I.I.I.I.I.o o o o o o o o o o o o o o o o o o o o o o o o o o o o o o o o o I.I.I.I.I.I.I.I.I.I.I.I.I.I.I.I.",
"I.I.I.I.I.I.I.I.I.I.I.I.I.I.I.I.I.I.I.X o o o o o o o o o o o o o o o o o o o o o o o o o O I.I.I.I.I.I.I.I.I.I.I.I.I.I.I.I.I.I.I."
};
