/* XPM */
static char *result[] = {
/* columns rows colors chars-per-pixel */
"65 65 55 1 ",
"  c #735547",
". c #7C6053",
"X c #7B6054",
"o c #894E3A",
"O c #8D533B",
"+ c #8E533B",
"@ c #8E543B",
"# c #8F523C",
"$ c #90543D",
"% c #995A3F",
"& c #995A40",
"* c #9B5C40",
"= c #9D5D41",
"- c #856D61",
"; c #88857C",
": c #8A857C",
"> c #8B887F",
", c #BD8C73",
"< c #BE8D74",
"1 c #BE8E75",
"2 c #BF8E75",
"3 c #BA957F",
"4 c #C08F76",
"5 c #C19077",
"6 c #C29379",
"7 c #C3937A",
"8 c #C4937A",
"9 c #C4947A",
"0 c #C5957B",
"q c #C5967C",
"w c #C5967D",
"e c #C6977D",
"r c #C7977D",
"t c #C7987F",
"y c #969289",
"u c #97938A",
"i c #9A948A",
"p c #BE9780",
"a c #BD9881",
"s c #ABA7A3",
"d c #ACA9A5",
"f c #AEABA7",
"g c #B0ADA9",
"h c #BBB9B3",
"j c #C19881",
"k c #C79A81",
"l c #C79B81",
"z c #C69A82",
"x c #C89A80",
"c c #C99A80",
"v c #C89A81",
"b c #CA9B80",
"n c #CA9B81",
"m c #C0BDB8",
"M c None",
/* pixels */
"MMMMMMMMMMMMMMMMMMMMMMMMMMMMMMMMMMMMMMMMMMMMMMMMMMMMMMMMMMMMMMMMM",
"&&&&&&=========================$o$===============================",
"&&&&&&=========================$o$===============================",
"&&&&&&=========================$o$===============================",
"&&&OOO@@@@@@@@@@@@@@@@@@@@@@===$o$===@@@@@@@@@@@@@@@@@@@@@@@@@===",
"&&&O,,nnnnnnnnnnnnnnnnnnnnn@===$o$===@nnnnnnnnnnnnnnnnnnnnnnn@===",
"&&&O,,cnnnnnnnnnnnnnnnnnnnn@===$o$===@nnnnnnnnnnnnnnnnnnnnnnn@===",
"&&&O,,rnnnnnnnnnnnnnnnnnnnn@===$o$===@nnnnnnnnnnnnnnnnnnnnnnn@===",
"&&&O,,<nnnnnnnnnnnnnnnnnnnn@===$o$===@nnnnnnnnnnnnnnnnnnnnnnn@===",
"&&&O,,,nnnnnnnnnnnnnnnnnnnn@===$o$===@nnnnnnnnnnnnnnnnnnnnnnn@===",
"&&&O,,,nnnnnnnnnnnnnnnnnnnn@===$o$===@nnnnnnnnnnnnnnnnnnnnnnn@===",
"&&&O,,,nnnnnnnnnnnnnnnnnnnn@===$o$===@nnnnnnnnnnnnnnnnnnnnnnn@===",
"&&&O,,,nnnnnnnnnnnnnnnnnnnn@===$o$===@nnnnnnnnnnnnnnnnnnnnnnn@===",
"&&&O,,,wnnnnnnnnnnnnnnnnnnn@===$o$===@nnnnnnnnnnnnnnnnnnnnnnn@===",
"&&&O,,,,nnnnnnnnnnnnnnnnnnn@===$o$===@nnnnnnnnnnnnnnnnnnnnnnn@===",
"&&&O,,,,nnnnnnnnnnnnnnnnnnn@===$o$===@nnnnnnnnnnnnnnnnnnnnnnn@===",
"&&&O,,,,nnnnnnnnnnnnnnnnnnn@===$o$===@nnnnnnnnnnnnnnnnnnnnnnn@===",
"&&&O,,,,8nnnnnnnnnnnnnnnnnn@===$o$===@nnnnnnnnnnnnnnnnnnnnnnn@===",
"&&&O,,,,,nnnnnnnnnnnnnnnnnn@===$o$===@nnnnnnnnnnnnnnnnnnnnnnn@===",
"&&&O,,,,,nnnnnnnnnnnnnnnnnn@===$o$===@nnnnnnnnnnnnnnnnnnnnnnn@===",
"&&&O,,,,,0nnnnnnnnnnnnnnnnn@===$o$===@nnnnnnnnnnnnnnnnnnnnnnn@===",
"&&&O,,,,,,nnnnnnnnnnnnnnnnn@===$o$===@nnnnnnnnnnnnnnnnnnnnnnn@===",
"&&&O,,,,,,nnnnnnnnnnnnnnnnn@===$o$===@nnnnnnnnnnnnnnnnnnnnnnn@===",
"&&&O,,,,,,<nnnnnnnnnnnnnnnn@===$o$===@nnnnnnnnnnnnnnnnnnnnnnn@===",
"&&&O,,,,,,,nnnnnnnnnnnnnnnn@===$o$===@nnnnnnnnnnnnnnnnnnnnnnn@===",
"&&&O,,,,,,,5nnnnnnnnnnnnnnn@===$o$===@nnnnnnnnnnnnnnnnnnnnnnn@===",
"&&&O,,,,,,,,nnnnnnnnnnnnnnn@===$o$===@nnnnnnnnnnnnnnnnnnnnnnn@===",
"&&&O,,,,,,,,6nnnnnnnnnkinnn@===$o$===@nnnilnnnnnnnnnnnnnnnnnn@===",
"&&&O,,,,,,,,,nnnnnnnnjuhunn@===$o$===@nn;huznnnnnnnnnnnnnnnnn@===",
"&&&O,,,,,,,,,<nnnnnnn;f-unn@===$o$===@nc;-munnnnnnnnnnnnnnnnn@===",
"&&&O,,,,,,,,,,nnnnnnnx  >nn@===$o$===@nn;  vnnnnnnnnnnnnnnnnn@===",
"&&&O,,,,,,,,,,,nnnnnnn  nnn@===$o$===@nnn  nnnnnnnnnnnnnnnnnn@===",
"&&&O,,,,,,,,,,,tnnnnnn  nnn@===$o$===@nnn  nnnnnnnnnnnnnnnnnn@===",
"&&&O,,,,,,,,,,,,nnnnnn  nnn@===$o$===@nnn  nnnnnnnnnnnnnnnnnn@===",
"&&&O,,,,,,,,,,,,,nnnnn  nnn@===$o$===@nnn  nnnnnnnnnnnnnnnnnn@===",
"&&&O,,,,,,,,,,,,,9nnnn  nnn@===$o$===@nnn  nnnnnnnnnnnnnnnnnn@===",
"&&&O,,,,,,,,,,,,,,nnnn  unn@===$o$===@nn;  nnnnnnnnnnnnnnnnnn@===",
"&&&O,,,,,,,,,,,,,,,nn;gXunn@===$o$===@nc;.munnnnnnnnnnnnnnnnn@===",
"&&&O,,,,,,,,,,,,,,,,n3;dynn@===$o$===@nn;syannnnnnnnnnnnnnnnn@===",
"&&&O,,,,,,,,,,,,,,,,,np:nnn@===$o$===@nnn:pnnnnnnnnnnnnnnnnnn@===",
"&&&O,,,,,,,,,,,,,,,,,,nnnnn@===$o$===@nnnnnnnnnnnnnnnnnnnnnnn@===",
"&&&O,,,,,,,,,,,,,,,,,,2nnnn@===$o$===@nnnnnnnnnnnnnnnnnnnnnnn@===",
"&&&O,,,,,,,,,,,,,,,,,,,1nnn@===$o$===@nnnnnnnnnnnnnnnnnnnnnnn@===",
"&&&O,,,,,,,,,,,,,,,,,,,,,nn@===$o$===@nnnnnnnnnnnnnnnnnnnnnnn@===",
"&&&O,,,,,,,,,,,,,,,,,,,,,,n@===$o$===@nnnnnnnnnnnnnnnnnnnnnnn@===",
"&&&O,,,,,,,,,,,,,,,,,,,,,,,@===$o$===@nnnnnnnnnnnnnnnnnnnnnnn@===",
"&&&O,,,,,,,,,,,,,,,,,,,,,,,O===$o$===@nnnnnnnnnnnnnnnnnnnnnnn@===",
"&&&O,,,,,,,,,,,,,,,,,,,,,,,O&*=$o$===@nnnnnnnnnnnnnnnnnnnnnnn@===",
"&&&O,,,,,,,,,,,,,,,,,,,,,,,O&&&$o$===@nnnnnnnnnnnnnnnnnnnnnnn@===",
"&&&O,,,,,,,,,,,,,,,,,,,,,,,O&&&#o$===@nnnnnnnnnnnnnnnnnnnnnnn@===",
"&&&O,,,,,,,,,,,,,,,,,,,,,,,O&&&#o#===@nnnnnnnnnnnnnnnnnnnnnnn@===",
"&&&O,,,,,,,,,,,,,,,,,,,,,,,O&&&#o#&%=@nnnnnnnnnnnnnnnnnnnnnnn@===",
"&&&O,,,,,,,,,,,,,,,,,,,,,,,O&&&#o#&&&+nnnnnnnnnnnnnnnnnnnnnnn@===",
"&&&O,,,,,,,,,,,,,,,,,,,,,,,O&&&#o#&&&O,4nnnnnnnnnnnnnnnnnnnnn@===",
"&&&O,,,,,,,,,,,,,,,,,,,,,,,O&&&#o#&&&O,,,,nnnnnnnnnnnnnnnnnnn@===",
"&&&O,,,,,,,,,,,,,,,,,,,,,,,O&&&#o#&&&O,,,,,,0nnnnnnnnnnnnnnnn@===",
"&&&O,,,,,,,,,,,,,,,,,,,,,,,O&&&#o#&&&O,,,,,,,,,7nnnnnnnnnnnnn@===",
"&&&O,,,,,,,,,,,,,,,,,,,,,,,O&&&#o#&&&O,,,,,,,,,,,,,qnnnnnnnnn@===",
"&&&O,,,,,,,,,,,,,,,,,,,,,,,O&&&#o#&&&O,,,,,,,,,,,,,,,,,,<ebnn@===",
"&&&O,,,,,,,,,,,,,,,,,,,,,,,O&&&#o#&&&O,,,,,,,,,,,,,,,,,,,,,,,O&&&",
"&&&OOOOOOOOOOOOOOOOOOOOOOOOO&&&#o#&&&OOOOOOOOOOOOOOOOOOOOOOOOO&&&",
"&&&&&&&&&&&&&&&&&&&&&&&&&&&&&&&#o#&&&&&&&&&&&&&&&&&&&&&&&&&&&&&&&",
"&&&&&&&&&&&&&&&&&&&&&&&&&&&&&&&#o#&&&&&&&&&&&&&&&&&&&&&&&&&&&&&&&",
"&&&&&&&&&&&&&&&&&&&&&&&&&&&&&&&#o#&&&&&&&&&&&&&&&&&&&&&&&&&&&&&&&",
"MMMMMMMMMMMMMMMMMMMMMMMMMMMMMMMMMMMMMMMMMMMMMMMMMMMMMMMMMMMMMMMMM"
};
