/* XPM */
static char *result[] = {
/* columns rows colors chars-per-pixel */
"65 65 147 2 ",
"   c #39394A",
".  c #3F3F50",
"X  c #45444F",
"o  c #454554",
"O  c #515159",
"+  c #6A675D",
"@  c #4B4B63",
"#  c #5C546A",
"$  c #5C5B6E",
"%  c #615A74",
"&  c #645E79",
"*  c #5D6877",
"=  c #5D6D7B",
"-  c #5C6676",
";  c #5C737F",
":  c #7A6D67",
">  c #67627F",
",  c #6A6A77",
"<  c #907D4E",
"1  c #E7BF1B",
"2  c #FECF01",
"3  c #F1C60F",
"4  c #F6CC0B",
"5  c #F8CA09",
"6  c #FFD002",
"7  c #EFCF14",
"8  c #F2C91A",
"9  c #EBD016",
"0  c #FFD516",
"q  c #DFCF26",
"w  c #C8CF3F",
"e  c #D6CF30",
"r  c #FFD725",
"t  c #FFD827",
"y  c #FDD92E",
"u  c #FFDD3C",
"i  c #9D8641",
"p  c #86885D",
"a  c #858066",
"s  c #8C8769",
"d  c #96916D",
"f  c #8E887C",
"g  c #9D9770",
"h  c #A99760",
"j  c #A79563",
"k  c #ACA574",
"l  c #AFA876",
"z  c #B6AD78",
"x  c #BFB67D",
"c  c #C0A547",
"v  c #C4A941",
"b  c #BDCF4D",
"n  c #B8CF53",
"m  c #B1D05A",
"M  c #91CF7F",
"N  c #A8CE65",
"B  c #A0CF6F",
"V  c #B4D97E",
"C  c #C1CE46",
"Z  c #D1D44B",
"A  c #FFE047",
"S  c #FFE24E",
"D  c #FFE456",
"F  c #FFE662",
"G  c #FEE86F",
"H  c #5D7781",
"J  c #5D7F88",
"K  c #676280",
"L  c #696584",
"P  c #6B6887",
"I  c #6D6A8D",
"U  c #6F6E91",
"Y  c #706F93",
"T  c #717196",
"R  c #787697",
"E  c #74749B",
"W  c #78789E",
"Q  c #7D7A96",
"!  c #7D7DA2",
"~  c #5C848A",
"^  c #5E8E90",
"/  c #5D9796",
"(  c #5D9B99",
")  c #6C9281",
"_  c #5DA19E",
"`  c #5DACA4",
"'  c #5DB4AA",
"]  c #5DBCAF",
"[  c #5DC4B5",
"{  c #5DCFBC",
"}  c #5DD0BC",
"|  c #6BCFAD",
" . c #74CFA3",
".. c #63D0B6",
"X. c #60D0BC",
"o. c #6CD1B4",
"O. c #73D4B7",
"+. c #85858F",
"@. c #8C8C96",
"#. c #8E8E9F",
"$. c #86849A",
"%. c #96969F",
"&. c #AEAA97",
"*. c #ADA898",
"=. c #8686A8",
"-. c #8A8AAB",
";. c #9090AF",
":. c #9D9DA5",
">. c #9797B4",
",. c #9999B5",
"<. c #9E9EB9",
"1. c #ADADB4",
"2. c #B6B6BC",
"3. c #8BCF87",
"4. c #87CF8B",
"5. c #90CF81",
"6. c #9DDDAD",
"7. c #A3DDA4",
"8. c #CCC381",
"9. c #D5CB84",
"0. c #D3CA8F",
"q. c #DDD287",
"w. c #CFC695",
"e. c #EADE8D",
"r. c #E3D78A",
"t. c #D0E288",
"y. c #EFE38E",
"u. c #FAED92",
"i. c #F6EB94",
"p. c #FFF294",
"a. c #E5EB9A",
"s. c #C6E5A1",
"d. c #ADADC4",
"f. c #BFBFC3",
"g. c #B8B8CC",
"h. c #BEBED1",
"j. c #CACAD3",
"k. c #C8C8D8",
"l. c #D4D4DC",
"z. c #D7D7DA",
"x. c #DDDDE3",
"c. c #EAEAEB",
"v. c #E4E4E8",
"b. c #EFEFF1",
"n. c #FEFEFF",
"m. c #F5F5F9",
"M. c None",
/* pixels */
"M.M.M.M.M.M.M.M.M.M.M.M.M.M.M.M.M.M.M.M.M.M.M.M.M.M.M.# # # # # # # # # # # M.M.M.M.M.M.M.M.M.M.M.M.M.M.M.M.M.M.M.M.M.M.M.M.M.M.M.",
"M.M.M.M.M.M.M.M.M.M.M.M.M.M.M.M.M.M.M.M.M.M.M.; ~ ( ` ' [ [ [ ] ' / ~ = # # # # # # M.M.M.M.M.M.M.M.M.M.M.M.M.M.M.M.M.M.M.M.M.M.M.",
"M.M.M.M.M.M.M.M.M.M.M.M.M.M.M.M.M.M.M.M.( ' } { { { { { { } { { { { { { { ` J $ # # # # # M.M.M.M.M.M.M.M.M.M.M.M.M.M.M.M.M.M.M.M.",
"M.M.M.M.M.M.M.M.M.M.M.M.M.M.M.M.M.M.` { } } } } { { { { { { { { { { { { { { { { _ = # # # # # M.M.M.M.M.M.M.M.M.M.M.M.M.M.M.M.M.M.",
"M.M.M.M.M.M.M.M.M.M.M.M.M.M.M.M.[ { { { } } } } { {  .5.m w q 7 4 7 e b B M  .{ { { ` - # # # # # M.M.M.M.M.M.M.M.M.M.M.M.M.M.M.M.",
"M.M.M.M.M.M.M.M.M.M.M.M.M.M.M.{ { { { { } } ..3.Z y u S D G G D u t 0 2 2 2 2 2 b 4.| { / # # # # # # M.M.M.M.M.M.M.M.M.M.M.M.M.M.",
"M.M.M.M.M.M.M.M.M.M.M.M.M.{ { { { { { {  .V G p.p.p.p.p.p.p.p.p.p.p.p.p.F r 2 2 2 2 2 n | { * # # # # # M.M.M.M.M.M.M.M.M.M.M.M.M.",
"M.M.M.M.M.M.M.M.M.M.M.M.{ } { { { { | t.p.p.p.p.p.p.p.p.p.p.p.p.p.p.p.p.p.p.p.A 8 5 2 2 2 b  .; # # # # # M.M.M.M.M.M.M.M.M.M.M.M.",
"M.M.M.M.M.M.M.M.M.M.M.{ { } { { } 7.p.p.p.p.p.p.p.p.p.e.q.8.l p + a k 8.9.e.p.p.p.&.Q j 8 5 2 N ^ # # # # # M.M.M.M.M.M.M.M.M.M.M.",
"M.M.M.M.M.M.M.M.M.{ { { { { { O.p.p.p.p.p.p.p.p.r.g                           s q.p.i.$.E E c 3 4 ) # # # # # M.M.M.M.M.M.M.M.M.M.",
"M.M.M.M.M.M.M.M.M.{ { } { } 6.p.p.p.p.p.p.p.l                                       x i.&.E E E h 5 p # # # # # M.M.M.M.M.M.M.M.M.",
"M.M.M.M.M.M.M.M.{ { { { { s.p.p.p.p.p.p.x X                                             l w.E E E E v i # # # # # M.M.M.M.M.M.M.M.",
"M.M.M.M.M.M.M.{ } { { { a.p.p.p.p.p.y..                                                   X 0.E E E E R < # # # # # M.M.M.M.M.M.M.",
"M.M.M.M.M.M.{ { { { { s.p.p.p.p.p.9.                                                          f E E E E E : # # # # # M.M.M.M.M.M.",
"M.M.M.M.M.M.{ } { { 6.p.p.p.p.p.d                                                               @ E E E E E K # # # # # M.M.M.M.M.",
"M.M.M.M.M.{ { { { O.p.p.p.p.p.O                                                                   @ E E E E E L # # # # M.M.M.M.M.",
"M.M.M.M.[ { } { X.p.p.p.p.p.d                                                                       @ E E E E E L # # # # M.M.M.M.",
"M.M.M.M.{ { { { 7.p.p.p.p.q.                                                                          #.E E E E E & # # # M.M.M.M.",
"M.M.M.` { { { o.p.p.p.p.y.                                                                              l.E E E E E % # # # M.M.M.",
"M.M.M.{ { } { t.p.p.p.p..                                                                               o k.E E E E E # # # M.M.M.",
"M.M.( { { {  .p.p.p.p.x                                                                                   1.d.E E E E P # # # M.M.",
"M.M.' { { } V p.p.p.u.                                                                                      m.=.E E E E % # # M.M.",
"M.M.{ { { ..G p.p.p.l                                                                                       f.m.W E E E U # # M.M.",
"M.; { { { 3.p.p.p.p.                                                                                          n.d.E E E E % # # M.",
"M.~ { } { Z p.p.p.r.                                                                                          x.n.! E E E I # # M.",
"M.( { { { y p.p.p.g                                                                                           @.n.g.E E E E $ # M.",
"M.` { {  .u p.p.p..                                                                                             n.n.E E E E > # M.",
"# ' } { 5.D p.p.e.                                                                                              c.n.>.E E E Y # # ",
"# [ { { m D p.p.q.                                                                                              l.n.l.E E E E $ # ",
"# [ { { C G p.p.x                                                                                               j.n.n.E E E E & # ",
"# [ { { q F p.p.x                                                                                               1.n.n.-.E E E K # ",
"# ] { { 7 D p.p.s                                                                                               +.n.n.>.E E E I # ",
"# ' { { 4 u p.p.+                                                                                               , n.n.d.E E E U # ",
"# / } { 9 t p.p.<                                                                                               +.n.n.k.E E E T # ",
"# ~ { { e 0 p.p.&.                                                                                              2.n.n.l.E E E E # ",
"# * } } b 6 p.p.x                                                                                               l.n.n.x.E E E E # ",
"# # { { B 2 F p.9.                                                                                              z.n.n.k.E E E E # ",
"# # ` { M 2 r p.y.                                                                                              c.n.n.d.E E E E # ",
"M.# J {  .2 6 p.p..                                                                                             n.n.n.<.E E E T M.",
"M.# $ { } 6 6 A p.s                                                                                           #.n.n.n.>.E E E U M.",
"M.# # ( { b 2 8 u.r.                                                                                          v.n.n.n.-.E E E L M.",
"M.# # = { 4.2 5 &.u.                                                                                          n.n.n.n.E E E E L M.",
"M.M.# # ` | 2 2 Q i.x                                                                                       1.n.n.n.h.E E E E M.M.",
"M.M.$ # - { n 2 j $.u.                                                                                      m.n.n.n.;.E E E E M.M.",
"M.M.$ # # ( | 2 1 E *.k                                                                                   j.n.n.n.n.E E E E U M.M.",
"M.M.M.# # # [ C 2 E E w..                                                                               . n.n.n.n.d.E E E E M.M.M.",
"M.M.M.# # # =  .2 c E E 0.                                                                              b.n.n.n.n.W E E E E M.M.M.",
"M.M.M.M.# # # H N 3 E E Y f                                                                           z.n.n.n.n.<.E E E E M.M.M.M.",
"M.M.M.M.# # # # ^ 4 h E E E @                                                                       :.n.n.n.n.n.E E E E E M.M.M.M.",
"M.M.M.M.M.# # # # ) 5 E E E E @                                                                   O n.n.n.n.n.=.E E E E M.M.M.M.M.",
"M.M.M.M.M.# # # # # p v E E E E @                                                               %.n.n.n.n.n.,.E E E E E M.M.M.M.M.",
"M.M.M.M.M.M.# # # # # i R E E E E #.                                                          z.n.n.n.n.n.h.E E E E E M.M.M.M.M.M.",
"M.M.M.M.M.M.M.# # # # # < E E E E E l.o                                                     b.n.n.n.n.n.v.E E E E E M.M.M.M.M.M.M.",
"M.M.M.M.M.M.M.M.# # # # # : E E E E E k.1.                                              j.n.n.n.n.n.n.h.E E E E E M.M.M.M.M.M.M.M.",
"M.M.M.M.M.M.M.M.M.# # # # # > E E E E E d.m.f..                                     1.n.n.n.n.n.n.n.,.E E E E E E M.M.M.M.M.M.M.M.",
"M.M.M.M.M.M.M.M.M.M.# # # # # L E E E E E =.m.m.x.@..                         :.v.n.n.n.n.n.n.n.n.=.E E E E E E M.M.M.M.M.M.M.M.M.",
"M.M.M.M.M.M.M.M.M.M.M.# # # # # L E E E E E W d.n.n.n.c.l.j.1.+., @.2.l.z.c.n.n.n.n.n.n.n.n.n.,.E E E E E E E M.M.M.M.M.M.M.M.M.M.",
"M.M.M.M.M.M.M.M.M.M.M.M.# # # # # % E E E E E E ! g.n.n.n.n.n.n.n.n.n.n.n.n.n.n.n.n.n.n.n.d.! E E E E E E M.M.M.M.M.M.M.M.M.M.M.M.",
"M.M.M.M.M.M.M.M.M.M.M.M.M.# # # # # % E E E E E E E E >.l.n.n.n.n.n.n.n.n.n.n.n.n.n.h.;.E E E E E E E E M.M.M.M.M.M.M.M.M.M.M.M.M.",
"M.M.M.M.M.M.M.M.M.M.M.M.M.M.# # # # # # P E E E E E E E E E -.>.d.k.l.x.k.d.1.>.-.E E E E E E E E E E M.M.M.M.M.M.M.M.M.M.M.M.M.M.",
"M.M.M.M.M.M.M.M.M.M.M.M.M.M.M.M.$ # # # # % U E E E E E E E E E E E E E T E E E E E E E E E E E E M.M.M.M.M.M.M.M.M.M.M.M.M.M.M.M.",
"M.M.M.M.M.M.M.M.M.M.M.M.M.M.M.M.M.M.# # # # # % P E E E E T E E E E E E E E E E E E E E E E E M.M.M.M.M.M.M.M.M.M.M.M.M.M.M.M.M.M.",
"M.M.M.M.M.M.M.M.M.M.M.M.M.M.M.M.M.M.M.M.# # # # # $ K U ! T E E E E E E E E E E E E E E Y M.M.M.M.M.M.M.M.M.M.M.M.M.M.M.M.M.M.M.M.",
"M.M.M.M.M.M.M.M.M.M.M.M.M.M.M.M.M.M.M.M.M.M.M.# # # # # # & K I T T E E E E T I L L M.M.M.M.M.M.M.M.M.M.M.M.M.M.M.M.M.M.M.M.M.M.M.",
"M.M.M.M.M.M.M.M.M.M.M.M.M.M.M.M.M.M.M.M.M.M.M.M.M.M.M.# # # # # # # # # # # M.M.M.M.M.M.M.M.M.M.M.M.M.M.M.M.M.M.M.M.M.M.M.M.M.M.M."
};
