/* XPM */
static char *result[] = {
/* columns rows colors chars-per-pixel */
"65 65 226 2 ",
"   c black",
".  c #000101",
"X  c #010101",
"o  c #010102",
"O  c #020202",
"+  c #020203",
"@  c #020303",
"#  c gray1",
"$  c #030404",
"%  c #040404",
"&  c gray2",
"*  c #050607",
"=  c #060606",
"-  c #070809",
";  c gray3",
":  c #080909",
">  c #080A0B",
",  c #090A0B",
"<  c #0B0B0B",
"1  c #090B0C",
"2  c #0C0C0C",
"3  c gray5",
"4  c #0C0D0E",
"5  c #0E0E0E",
"6  c gray6",
"7  c #0D0F10",
"8  c #0F1111",
"9  c #0F1113",
"0  c #111314",
"q  c #121415",
"w  c #151515",
"e  c #141617",
"r  c #141718",
"t  c #151719",
"y  c #151819",
"u  c #15191A",
"i  c #16181A",
"p  c #171B1C",
"a  c #181818",
"s  c #181A1B",
"d  c #181B1B",
"f  c #1A1D1E",
"g  c #1A1D1F",
"h  c gray11",
"j  c #1B1E20",
"k  c #1C2022",
"l  c #222222",
"z  c #212527",
"x  c #212627",
"c  c #252525",
"v  c #272727",
"b  c #232628",
"n  c #23282A",
"m  c #272B2D",
"M  c #282828",
"N  c gray17",
"B  c #282C2E",
"V  c #2D2D2D",
"C  c #2E3336",
"Z  c #2F3336",
"A  c #2F3436",
"S  c #2F3437",
"D  c #313131",
"F  c #323232",
"G  c #313639",
"H  c #33383B",
"J  c #373C3F",
"K  c #363D40",
"L  c #373E41",
"P  c #3B4043",
"I  c #3B4144",
"U  c #3B4245",
"Y  c #3C4346",
"T  c #3E4548",
"R  c #3E4649",
"E  c #41484C",
"W  c #42494C",
"Q  c #434A4D",
"!  c #444B4E",
"~  c #444C4F",
"^  c #454C4F",
"/  c #484848",
"(  c #494949",
")  c gray29",
"_  c #4C4C4C",
"`  c #454D50",
"'  c #454D51",
"]  c #474F53",
"[  c #4F5050",
"{  c #495154",
"}  c #4A5256",
"|  c #4C5357",
" . c #4C5458",
".. c #515151",
"X. c #525A5E",
"o. c #5D5D5D",
"O. c #545C61",
"+. c #565F62",
"@. c #575F63",
"#. c #586165",
"$. c #5D676C",
"%. c #5C686D",
"&. c gray40",
"*. c #606A6F",
"=. c #686868",
"-. c #6D6D6D",
";. c gray43",
":. c #616C70",
">. c #646F73",
",. c #646F74",
"<. c #657075",
"1. c #667075",
"2. c #657076",
"3. c #697378",
"4. c #6B757A",
"5. c #6B767B",
"6. c #6B777C",
"7. c #6C767C",
"8. c #6C787D",
"9. c #6E797F",
"0. c #717171",
"q. c #767676",
"w. c #7B7B7B",
"e. c #7C7C7C",
"r. c #7E7E7E",
"t. c gray50",
"y. c #707D82",
"u. c #717D82",
"i. c #727E83",
"p. c #737F84",
"a. c #737F85",
"s. c #747F84",
"d. c #747F85",
"f. c #748186",
"g. c #758187",
"h. c #788489",
"j. c #7A858C",
"k. c #79868C",
"l. c #7A868C",
"z. c #7A878C",
"x. c #7A878D",
"c. c #7B888E",
"v. c #7C898F",
"b. c #7D8990",
"n. c #7D8A90",
"m. c #7F8B91",
"M. c #7E8C91",
"N. c #838383",
"B. c #848484",
"V. c #868686",
"C. c #878888",
"Z. c #898989",
"A. c #8B8B8B",
"S. c #8E8E8E",
"D. c #808D93",
"F. c #828F95",
"G. c #849197",
"H. c #849298",
"J. c #859298",
"K. c #859299",
"L. c #86949A",
"P. c #86949B",
"I. c #87959B",
"U. c #88969C",
"Y. c #89969D",
"T. c #8B999F",
"R. c gray57",
"E. c #939393",
"W. c gray60",
"Q. c #9A9A9A",
"!. c #9B9B9B",
"~. c #9D9D9D",
"^. c #8D9BA1",
"/. c #8F9DA4",
"(. c #8F9EA4",
"). c #909EA5",
"_. c #919FA6",
"`. c #92A0A7",
"'. c #92A1A8",
"]. c #93A1A8",
"[. c #96A4AB",
"{. c #96A5AB",
"}. c #96A5AC",
"|. c #97A5AC",
" X c #97A6AC",
".X c #97A6AD",
"XX c #98A6AD",
"oX c #98A7AE",
"OX c #99A8AE",
"+X c #99A8AF",
"@X c gray64",
"#X c gray65",
"$X c #AAAAAA",
"%X c gray69",
"&X c #B1B1B1",
"*X c #B2B2B2",
"=X c gray70",
"-X c #B7B7B7",
";X c #BCBCBC",
":X c gray76",
">X c #C3C3C3",
",X c #C5C5C5",
"<X c #CACACA",
"1X c gray80",
"2X c #C8CFD2",
"3X c gainsboro",
"4X c #DDDDDD",
"5X c gray88",
"6X c gray89",
"7X c #E4E4E4",
"8X c #E7EBED",
"9X c #E9E9E9",
"0X c #EAEAEA",
"qX c #ECECEC",
"wX c gray93",
"eX c #EEEEEE",
"rX c #EFEFEF",
"tX c gray94",
"yX c #F4F4F4",
"uX c #F8F8F8",
"iX c gray98",
"pX c #FBFBFB",
"aX c #FDFDFD",
"sX c #FEFEFE",
"dX c white",
"fX c None",
/* pixels */
"fXfXfXfXfXfXfXfXfXfXfXfXfXfXfXfXfXfXfXfXfXfXfXfXfXfXfXfXfXfXfXfXfXfXfXfXfXfXfXfXfXfXfXfXfXfXfXfXfXfXfXfXfXfXfXfXfXfXfXfXfXfXfXfXfX",
"fXfXfXfXfXfXfXfXfXfXfXfXfXfXfXfXfXfXfXfXfXfXfXfXfXfXfXfXfXfXfXfXfXfXfXfXfXfXfXfXfXfXfXfXfXfXfXfXfXfXfXfXfXfXfXfXfXfXfXfXfXfXfXfXfX",
"fXfXfXfXfXfXfXfXfXfXfXfXfXfXfXfXfXfXfXfXfXfXfXfXfXfXfXfXfXfXfXfXfXfXfXfXfXfXfXfXfXfXfXfXfXfXfXfXfXfXfXfXfXfXfXfXfXfXfXfXfXfXfXfXfX",
"fXfXfXfXfXfXfXfXfXfXfXfXfXfXfXfXfXfXfXfXfXfXfXfXfXfXfXfXfXfXfXfXfXfXfXfXfXfXfXfXfXfXfXfXfXfXfXfXfXfXfXfXfXfXfXfXfXfXfXfXfXfXfXfXfX",
"fXfXfXfXfXfXfXfXfXfXfXfXfXfXfXfXfXfXfXfXfXfXfXfXfXfXfXfXfXfXfXfXfXfXfXfXfXfXfXfXfXfXfXfXfXfXfXfXfXfXfXfXfXfXfXfXfXfXfXfXfXfXfXfXfX",
"fXfXfXfXfXfXfXfXfXfXfXfXfXfXfXfXfXfXfXfXfXfXfXfXfXfXfXfXfXfXfXfXfXfXfXfXfXfXfXfXfXfXfXfXfXfXfXfXfXfXfXfXfXfXfXfXfXfXfXfXfXfXfXfXfX",
"fXfXfXfXfXfXfXfXfXfXfXfXfXfXfXfXfXfXfXfXfXfXfXfXfXfXfXfXfXfXfXfXfXfXfXfXfXfXfXfXfXfXfXfXfXfXfXfXfXfXfXfXfXfXfXfXfXfXfXfXfXfXfXfXfX",
"fXfXfXfXfXfXfXfXfXfXfXfXfXfXfXfXfXfXfXfXfXfXfXfXfXfXfXfXfXfXfXfXfXfXfXfXfXfXfXfXfXfXfXfXfXfXfXfXfXfXfXfXfXfXfXfXfXfXfXfXfXfXfXfXfX",
"fXfXfXfXfXfXfXfXfXfXfXfXfXfXfXfXfXfXfXfXfXfXfXfXfXfXfXfXfXfXfXfXfXfXfXfXfXfXfXfXfXfXfXfXfXfXfXfXfXfXfXfXfXfXfXfXfXfXfXfXfXfXfXfXfX",
"fXfXfXfXfXfXfXfXfXfXfXfXfXfXfXfXfXfXfXfXfXfXfXfXfXfXfXfXfXfXfXfXfXfXfXfXfXfXfXfXfXfXfXfXfXfXfXfXfXfXfXfXfXfXfXfXfXfXfXfXfXfXfXfXfX",
"fXfXfXfXfXfXfXfXfXfXfXfXfXfXfXfXfXfXfXfXfXfXfXfXfXfXfXfXfXfXfXfXfXfXfXfXfXfXfXfXfXfXfXfXfXfXfXfXfXfXfXfXfXfXfXfXfXfXfXfXfXfXfXfXfX",
"fXfXfXfXfXfXfXfXfXfXfXfXfXfXfXfXfXfXfXfXfXfXfXfXfXfXfXfXfXfXfXfXfXfXfXfXfXfXfXfXfXfXfXfXfXfXfXfXfXfXfXfXfXfXfXfXfXfXfXfXfXfXfXfXfX",
"fXfXfXfXfXfXfXfXfXfXfXfXfXfXfXfXfXfXfXfXfXfXfXfXfXfXfXfXfXfXfXfXfXfXfXfXfXfXfXfXfXfXfXfXfXfXfXfXfXfXfXfXfXfXfXfXfXfXfXfXfXfXfXfXfX",
"fXfXfXfXfXfXfXfXfXfXfXfXfXfXfXfXfXfXfXfXfXfXfXfXfXfXfXfXfXfXfXfXfXfXfXfXfXfXfXfXfXfXfXfXfXfXfXfXfXfXfXfXfXfXfXfXfXfXfXfXfXfXfXfXfX",
"fXfXfXfXfXfXfXfXfXfXfXfXfXfXfXfXfXfXfXfXfXfXfXfXfXfX                          fXfXfXfXfXfXfXfXfXfXfXfXfXfXfXfXfXfXfXfXfXfXfXfXfXfX",
"fXfXfXfXfXfXfXfXfXfXfXfXfXfXfXfXfXfXfXfX                    X X X X X .                   fXfXfXfXfXfXfXfXfXfXfXfXfXfXfXfXfXfXfXfX",
"fXfXfXfXfXfXfXfXfXfXfXfXfXfXfXfXfX              r ^ >.F. XoXoXoXoXoXoXoX|.J.5.Q u               fXfXfXfXfXfXfXfXfXfXfXfXfXfXfXfXfX",
"fXfXfXfXfXfXfXfXfXfXfXfXfXfX          p :.`.}.oX+X+X+X+X+X+X+X+X+X+X+X+X+X+X+X+X+XoX}.].4.j           fXfXfXfXfXfXfXfXfXfXfXfXfXfX",
"fXfXfXfXfXfXfXfXfXfXfX          I ^.[.+X+X+X+X+X+X+X+X+X+X+X+X+X+X+X+X+X+X+X+X+X+X+X+X+X+X+X'.a.K           fXfXfXfXfXfXfXfXfXfXfX",
"fXfXfXfXfXfXfXfXfX        k G.{.+X+X+X+X+X+X+X+X+X+X+X+X+X+X+X+X+X+X+X+X+X+X+X+X+X+X+X+X+X+X+XU.v.l.7.r         fXfXfXfXfXfXfXfXfX",
"fXfXfXfXfXfXfXfX      C T.+X+X+X+X+X+X+X+X+X+X+X+X+X+X+X+X+X+X+X+X+X+X+X+X+X+X+X+X+X+X+X+X+X+XoXv.v.v.v.u.n       fXfXfXfXfXfXfXfX",
"fXfXfXfXfXfXfX    e I.+X+X+X+X+X+X+X+X+X+X+X+X+X+X+X+X+X+X+X+X+X+X+X+X+X+X+X+X+X+X+X+X+X+X+X+X+XH.v.v.v.v.v.9.9       fXfXfXfXfXfX",
"fXfXfXfXfXfXfXI.h..X+X+X+X+X+X+X+X+X+X+X+X+X+X+X+X+X+X+X+X+X+X+X+X+X+X+X+X+X+X+X+X+X+X+X+X+X+X+X.Xv.v.v.v.v.v.c.X.X     fXfXfXfXfX",
"fXfXfXfX  %.OX+X+X+X+X+X+X+X+X+X+X+X+X+X+X+X+X+X+X+X+X+X+X+X+X+X+X+X+X+X+X+X+X+X+X+X+X+X+X+X+X+X+Xb.v.v.v.v.v.v.v.6.7     fXfXfXfX",
"fXfXfX    H +X+X+X+X+X+X+X+X+X+X+X+X+X+X+X+X+X+X+X+X+X+X+X+X+X+X+X+X+X+X+X+X+X+X+X+X+X+X+X+X+X+X+XL.v.v.v.v.v.v.v.v.p.r     fXfXfX",
"fXfX    s ).+X+X+X+X+X+X+X+X+X+X+X+X+X+X+X+X+X+X+X+X+X+X+X+X+X+X+X+X+X+X+X+X+X+X+X+X+X+X+X+X+X+X+X[.v.v.v.v.v.v.v.v.v.f.q     fXfX",
"fXfX  - K.+X+X+X+X+X+X+X+X+X+X+X+X+X+X+X+X+X+X+X+X+X+X+X+X+X+X+X+X+X+X+X+X+X+X+X+X+X+X+X+X+X+X+X+X+Xn.v.v.v.v.v.v.v.v.v.8.&   fXfX",
"fX    +.+X+X+X+X+X+X+X+X+X+X+X+X+X+X+X+X+X+X+X+X+X/.z.1.@.{ T I J Y E ] #.3.j._.+X+X+X+X+X+X+X+X+X+Xn.v.v.v.v.v.v.v.v.v.v.~     fX",
"fX  t .X+X+X+X+X+X+X+X+X+X+X+X+X+X+X+XXXi.' Z f :                               , g A } d.+X+X+X+X+XD.v.v.v.v.v.v.v.v.v.v.x.8   fX",
"     .+X+X+X+X+X+X+X+X+X+X+X+X+XM.W b +           v ( =.t.R.Q.~.@X!.W.E.e.&.) l           s.+X+X+X+XP.v.v.v.v.v.v.v.v.v.v.v.U     ",
"    D.+X+X+X+X+X+X+X+X+X+XY.` i       # / V.=X3XiXdXdXdXdXdXdXdXdXdXdXdXdXdXdXdXiX3X%XN.o.tX8X2X$ d R y.v.v.v.v.v.v.v.v.v.v.<.    ",
"  @ oX+X+X+X+X+X+X+X+Xs.S       c w.>XpXdXdXdXdXdXdXdXdXdXdXdXdXdXdXdXdXdXdXdXdXdXdXdXdXdXdXdXpXN       m *.v.v.v.v.v.v.v.v.c.    ",
"  > +X+X+X+X+X+X+Xl.B     ; -.1XdXdXdXdXdXdXdXdXdXdXdXdXdXdXdXdXdXdXdXdXdXdXdXdXdXdXdXdXdXdXdXdXdX<X;.=     z ,.v.v.v.v.v.v.v.*   ",
"  o oX+X+X+X+X(.P     a A.iXdXdXdXdXdXdXdXdXdXdXdXdXdXdXdXdXdXdXdXdXdXdXdXdXdXdXdXdXdXdXdXdXdXdXdXdXdXuXZ.w     G g.v.v.v.v.c.X   ",
"    m.+X+X+Xi.4   < B.aXdXdXdXdXdXdXdXdXdXdXdXdXdXdXdXdXdXdXdXdXdXdXdXdXdXdXdXdXdXdXdXdXdXdXdXdXdXdXdXdXdXaXr.<   1 $.v.v.v.2.    ",
"    | +XoXO.    _ qXdXdXdXdXdXdXdXdXdXdXdXdXdXdXdXdXdXdXdXdXdXdXdXdXdXdXdXdXdXdXdXdXdXdXdXdXdXdXdXdXdXdXdXdXdX0X(     ` c.v.Y     ",
"fX  y [.!   ; S.dXdXdXdXdXdXdXdXdXdXdXdXdXdXdXdXdXdXdXdXdXdXdXdXdXdXdXdXdXdXdXdXdXdXdXdXdXdXdXdXdXdXdXdXdXdXdXdXdXC.;   L k.0   fX",
"fX    x   6 ;XdXdXdXdXdXdXdXdXdXdXdXdXdXdXdXdXdXdXdXdXdXdXdXdXdXdXdXdXdXdXdXdXdXdXdXdXdXdXdXdXdXdXdXdXdXdXdXdXdXdXdX-X5   g     fX",
"fXfX    2 ,XdXdXdXdXdXdXdXdXdXdXdXdXdXdXdXdXdXdXdXdXdXdXdXdXdXdXdXdXdXdXdXdXdXdXdXdXdXdXdXdXdXdXdXdXdXdXdXdXdXdXdXdXdX:X3     fXfX",
"fXfX    M rXdXdXdXdXdXdXdXdXdXdXdXdXdXdXdXdXdXdXdXdXdXdXdXdXdXdXdXdXdXdXdXdXdXdXdXdXdXdXdXdXdXdXdXdXdXdXdXdXdXdXdXdXdXrXM     fXfX",
"fXfXfX    V qXdXdXdXdXdXdXdXdXdXdXdXdXdXdXdXdXdXdXdXdXdXdXdXdXdXdXdXdXdXdXdXdXdXdXdXdXdXdXdXdXdXdXdXdXdXdXdXdXdXdXdXeXV     fXfXfX",
"fXfXfXfX    h 5XdXdXdXdXdXdXdXdXdXdXdXdXdXdXdXdXdXdXdXdXdXdXdXdXdXdXdXdXdXdXdXdXdXdXdXdXdXdXdXdXdXdXdXdXdXdXdXdXdX5Xh     fXfXfXfX",
"fXfXfXfXfX    # #XaXdXdXdXdXdXdXdXdXdXdXdXdXdXdXdXdXdXdXdXdXdXdXdXdXdXdXdXdXdXdXdXdXdXdXdXdXdXdXdXdXdXdXdXdXdXaX$X%     fXfXfXfXfX",
"fXfXfXfXfXfX      v 6XdXdXdXdXdXdXdXdXdXdXdXdXdXdXdXdXdXdXdXdXdXdXdXdXdXdXdXdXdXdXdXdXdXdXdXdXdXdXdXdXdXdXdX7XV       fXfXfXfXfXfX",
"fXfXfXfXfXfXfXfX      ..9XdXdXdXdXdXdXdXdXdXdXdXdXdXdXdXdXdXdXdXdXdXdXdXdXdXdXdXdXdXdXdXdXdXdXdXdXdXdXdX9X[       fXfXfXfXfXfXfXfX",
"fXfXfXfXfXfXfXfXfX        F 4XiXdXdXdXdXdXdXdXdXdXdXdXdXdXdXdXdXdXdXdXdXdXdXdXdXdXdXdXdXdXdXdXdXdXiX4XF         fXfXfXfXfXfXfXfXfX",
"fXfXfXfXfXfXfXfXfXfXfX        X &.qXiXdXdXdXdXdXdXdXdXdXdXdXdXdXdXdXdXdXdXdXdXdXdXdXdXdXdXdXiXwXq.X         fXfXfXfXfXfXfXfXfXfXfX",
"fXfXfXfXfXfXfXfXfXfXfXfXfXfX          D *XyXiXsXdXdXdXdXdXdXdXdXdXdXdXdXdXdXdXdXdXsXiXyX*XD           fXfXfXfXfXfXfXfXfXfXfXfXfXfX",
"fXfXfXfXfXfXfXfXfXfXfXfXfXfXfXfXfX              M 0.*X4XpXaXaXsXsXsXaXaXpX4X&X0.v               fXfXfXfXfXfXfXfXfXfXfXfXfXfXfXfXfX",
"fXfXfXfXfXfXfXfXfXfXfXfXfXfXfXfXfXfXfXfX                  X X O O O X X                   fXfXfXfXfXfXfXfXfXfXfXfXfXfXfXfXfXfXfXfX",
"fXfXfXfXfXfXfXfXfXfXfXfXfXfXfXfXfXfXfXfXfXfXfXfXfXfX                          fXfXfXfXfXfXfXfXfXfXfXfXfXfXfXfXfXfXfXfXfXfXfXfXfXfX",
"fXfXfXfXfXfXfXfXfXfXfXfXfXfXfXfXfXfXfXfXfXfXfXfXfXfXfXfXfXfXfXfXfXfXfXfXfXfXfXfXfXfXfXfXfXfXfXfXfXfXfXfXfXfXfXfXfXfXfXfXfXfXfXfXfX",
"fXfXfXfXfXfXfXfXfXfXfXfXfXfXfXfXfXfXfXfXfXfXfXfXfXfXfXfXfXfXfXfXfXfXfXfXfXfXfXfXfXfXfXfXfXfXfXfXfXfXfXfXfXfXfXfXfXfXfXfXfXfXfXfXfX",
"fXfXfXfXfXfXfXfXfXfXfXfXfXfXfXfXfXfXfXfXfXfXfXfXfXfXfXfXfXfXfXfXfXfXfXfXfXfXfXfXfXfXfXfXfXfXfXfXfXfXfXfXfXfXfXfXfXfXfXfXfXfXfXfXfX",
"fXfXfXfXfXfXfXfXfXfXfXfXfXfXfXfXfXfXfXfXfXfXfXfXfXfXfXfXfXfXfXfXfXfXfXfXfXfXfXfXfXfXfXfXfXfXfXfXfXfXfXfXfXfXfXfXfXfXfXfXfXfXfXfXfX",
"fXfXfXfXfXfXfXfXfXfXfXfXfXfXfXfXfXfXfXfXfXfXfXfXfXfXfXfXfXfXfXfXfXfXfXfXfXfXfXfXfXfXfXfXfXfXfXfXfXfXfXfXfXfXfXfXfXfXfXfXfXfXfXfXfX",
"fXfXfXfXfXfXfXfXfXfXfXfXfXfXfXfXfXfXfXfXfXfXfXfXfXfXfXfXfXfXfXfXfXfXfXfXfXfXfXfXfXfXfXfXfXfXfXfXfXfXfXfXfXfXfXfXfXfXfXfXfXfXfXfXfX",
"fXfXfXfXfXfXfXfXfXfXfXfXfXfXfXfXfXfXfXfXfXfXfXfXfXfXfXfXfXfXfXfXfXfXfXfXfXfXfXfXfXfXfXfXfXfXfXfXfXfXfXfXfXfXfXfXfXfXfXfXfXfXfXfXfX",
"fXfXfXfXfXfXfXfXfXfXfXfXfXfXfXfXfXfXfXfXfXfXfXfXfXfXfXfXfXfXfXfXfXfXfXfXfXfXfXfXfXfXfXfXfXfXfXfXfXfXfXfXfXfXfXfXfXfXfXfXfXfXfXfXfX",
"fXfXfXfXfXfXfXfXfXfXfXfXfXfXfXfXfXfXfXfXfXfXfXfXfXfXfXfXfXfXfXfXfXfXfXfXfXfXfXfXfXfXfXfXfXfXfXfXfXfXfXfXfXfXfXfXfXfXfXfXfXfXfXfXfX",
"fXfXfXfXfXfXfXfXfXfXfXfXfXfXfXfXfXfXfXfXfXfXfXfXfXfXfXfXfXfXfXfXfXfXfXfXfXfXfXfXfXfXfXfXfXfXfXfXfXfXfXfXfXfXfXfXfXfXfXfXfXfXfXfXfX",
"fXfXfXfXfXfXfXfXfXfXfXfXfXfXfXfXfXfXfXfXfXfXfXfXfXfXfXfXfXfXfXfXfXfXfXfXfXfXfXfXfXfXfXfXfXfXfXfXfXfXfXfXfXfXfXfXfXfXfXfXfXfXfXfXfX",
"fXfXfXfXfXfXfXfXfXfXfXfXfXfXfXfXfXfXfXfXfXfXfXfXfXfXfXfXfXfXfXfXfXfXfXfXfXfXfXfXfXfXfXfXfXfXfXfXfXfXfXfXfXfXfXfXfXfXfXfXfXfXfXfXfX",
"fXfXfXfXfXfXfXfXfXfXfXfXfXfXfXfXfXfXfXfXfXfXfXfXfXfXfXfXfXfXfXfXfXfXfXfXfXfXfXfXfXfXfXfXfXfXfXfXfXfXfXfXfXfXfXfXfXfXfXfXfXfXfXfXfX",
"fXfXfXfXfXfXfXfXfXfXfXfXfXfXfXfXfXfXfXfXfXfXfXfXfXfXfXfXfXfXfXfXfXfXfXfXfXfXfXfXfXfXfXfXfXfXfXfXfXfXfXfXfXfXfXfXfXfXfXfXfXfXfXfXfX"
};
