/* XPM */
static char *result[] = {
/* columns rows colors chars-per-pixel */
"65 65 197 2 ",
"   c black",
".  c #000001",
"X  c #000101",
"o  c #010101",
"O  c #000002",
"+  c #010002",
"@  c #010102",
"#  c #000003",
"$  c #010003",
"%  c #020203",
"&  c #020303",
"*  c #010004",
"=  c #010104",
"-  c #010005",
";  c #010106",
":  c #020106",
">  c #020107",
",  c #030404",
"<  c gray2",
"1  c #050607",
"2  c #020009",
"3  c #02010A",
"4  c #03010B",
"5  c #03010D",
"6  c #03010F",
"7  c #04010F",
"8  c #070809",
"9  c #080909",
"0  c #080A0B",
"q  c #090A0B",
"w  c #090B0C",
"e  c #0C0D0E",
"r  c #030111",
"t  c #040211",
"y  c #060212",
"u  c #060313",
"i  c #060315",
"p  c #070315",
"a  c #070316",
"s  c #070317",
"d  c #080317",
"f  c #0D0F10",
"g  c #080318",
"h  c #09041A",
"j  c #09041B",
"k  c #08031C",
"l  c #09031D",
"z  c #08031E",
"x  c #09041C",
"c  c #0A041D",
"v  c #0A041E",
"b  c #0A041F",
"n  c #0F1111",
"m  c #0F1113",
"M  c #111314",
"N  c #121415",
"B  c #141617",
"V  c #141718",
"C  c #151719",
"Z  c #151819",
"A  c #15191A",
"S  c #16181A",
"D  c #171B1C",
"F  c #181A1B",
"G  c #181B1B",
"H  c #1A1D1E",
"J  c #1A1D1F",
"K  c #0A0421",
"L  c #0B0423",
"P  c #0C0526",
"I  c #0D0526",
"U  c #0C0527",
"Y  c #0D0527",
"T  c #0D0528",
"R  c #0E0528",
"E  c #0E0529",
"W  c #0E052A",
"Q  c #0F052A",
"!  c #0E062A",
"~  c #0F062B",
"^  c #0F062C",
"/  c #0F062D",
"(  c #10062D",
")  c #10062E",
"_  c #12092E",
"`  c #1B1E20",
"'  c #1C2022",
"]  c #212527",
"[  c #212627",
"{  c #232628",
"}  c #23282A",
"|  c #272B2D",
" . c #282C2E",
".. c #2E3336",
"X. c #2F3336",
"o. c #2F3436",
"O. c #2F3437",
"+. c #313639",
"@. c #33383B",
"#. c #373C3F",
"$. c #302D4D",
"%. c #363D40",
"&. c #373E41",
"*. c #3B4043",
"=. c #3B4144",
"-. c #3B4245",
";. c #3C4346",
":. c #3E4548",
">. c #3E4649",
",. c #41484C",
"<. c #42494C",
"1. c #434A4D",
"2. c #444B4E",
"3. c #444C4F",
"4. c #454C4F",
"5. c #454D50",
"6. c #454D51",
"7. c #474F53",
"8. c #495154",
"9. c #4A5256",
"0. c #4C5357",
"q. c #4C5458",
"w. c #525A5E",
"e. c #545C61",
"r. c #565F62",
"t. c #575F63",
"y. c #53566C",
"u. c #586165",
"i. c #5D676C",
"p. c #5C686D",
"a. c #606A6F",
"s. c #616C70",
"d. c #646F73",
"f. c #646F74",
"g. c #657075",
"h. c #667075",
"j. c #657076",
"k. c #697378",
"l. c #6B757A",
"z. c #6B767B",
"x. c #6B777C",
"c. c #6C767C",
"v. c #6C787D",
"b. c #6E797F",
"n. c #717C82",
"m. c #707D82",
"M. c #717D82",
"N. c #727E83",
"B. c #737F84",
"V. c #737F85",
"C. c #747F84",
"Z. c #747F85",
"A. c #748186",
"S. c #758187",
"D. c #788489",
"F. c #7A858C",
"G. c #79868C",
"H. c #7A868C",
"J. c #7A878C",
"K. c #7A878D",
"L. c #7B888E",
"P. c #7C898F",
"I. c #7D8990",
"U. c #7D8A90",
"Y. c #7F8B91",
"T. c #7E8C91",
"R. c #808D93",
"E. c #828F95",
"W. c #849197",
"Q. c #849298",
"!. c #859298",
"~. c #859299",
"^. c #86949A",
"/. c #86949B",
"(. c #87959B",
"). c #88969C",
"_. c #89969D",
"`. c #8B999F",
"'. c #8D9BA1",
"]. c #8F9DA4",
"[. c #8F9EA4",
"{. c #909EA5",
"}. c #919FA6",
"|. c #92A0A7",
" X c #92A1A8",
".X c #93A1A8",
"XX c #96A4AB",
"oX c #96A5AB",
"OX c #96A5AC",
"+X c #97A5AC",
"@X c #97A6AC",
"#X c #97A6AD",
"$X c #98A6AD",
"%X c #98A7AE",
"&X c #99A8AE",
"*X c #99A8AF",
"=X c None",
/* pixels */
"=X=X=X=X=X=X=X=X=X=X=X=X=X=X=X=X=X=X=X=X=X=X=X=X=X=X=X=X=X=X=X=X=X=X=X=X=X=X=X=X=X=X=X=X=X=X=X=X=X=X=X=X=X=X=X=X=X=X=X=X=X=X=X=X=X",
"=X=X=X=X=X=X=X=X=X=X=X=X=X=X=X=X=X=X=X=X=X=X=X=X=X=X=X=X=X=X=X=X=X=X=X=X=X=X=X=X=X=X=X=X=X=X=X=X=X=X=X=X=X=X=X=X=X=X=X=X=X=X=X=X=X",
"=X=X=X=X=X=X=X=X=X=X=X=X=X=X=X=X=X=X=X=X=X=X=X=X=X=X=X=X=X=X=X=X=X=X=X=X=X=X=X=X=X=X=X=X=X=X=X=X=X=X=X=X=X=X=X=X=X=X=X=X=X=X=X=X=X",
"=X=X=X=X=X=X=X=X=X=X=X=X=X=X=X=X=X=X=X=X=X=X=X=X=X=X=X=X=X=X=X=X=X=X=X=X=X=X=X=X=X=X=X=X=X=X=X=X=X=X=X=X=X=X=X=X=X=X=X=X=X=X=X=X=X",
"=X=X=X=X=X=X=X=X=X=X=X=X=X=X=X=X=X=X=X=X=X=X=X=X=X=X=X=X=X=X=X=X=X=X=X=X=X=X=X=X=X=X=X=X=X=X=X=X=X=X=X=X=X=X=X=X=X=X=X=X=X=X=X=X=X",
"=X=X=X=X=X=X=X=X=X=X=X=X=X=X=X=X=X=X=X=X=X=X=X=X=X=X=X=X=X=X=X=X=X=X=X=X=X=X=X=X=X=X=X=X=X=X=X=X=X=X=X=X=X=X=X=X=X=X=X=X=X=X=X=X=X",
"=X=X=X=X=X=X=X=X=X=X=X=X=X=X=X=X=X=X=X=X=X=X=X=X=X=X=X=X=X=X=X=X=X=X=X=X=X=X=X=X=X=X=X=X=X=X=X=X=X=X=X=X=X=X=X=X=X=X=X=X=X=X=X=X=X",
"=X=X=X=X=X=X=X=X=X=X=X=X=X=X=X=X=X=X=X=X=X=X=X=X=X=X=X=X=X=X=X=X=X=X=X=X=X=X=X=X=X=X=X=X=X=X=X=X=X=X=X=X=X=X=X=X=X=X=X=X=X=X=X=X=X",
"=X=X=X=X=X=X=X=X=X=X=X=X=X=X=X=X=X=X=X=X=X=X=X=X=X=X=X=X=X=X=X=X=X=X=X=X=X=X=X=X=X=X=X=X=X=X=X=X=X=X=X=X=X=X=X=X=X=X=X=X=X=X=X=X=X",
"=X=X=X=X=X=X=X=X=X=X=X=X=X=X=X=X=X=X=X=X=X=X=X=X=X=X=X=X=X=X=X=X=X=X=X=X=X=X=X=X=X=X=X=X=X=X=X=X=X=X=X=X=X=X=X=X=X=X=X=X=X=X=X=X=X",
"=X=X=X=X=X=X=X=X=X=X=X=X=X=X=X=X=X=X=X=X=X=X=X=X=X=X=X=X=X=X=X=X=X=X=X=X=X=X=X=X=X=X=X=X=X=X=X=X=X=X=X=X=X=X=X=X=X=X=X=X=X=X=X=X=X",
"=X=X=X=X=X=X=X=X=X=X=X=X=X=X=X=X=X=X=X=X=X=X=X=X=X=X=X=X=X=X=X=X=X=X=X=X=X=X=X=X=X=X=X=X=X=X=X=X=X=X=X=X=X=X=X=X=X=X=X=X=X=X=X=X=X",
"=X=X=X=X=X=X=X=X=X=X=X=X=X=X=X=X=X=X=X=X=X=X=X=X=X=X=X=X=X=X=X=X=X=X=X=X=X=X=X=X=X=X=X=X=X=X=X=X=X=X=X=X=X=X=X=X=X=X=X=X=X=X=X=X=X",
"=X=X=X=X=X=X=X=X=X=X=X=X=X=X=X=X=X=X=X=X=X=X=X=X=X=X=X=X=X=X=X=X=X=X=X=X=X=X=X=X=X=X=X=X=X=X=X=X=X=X=X=X=X=X=X=X=X=X=X=X=X=X=X=X=X",
"=X=X=X=X=X=X=X=X=X=X=X=X=X=X=X=X=X=X=X=X=X=X=X=X=X=X                          =X=X=X=X=X=X=X=X=X=X=X=X=X=X=X=X=X=X=X=X=X=X=X=X=X=X",
"=X=X=X=X=X=X=X=X=X=X=X=X=X=X=X=X=X=X=X=X                    o o o o o X                   =X=X=X=X=X=X=X=X=X=X=X=X=X=X=X=X=X=X=X=X",
"=X=X=X=X=X=X=X=X=X=X=X=X=X=X=X=X=X              V 4.d.E.@X%X%X%X%X%X%X%X+X!.z.1.A               =X=X=X=X=X=X=X=X=X=X=X=X=X=X=X=X=X",
"=X=X=X=X=X=X=X=X=X=X=X=X=X=X          D s.|.OX%X*X*X*X*X*X*X*X*X*X*X*X*X*X*X*X*X*X%XOX.Xl.`           =X=X=X=X=X=X=X=X=X=X=X=X=X=X",
"=X=X=X=X=X=X=X=X=X=X=X          =.'.XX*X*X*X*X*X*X*X*X*X*X*X*X*X*X*X*X*X*X*X*X*X*X*X*X*X*X*X XV.%.          =X=X=X=X=X=X=X=X=X=X=X",
"=X=X=X=X=X=X=X=X=X        ' W.oX*X*X*X*X*X*X*X*X*X*X*X*X*X*X*X*X*X*X*X*X*X*X*X*X*X*X*X*X*X*X*X).P.H.c.V         =X=X=X=X=X=X=X=X=X",
"=X=X=X=X=X=X=X=X      ..`.*X*X*X*X*X*X*X*X*X*X*X*X*X*X*X*X*X*X*X*X*X*X*X*X*X*X*X*X*X*X*X*X*X*X%XP.P.P.P.M.}       =X=X=X=X=X=X=X=X",
"=X=X=X=X=X=X=X    B (.*X*X*X*X*X*X*X*X*X*X*X*X*X*X*X*X*X*X*X*X*X*X*X*X*X*X*X*X*X*X*X*X*X*X*X*X*XQ.P.P.P.P.P.b.m       =X=X=X=X=X=X",
"=X=X=X=X=X=X=X(.D.#X*X*X*X*X*X*X*X*X*X*X*X*X*X*X*X*X*X*X*X*X*X*X*X*X*X*X*X*X*X*X*X*X*X*X*X*X*X*X#XP.P.P.P.P.P.L.w.o     =X=X=X=X=X",
"=X=X=X=X  p.&X*X*X*X*X*X*X*X*X*X*X*X*X*X*X*X*X*X*X*X*X*X*X*X*X*X*X*X*X*X*X*X*X*X*X*X*X*X*X*X*X*X*XI.P.P.P.P.P.P.P.x.f     =X=X=X=X",
"=X=X=X    @.*X*X*X*X*X*X*X*X*X*X*X*X*X*X*X*X*X*X*X*X*X*X*X*X*X*X*X*X*X*X*X*X*X*X*X*X*X*X*X*X*X*X*X^.P.P.P.P.P.P.P.P.B.V     =X=X=X",
"=X=X    F {.*X*X*X*X*X*X*X*X*X*X*X*X*X*X*X*X*X*X*X*X*X*X*X*X*X*X*X*X*X*X*X*X*X*X*X*X*X*X*X*X*X*X*XXXP.P.P.P.P.P.P.P.P.A.N     =X=X",
"=X=X  8 ~.*X*X*X*X*X*X*X*X*X*X*X*X*X*X*X*X*X*X*X*X*X*X*X*X*X*X*X*X*X*X*X*X*X*X*X*X*X*X*X*X*X*X*X*X*XU.P.P.P.P.P.P.P.P.P.v.<   =X=X",
"=X    r.*X*X*X*X*X*X*X*X*X*X*X*X*X*X*X*X*X*X*X*X*X].J.h.t.8.:.=.#.;.,.7.u.k.F.}.*X*X*X*X*X*X*X*X*X*XU.P.P.P.P.P.P.P.P.P.P.3.    =X",
"=X  C #X*X*X*X*X*X*X*X*X*X*X*X*X*X*X*X$XN.6.X.H 9                               q J o.9.Z.*X*X*X*X*XR.P.P.P.P.P.P.P.P.P.P.K.n   =X",
"    q.*X*X*X*X*X*X*X*X*X*X*X*X*XT.<.{ %           # 3 t a h j x x j j j i t 3 #           n.*X*X*X*X/.P.P.P.P.P.P.P.P.P.P.P.-.    ",
"    R.*X*X*X*X*X*X*X*X*X*X_.5.S         3 g v I ( ) ) ) ) ) ) ) ) ) ) ) ) ) ) ) ( P c s 7 _ $.y., G >.m.P.P.P.P.P.P.P.P.P.P.g.    ",
"  & %X*X*X*X*X*X*X*X*XC.O.      $ a K ( ) ) ) ) ) ) ) ) ) ) ) ) ) ) ) ) ) ) ) ) ) ) ) ) ) ) ) ( =       | a.P.P.P.P.P.P.P.P.L.    ",
"  0 *X*X*X*X*X*X*XH. .    . y L ) ) ) ) ) ) ) ) ) ) ) ) ) ) ) ) ) ) ) ) ) ) ) ) ) ) ) ) ) ) ) ) ) L u .     ] f.P.P.P.P.P.P.P.1   ",
"  @ %X*X*X*X*X[.*.    O d / ) ) ) ) ) ) ) ) ) ) ) ) ) ) ) ) ) ) ) ) ) ) ) ) ) ) ) ) ) ) ) ) ) ) ) ) ) / s O     +.S.P.P.P.P.L.o   ",
"    Y.*X*X*XN.e   O a ) ) ) ) ) ) ) ) ) ) ) ) ) ) ) ) ) ) ) ) ) ) ) ) ) ) ) ) ) ) ) ) ) ) ) ) ) ) ) ) ) ) ) p .   w i.P.P.P.j.    ",
"    0.*X%Xe.    4 ! ) ) ) ) ) ) ) ) ) ) ) ) ) ) ) ) ) ) ) ) ) ) ) ) ) ) ) ) ) ) ) ) ) ) ) ) ) ) ) ) ) ) ) ) ) E 4     5.L.P.;.    ",
"=X  Z XX2.  . s ) ) ) ) ) ) ) ) ) ) ) ) ) ) ) ) ) ) ) ) ) ) ) ) ) ) ) ) ) ) ) ) ) ) ) ) ) ) ) ) ) ) ) ) ) ) ) ) ) a .   &.G.M   =X",
"=X    [   O b ) ) ) ) ) ) ) ) ) ) ) ) ) ) ) ) ) ) ) ) ) ) ) ) ) ) ) ) ) ) ) ) ) ) ) ) ) ) ) ) ) ) ) ) ) ) ) ) ) ) ) v O   J     =X",
"=X=X    . K ) ) ) ) ) ) ) ) ) ) ) ) ) ) ) ) ) ) ) ) ) ) ) ) ) ) ) ) ) ) ) ) ) ) ) ) ) ) ) ) ) ) ) ) ) ) ) ) ) ) ) ) ) K O     =X=X",
"=X=X    : W ) ) ) ) ) ) ) ) ) ) ) ) ) ) ) ) ) ) ) ) ) ) ) ) ) ) ) ) ) ) ) ) ) ) ) ) ) ) ) ) ) ) ) ) ) ) ) ) ) ) ) ) ) W :     =X=X",
"=X=X=X    > W ) ) ) ) ) ) ) ) ) ) ) ) ) ) ) ) ) ) ) ) ) ) ) ) ) ) ) ) ) ) ) ) ) ) ) ) ) ) ) ) ) ) ) ) ) ) ) ) ) ) ) W >     =X=X=X",
"=X=X=X=X    * Y ) ) ) ) ) ) ) ) ) ) ) ) ) ) ) ) ) ) ) ) ) ) ) ) ) ) ) ) ) ) ) ) ) ) ) ) ) ) ) ) ) ) ) ) ) ) ) ) ) Y *     =X=X=X=X",
"=X=X=X=X=X      k ) ) ) ) ) ) ) ) ) ) ) ) ) ) ) ) ) ) ) ) ) ) ) ) ) ) ) ) ) ) ) ) ) ) ) ) ) ) ) ) ) ) ) ) ) ) ) l       =X=X=X=X=X",
"=X=X=X=X=X=X      - R ) ) ) ) ) ) ) ) ) ) ) ) ) ) ) ) ) ) ) ) ) ) ) ) ) ) ) ) ) ) ) ) ) ) ) ) ) ) ) ) ) ) ) R ;       =X=X=X=X=X=X",
"=X=X=X=X=X=X=X=X      2 E ) ) ) ) ) ) ) ) ) ) ) ) ) ) ) ) ) ) ) ) ) ) ) ) ) ) ) ) ) ) ) ) ) ) ) ) ) ) ) E 2       =X=X=X=X=X=X=X=X",
"=X=X=X=X=X=X=X=X=X        * T ( ) ) ) ) ) ) ) ) ) ) ) ) ) ) ) ) ) ) ) ) ) ) ) ) ) ) ) ) ) ) ) ) ) ( T *         =X=X=X=X=X=X=X=X=X",
"=X=X=X=X=X=X=X=X=X=X=X          5 Q / ) ) ) ) ) ) ) ) ) ) ) ) ) ) ) ) ) ) ) ) ) ) ) ) ) ) ) / ~ r           =X=X=X=X=X=X=X=X=X=X=X",
"=X=X=X=X=X=X=X=X=X=X=X=X=X=X          $ z ^ ( ) ) ) ) ) ) ) ) ) ) ) ) ) ) ) ) ) ) ) ( ^ z $           =X=X=X=X=X=X=X=X=X=X=X=X=X=X",
"=X=X=X=X=X=X=X=X=X=X=X=X=X=X=X=X=X              + 6 z U / ) ) ) ) ) ) ) / U z 6 +               =X=X=X=X=X=X=X=X=X=X=X=X=X=X=X=X=X",
"=X=X=X=X=X=X=X=X=X=X=X=X=X=X=X=X=X=X=X=X                                                  =X=X=X=X=X=X=X=X=X=X=X=X=X=X=X=X=X=X=X=X",
"=X=X=X=X=X=X=X=X=X=X=X=X=X=X=X=X=X=X=X=X=X=X=X=X=X=X                          =X=X=X=X=X=X=X=X=X=X=X=X=X=X=X=X=X=X=X=X=X=X=X=X=X=X",
"=X=X=X=X=X=X=X=X=X=X=X=X=X=X=X=X=X=X=X=X=X=X=X=X=X=X=X=X=X=X=X=X=X=X=X=X=X=X=X=X=X=X=X=X=X=X=X=X=X=X=X=X=X=X=X=X=X=X=X=X=X=X=X=X=X",
"=X=X=X=X=X=X=X=X=X=X=X=X=X=X=X=X=X=X=X=X=X=X=X=X=X=X=X=X=X=X=X=X=X=X=X=X=X=X=X=X=X=X=X=X=X=X=X=X=X=X=X=X=X=X=X=X=X=X=X=X=X=X=X=X=X",
"=X=X=X=X=X=X=X=X=X=X=X=X=X=X=X=X=X=X=X=X=X=X=X=X=X=X=X=X=X=X=X=X=X=X=X=X=X=X=X=X=X=X=X=X=X=X=X=X=X=X=X=X=X=X=X=X=X=X=X=X=X=X=X=X=X",
"=X=X=X=X=X=X=X=X=X=X=X=X=X=X=X=X=X=X=X=X=X=X=X=X=X=X=X=X=X=X=X=X=X=X=X=X=X=X=X=X=X=X=X=X=X=X=X=X=X=X=X=X=X=X=X=X=X=X=X=X=X=X=X=X=X",
"=X=X=X=X=X=X=X=X=X=X=X=X=X=X=X=X=X=X=X=X=X=X=X=X=X=X=X=X=X=X=X=X=X=X=X=X=X=X=X=X=X=X=X=X=X=X=X=X=X=X=X=X=X=X=X=X=X=X=X=X=X=X=X=X=X",
"=X=X=X=X=X=X=X=X=X=X=X=X=X=X=X=X=X=X=X=X=X=X=X=X=X=X=X=X=X=X=X=X=X=X=X=X=X=X=X=X=X=X=X=X=X=X=X=X=X=X=X=X=X=X=X=X=X=X=X=X=X=X=X=X=X",
"=X=X=X=X=X=X=X=X=X=X=X=X=X=X=X=X=X=X=X=X=X=X=X=X=X=X=X=X=X=X=X=X=X=X=X=X=X=X=X=X=X=X=X=X=X=X=X=X=X=X=X=X=X=X=X=X=X=X=X=X=X=X=X=X=X",
"=X=X=X=X=X=X=X=X=X=X=X=X=X=X=X=X=X=X=X=X=X=X=X=X=X=X=X=X=X=X=X=X=X=X=X=X=X=X=X=X=X=X=X=X=X=X=X=X=X=X=X=X=X=X=X=X=X=X=X=X=X=X=X=X=X",
"=X=X=X=X=X=X=X=X=X=X=X=X=X=X=X=X=X=X=X=X=X=X=X=X=X=X=X=X=X=X=X=X=X=X=X=X=X=X=X=X=X=X=X=X=X=X=X=X=X=X=X=X=X=X=X=X=X=X=X=X=X=X=X=X=X",
"=X=X=X=X=X=X=X=X=X=X=X=X=X=X=X=X=X=X=X=X=X=X=X=X=X=X=X=X=X=X=X=X=X=X=X=X=X=X=X=X=X=X=X=X=X=X=X=X=X=X=X=X=X=X=X=X=X=X=X=X=X=X=X=X=X",
"=X=X=X=X=X=X=X=X=X=X=X=X=X=X=X=X=X=X=X=X=X=X=X=X=X=X=X=X=X=X=X=X=X=X=X=X=X=X=X=X=X=X=X=X=X=X=X=X=X=X=X=X=X=X=X=X=X=X=X=X=X=X=X=X=X",
"=X=X=X=X=X=X=X=X=X=X=X=X=X=X=X=X=X=X=X=X=X=X=X=X=X=X=X=X=X=X=X=X=X=X=X=X=X=X=X=X=X=X=X=X=X=X=X=X=X=X=X=X=X=X=X=X=X=X=X=X=X=X=X=X=X",
"=X=X=X=X=X=X=X=X=X=X=X=X=X=X=X=X=X=X=X=X=X=X=X=X=X=X=X=X=X=X=X=X=X=X=X=X=X=X=X=X=X=X=X=X=X=X=X=X=X=X=X=X=X=X=X=X=X=X=X=X=X=X=X=X=X",
"=X=X=X=X=X=X=X=X=X=X=X=X=X=X=X=X=X=X=X=X=X=X=X=X=X=X=X=X=X=X=X=X=X=X=X=X=X=X=X=X=X=X=X=X=X=X=X=X=X=X=X=X=X=X=X=X=X=X=X=X=X=X=X=X=X"
};
