/* XPM */
static char *result[] = {
/* columns rows colors chars-per-pixel */
"65 65 111 2 ",
"   c #000000",
".  c #090705",
"X  c #060906",
"o  c #0A0906",
"O  c #080708",
"+  c #0A0A0A",
"@  c #0C140D",
"#  c #13100C",
"$  c #100E10",
"%  c #141214",
"&  c #151D13",
"*  c #1D1913",
"=  c #191619",
"-  c #1D1A1D",
";  c #261E17",
":  c #1B2519",
">  c #1F2A1D",
",  c #252018",
"<  c #212D1F",
"1  c #1F1D20",
"2  c #221F22",
"3  c #252226",
"4  c #272528",
"5  c #29252A",
"6  c #2E292E",
"7  c #273625",
"8  c #2D3E2A",
"9  c #2F2B30",
"0  c #312D32",
"q  c #353236",
"w  c #373138",
"e  c #3A353B",
"r  c #3D393E",
"t  c #41372B",
"y  c #453A2E",
"u  c #483E2F",
"i  c #374D34",
"p  c #384F34",
"a  c #3A5236",
"s  c #34573D",
"d  c #435E3F",
"f  c #684F38",
"g  c #433D44",
"h  c #473F48",
"j  c #3A5D43",
"k  c #474149",
"l  c #4B444C",
"z  c #4F4A50",
"x  c #534C54",
"c  c #574E58",
"v  c #584F5A",
"b  c #5B545C",
"n  c #5D585E",
"m  c #55754F",
"M  c #4D7C5B",
"N  c #5E5661",
"B  c #645B64",
"V  c #675D69",
"C  c #695F6B",
"Z  c #666067",
"A  c #666168",
"S  c #6B626D",
"D  c #6E686F",
"F  c #6F6572",
"G  c #6E6870",
"H  c #716773",
"J  c #726A74",
"K  c #766D79",
"L  c #786E79",
"P  c #777179",
"I  c #7B737D",
"U  c #84725A",
"Y  c #9A7756",
"T  c #8D7A61",
"R  c #568D65",
"E  c #59916A",
"W  c #678E61",
"Q  c #69AB7B",
"!  c #7EAC77",
"~  c #A9825F",
"^  c #9C8669",
"/  c #7E7680",
"(  c #7F7881",
")  c #837C85",
"_  c #867F88",
"`  c #6DB080",
"'  c #7BC590",
"]  c #BDA481",
"[  c #C5AA86",
"{  c #D0B48F",
"}  c #E5B281",
"|  c #E7B98A",
" . c #F2BD8A",
".. c #8EC186",
"X. c #81CF97",
"o. c #86D79D",
"O. c #87DA9F",
"+. c #9DD695",
"@. c #A3DE9A",
"#. c #A9E59F",
"$. c #8BDFA2",
"%. c #8DE2A5",
"&. c #93E3A4",
"*. c #99E7A5",
"=. c #A8E6A0",
"-. c #A5ECA5",
";. c #ADEDA5",
":. c #B0EFA6",
">. c #F2C695",
",. c #F2D2A6",
"<. c None",
/* pixels */
"<.<.<.<.<.<.<.<.<.<.<.<.<.<.<.<.<.<.<.<.<.<.<.<.<.<.<.            <.<.<.<.<.<.<.<.<.<.<.<.<.<.<.<.<.<.<.<.<.<.<.<.<.<.<.<.<.<.<.<.",
"<.<.<.<.<.<.<.<.<.<.<.<.<.<.<.<.<.<.<.<.<.<.<.<.<.<.      $ $ O       <.<.<.<.<.<.<.<.<.<.<.<.<.<.<.<.<.<.<.<.<.<.<.<.<.<.<.<.<.<.",
"<.<.<.<.<.<.<.<.<.<.<.<.<.<.<.<.<.<.<.<.<.<.<.<.<.    e ) ) ) ) J 2     <.<.<.<.<.<.<.<.<.<.<.<.<.<.<.<.<.<.<.<.<.<.<.<.<.<.<.<.<.",
"<.<.<.<.<.<.<.<.<.<.<.<.<.<.<.<.<.<.<.<.<.<.<.<.    h ..) ) ) ) _ I 5     <.<.<.<.<.<.<.<.<.<.<.<.<.<.<.<.<.<.<.<.<.<.<.<.<.<.<.<.",
"<.<.<.<.<.<.<.<.<.<.<.<.<.<.<.<.<.<.<.<.<.<.<.<.  $ _ _ _ _ ..) _ / V     <.<.<.<.<.<.<.<.<.<.<.<.<.<.<.<.<.<.<.<.<.<.<.<.<.<.<.<.",
"<.<.<.<.<.<.<.<.<.<.<.<.<.<.<.<.<.<.<.<.<.<.<.<.          O k ) _ ) F =   <.<.<.<.<.<.<.<.<.<.<.<.<.<.<.<.<.<.<.<.<.<.<.<.<.<.<.<.",
"<.<.<.<.<.<.<.<.<.<.<.<.<.<.<.<.<.<.<.<.<.<.<.<.  + # # #     r _ ) F -   <.<.<.<.<.<.<.<.<.<.<.<.<.<.<.<.<.<.<.<.<.<.<.<.<.<.<.<.",
"<.<.<.<.<.<.<.<.<.<.<.<.<.<.<.<.<.<.<.<.<.<.<.<.  U ,.,.,.{ .   ) ) H -   <.<.<.<.<.<.<.<.<.<.<.<.<.<.<.<.<.<.<.<.<.<.<.<.<.<.<.<.",
"<.<.<.<.<.<.<.<.<.<.<.<.<.<.<.<.<.<.<.<.<.<.<.<.  U ,.,.,.,.,   P ) F -   <.<.<.<.<.<.<.<.<.<.<.<.<.<.<.<.<.<.<.<.<.<.<.<.<.<.<.<.",
"<.<.<.<.<.<.<.<.<.<.<.<.<.<.<.<.<.<.<.<.<.<.<.<.  u T T T u   % _ / H $   <.<.<.<.<.<.<.<.<.<.<.<.<.<.<.<.<.<.<.<.<.<.<.<.<.<.<.<.",
"<.<.<.<.<.<.<.<.<.<.<.<.<.<.<.<.<.<.<.<.<.<.<.<.            + S _ L C     <.<.<.<.<.<.<.<.<.<.<.<.<.<.<.<.<.<.<.<.<.<.<.<.<.<.<.<.",
"<.<.<.<.<.<.<.<.<.<.          <.<.<.<.<.<.<.<.<.    3 k k n ) _ / C 0     <.<.<.<.<.<.<.<.<.<.<.<.<.<.<.<.<.<.<.<.<.<.<.<.<.<.<.<.",
"<.<.<.<.<.<.<.<.<.    * t .     <.<.<.<.<.<.<.<.<.    A _ _ _ D O                     <.<.<.<.<.<.<.<.<.<.<.<.<.<.<.<.<.<.<.<.<.<.",
"<.<.<.<.<.<.<.<.<.  # ,.,.|     <.<.<.<.<.<.<.<.<.      = B B     O .     + @ + + X       <.<.<.<.<.<.<.<.<.<.<.<.<.<.<.<.<.<.<.<.",
"<.<.<.<.<.<.<.<.<.  * ,.,.>.~     <.<.<.<.<.<.<.<.<.            0 F F -   W :.:.:.:.+.7       <.<.<.<.<.<.<.<.<.<.<.<.<.<.<.<.<.<.",
"<.<.<.<.<.<.<.<.<.  . ,.,. .}       <.<.<.<.<.<.<.<.    Y f .   B F F k   8 ! ..;.:.:.:.=.@     <.<.<.<.<.<.<.<.<.<.<.<.<.<.<.<.<.",
"<.<.<.<.<.<.<.<.<.    ;  .}         <.<.<.<.<.<.<.      [ ,.*   S F F h           p :.:.:.:.m   <.<.<.<.<.<.<.<.<.<.<.<.<.<.<.<.<.",
"<.<.<.<.<.<.<.<.<.<.          . B     <.<.<.<.<.        ^ ,.+   F F F g   $ 9 1     d :.:.:.:.;.%.<.<.<.<.<.<.<.<.<.<.<.<.<.<.<.<.",
"<.<.<.<.<.<.<.<.<.<.<.      k S F 3     <.<.<.    v V   O ]   + F F F g   6 F F B   @ :.:.:.:.:.;.&.<.<.<.<.<.<.<.<.<.<.<.<.<.<.<.",
"<.<.<.<.<.<.<.<.<.<.<.    w H H F F X   <.<.<.  O V ..9       = F F F g   0 F F F X   :.:.:.:.:.:.j   <.<.<.<.<.<.<.<.<.<.<.<.<.<.",
"<.<.<.<.<.<.<.<.<.<.<.<.  . B H F F B     <.<.    B _ _ N +   2 F F F r   w H F C   + :.:.:.:.:.:.=.    <.<.<.<.<.<.<.<.<.<.<.<.<.",
"<.<.<.<.<.<.<.<.<.<.<.<.    $ C F F F 0         O h _ _ ..N   5 F F F e   w H F g   > :.:.:.:.:.:.:.s     <.<.<.<.<.<.<.<.<.<.<.<.",
"<.<.<.<.<.<.<.<.<.<.<.<.<.  + B F F F F +     0 O 2 ) ) ) h   w F F F e   r H V     +.:.:.:.:.:.:.:.&.X   <.<.<.<.<.<.<.<.<.<.<.<.",
"<.<.<.<.<.<.<.<.<.<.<.<.<.<.<.B V F F F V l V F O O ) ) ) g   r F F F 0   g F e   8 :.:.:.:.:.:.:.:.-.@   <.<.<.<.<.<.<.<.<.<.<.<.",
"<.<.<.<.<.<.<.<.<.<.<.<.<.<.<.B B S F F H S H H $   L _ ) 9   h F F F g   b B   X @.:.:.:.:.:.:.:.:.;.R     <.<.<.<.<.<.<.<.<.<.<.",
"<.<.<.<.<.<.<.<.<.<.<.<.<.<.<.X . N F F H H H S =   A _ ..9   h F F F F b V 6   i :.:.:.:.:.:.:.:.:.:.O.    <.<.<.<.<.<.<.<.<.<.<.",
"<.<.<.<.<.<.<.<.<.<.<.<.<.<.<.    % V H H S H C 2   x .._ 3   c F F F S B x     p :.:.:.:.:.:.:.:.:.:.%.X   <.<.<.<.<.<.<.<.<.<.<.",
"<.<.<.<.<.<.<.<.<.<.<.<.<.<.<.<.    z C H C B 5 O   5 ) _ -   N F F F F B -     8 :.:.:.:.:.:.:.:.:.-.%.X   <.<.<.<.<.<.<.<.<.<.<.",
"<.<.<.<.<.<.<.<.<.<.<.<.<.<.<.<.<.    k x 5 X       + _ _ %   V F F H S l       7 ;.:.:.:.:.:.:.:.:.*.%.X   <.<.<.<.<.<.<.<.<.<.<.",
"<.<.<.<.<.<.<.<.<.<.<.<.<.<.<.<.<.              <.    / _ +   F F F F S =   3   7 :.:.:.:.:.:.:.:.:.%.%.    <.<.<.<.<.<.<.<.<.<.<.",
"<.<.<.<.<.<.<.<.<.<.<.<.<.<.<.<.<.<.<.      <.<.<.    F _ $   S F F H l   % B   : :.:.:.:.:.:.:.:.-.%.R     <.<.<.<.<.<.<.<.<.<.<.",
"<.<.<.<.<.<.<.<.<.<.<.<.<.<.<.<.<.<.<.<.<.<.<.<.<.<.0 ) _ 5   9 F F B +   x S   & :.:.:.:.:.:.:.:.%.%.@   <.<.<.<.<.<.<.<.<.<.<.<.",
"<.<.<.<.<.<.<.<.<.<.<.<.<.<.<.<.<.<.<.<.<.<.<.<.<.<.<._ _ G O   O =     1 _ H   @ :.:.:.:.:.:.:.*.%.Q     <.<.<.<.<.<.<.<.<.<.<.<.",
"<.<.<.<.<.<.<.<.<.<.<.<.<.<.<.<.<.<.<.<.<.<.<.<.<.<.<._ _ _ F 2     O 9 ) _ L   + :.:.:.:.:.:.*.%.o.X   <.<.<.<.<.<.<.<.<.<.<.<.<.",
"<.<.<.<.<.<.<.<.<.<.<.<.<.<.<.<.<.<.<.<.<.<.<.<.<.<.  3 _ _ ) ) / J ) ) _ _ / O X ;.;.;.:.-.&.%.' @     <.<.<.<.<.<.<.<.<.<.<.<.<.",
"<.<.<.<.<.<.<.<.<.<.<.<.<.<.<.<.<.<.<.<.<.<.<.<.<.<.    G _ ) ) _ _ ..) _ _ / $   =.;.-.&.%.%.E       <.<.<.<.<.<.<.<.<.<.<.<.<.<.",
"<.<.<.<.<.<.<.<.<.<.<.<.<.<.<.<.<.<.<.<.<.<.<.<.<.<.    c / / / / / / / / / H 1   ' %.X.` M @       <.<.<.<.<.<.<.<.<.<.<.<.<.<.<.",
"<.<.<.<.<.<.<.<.<.<.<.<.<.<.<.<.<.<.<.<.<.<.<.<.<.<.<.  + $ $ $ $ 5 C V N $ $     @             <.<.<.<.<.<.<.<.<.<.<.<.<.<.<.<.<.",
"<.<.<.<.<.<.<.<.<.<.<.<.<.<.<.<.<.<.<.<.<.<.<.<.<.<.<.      O O O + ) ) N                   <.<.<.<.<.<.<.<.<.<.<.<.<.<.<.<.<.<.<.",
"<.<.<.<.<.<.<.<.<.<.<.<.<.<.<.<.<.<.<.<.<.<.<.<.<.<.    g _ _ _ _ ) ) ) .._ L 2   <.<.<.<.<.<.<.<.<.<.<.<.<.<.<.<.<.<.<.<.<.<.<.<.",
"<.<.<.<.<.<.<.<.<.<.<.<.<.<.<.<.<.<.<.<.<.<.<.<.<.<.  + ) .._ _ _ _ _ _ _ _ H     <.<.<.<.<.<.<.<.<.<.<.<.<.<.<.<.<.<.<.<.<.<.<.<.",
"<.<.<.<.<.<.<.<.<.<.<.<.<.<.<.<.<.<.<.<.<.<.<.<.<.    A ) ) _ _ _ _ _ _ _ / x     <.<.<.<.<.<.<.<.<.<.<.<.<.<.<.<.<.<.<.<.<.<.<.<.",
"<.<.<.<.<.<.<.<.<.<.<.<.<.<.<.<.<.<.<.<.<.<.<.<.    q _ ) ) ) _ _ _ _ _ _ S +     <.<.<.<.<.<.<.<.<.<.<.<.<.<.<.<.<.<.<.<.<.<.<.<.",
"<.<.<.<.<.<.<.<.<.<.<.<.<.<.<.<.<.<.<.<.<.<.<.<.  X I _ ) ) ) ) _ _ ) ) S =   +     <.<.<.<.<.<.<.<.<.<.<.<.<.<.<.<.<.<.<.<.<.<.<.",
"<.<.<.<.<.<.<.<.<.<.<.<.<.<.<.<.<.<.<.<.<.<.<.    B _ _ _ _ _ _ _ _ L b     % ) -   <.<.<.<.<.<.<.<.<.<.    <.<.<.<.<.<.<.<.<.<.<.",
"<.<.<.<.<.<.<.<.<.<.<.<.<.<.<.<.<.<.<.<.<.<.    3 _ _ _ _ _ _ _ ) F 6     2 _ _ G     <.                      <.<.<.<.<.<.<.<.<.<.",
"<.<.<.<.<.<.<.<.<.<.<.<.<.<.<.<.<.<.<.<.<.<.    P _ _ _ _ _ _ I N O   O c _ _ _ _ -                 3 g b O   <.<.<.<.<.<.<.<.<.<.",
"<.<.<.<.<.<.<.<.<.<.<.<.<.<.<.<.<.<.<.<.<.    b _ _ _ _ _ _ H 0 O     S _ _ _ _ _ I 3 r Z ) ..)     S F S +   <.<.<.<.<.<.<.<.<.<.",
"<.<.<.<.<.<.<.<.<.<.<.<.<.<.<.<.<.<.<.<.<.    _ _ _ _ _ I B O         - J _ _ _ _ _ _ _ _ _ _ _ X   C F S =   <.<.<.<.<.<.<.<.<.<.",
"<.<.<.<.<.<.<.<.<.<.<.<.<.<.<.<.<.<.<.<.<.  % _ _ _ _ J e       <.<.    5 L _ _ _ _ _ _ _ _ _ _ 6   v F H 0   <.<.<.<.<.<.<.<.<.<.",
"<.<.<.<.<.<.<.<.<.<.<.<.<.<.<.<.<.<.<.<.<.    ) _ _ P -     <.<.<.<.<.    g I _ _ _ _ _ _ _ _ _ z   e F F l     <.<.<.<.<.<.<.<.<.",
"<.<.<.<.<.<.<.<.<.<.<.<.<.<.<.<.<.<.<.<.<.    P _ _ L =   <.<.<.<.<.<.<.    b ) _ _ _ / K H H c 3   = F F B     <.<.<.<.<.<.<.<.<.",
"<.<.<.<.<.<.<.<.<.<.<.<.<.<.<.<.<.<.<.<.<.    S _ _ L 5   <.<.<.<.<.<.<.<.  X C H H x 5 + .           F F B     <.<.<.<.<.<.<.<.<.",
"<.<.<.<.<.<.<.<.<.<.<.<.<.<.<.<.<.<.<.<.<.    x _ _ ) h     <.<.<.<.<.<.<.      X               <.    x S B +   <.<.<.<.<.<.<.<.<.",
"<.<.<.<.<.<.<.<.<.<.<.<.<.<.<.<.<.<.<.<.<.<.  6 _ _ _ C     <.<.<.<.<.<.<.<.<.        <.<.<.<.<.<.<.    $ 0     <.<.<.<.<.<.<.<.<.",
"<.<.<.<.<.<.<.<.<.<.<.<.<.<.<.<.<.<.<.<.<.<.  X _ _ _ J +   <.<.<.<.<.<.<.<.<.<.<.<.<.<.<.<.<.<.<.<.<.          <.<.<.<.<.<.<.<.<.",
"<.<.<.<.<.<.<.<.<.<.<.<.<.<.<.<.<.<.<.<.<.<.    / _ _ L -   <.<.<.<.<.<.<.<.<.<.<.<.<.<.<.<.<.<.<.<.<.<.<.<.<.<.<.<.<.<.<.<.<.<.<.",
"<.<.<.<.<.<.<.<.<.<.<.<.<.<.<.<.<.<.<.<.<.<.    G _ _ I 5   <.<.<.<.<.<.<.<.<.<.<.<.<.<.<.<.<.<.<.<.<.<.<.<.<.<.<.<.<.<.<.<.<.<.<.",
"<.<.<.<.<.<.<.<.<.<.<.<.<.<.<.<.<.<.<.<.<.<.    O O + O       <.<.<.<.<.<.<.<.<.<.<.<.<.<.<.<.<.<.<.<.<.<.<.<.<.<.<.<.<.<.<.<.<.<.",
"<.<.<.<.<.<.<.<.<.<.<.<.<.<.<.<.<.<.<.<.                      <.<.<.<.<.<.<.<.<.<.<.<.<.<.<.<.<.<.<.<.<.<.<.<.<.<.<.<.<.<.<.<.<.<.",
"<.<.<.<.<.<.<.<.<.<.<.<.<.<.<.<.<.<.<.<.    x S F F F F B +   <.<.<.<.<.<.<.<.<.<.<.<.<.<.<.<.<.<.<.<.<.<.<.<.<.<.<.<.<.<.<.<.<.<.",
"<.<.<.<.<.<.<.<.<.<.<.<.<.<.<.<.<.<.<.    v F H F F F F C =   <.<.<.<.<.<.<.<.<.<.<.<.<.<.<.<.<.<.<.<.<.<.<.<.<.<.<.<.<.<.<.<.<.<.",
"<.<.<.<.<.<.<.<.<.<.<.<.<.<.<.<.<.<.<.    B B C V B V B B 5   <.<.<.<.<.<.<.<.<.<.<.<.<.<.<.<.<.<.<.<.<.<.<.<.<.<.<.<.<.<.<.<.<.<.",
"<.<.<.<.<.<.<.<.<.<.<.<.<.<.<.<.<.<.<.    X O O + O + + +     <.<.<.<.<.<.<.<.<.<.<.<.<.<.<.<.<.<.<.<.<.<.<.<.<.<.<.<.<.<.<.<.<.<.",
"<.<.<.<.<.<.<.<.<.<.<.<.<.<.<.<.<.<.<.<.                      <.<.<.<.<.<.<.<.<.<.<.<.<.<.<.<.<.<.<.<.<.<.<.<.<.<.<.<.<.<.<.<.<.<."
};
