/* XPM */
static char *result[] = {
/* columns rows colors chars-per-pixel */
"65 65 107 2 ",
"   c black",
".  c #010101",
"X  c #000201",
"o  c #010102",
"O  c #020202",
"+  c #020203",
"@  c #040303",
"#  c #010603",
"$  c #040404",
"%  c gray2",
"&  c #050506",
"*  c #030E07",
"=  c #030F07",
"-  c #09090A",
";  c #0E0E0F",
":  c #0F0E0F",
">  c #051A0C",
",  c #061E0E",
"<  c #111112",
"1  c #121213",
"2  c #141415",
"3  c #161618",
"4  c #171718",
"5  c #181719",
"6  c #19181A",
"7  c #1B1B1C",
"8  c #1C1B1D",
"9  c #1D1C1E",
"0  c #221A15",
"q  c #261E18",
"w  c #092914",
"e  c #0A2C15",
"r  c #0A2E16",
"t  c #0B3017",
"y  c #0B3318",
"u  c #0C3519",
"i  c #0C371A",
"p  c #0E3E1D",
"a  c #0E3F1E",
"s  c #1F1E21",
"d  c #212022",
"f  c #212122",
"g  c #212123",
"h  c #222124",
"j  c #232225",
"k  c #242426",
"l  c #262628",
"z  c #29282B",
"x  c #2B2A2D",
"c  c #342921",
"v  c #2D2D30",
"b  c #2F2F32",
"n  c #313134",
"m  c #323135",
"M  c #353538",
"N  c #363539",
"B  c #3C3B3E",
"V  c #0F4420",
"C  c #125227",
"Z  c #156530",
"A  c #166530",
"S  c #166731",
"D  c #176D33",
"F  c #197236",
"G  c #1A7739",
"H  c #5F4B3C",
"J  c #444348",
"K  c #444349",
"L  c #46454A",
"P  c #4F4E54",
"I  c #56555A",
"U  c #59595E",
"Y  c #5D5B62",
"T  c #5F5E63",
"R  c #65636A",
"E  c #66646B",
"W  c #66666C",
"Q  c #69676E",
"!  c #6A6970",
"~  c #6C6B71",
"^  c #6D6B72",
"/  c #6D6B73",
"(  c #75747B",
")  c #1E8A42",
"_  c #1F8E44",
"`  c #1F8F44",
"'  c #209246",
"]  c #209346",
"[  c #209547",
"{  c #209747",
"}  c #219949",
"|  c #229D4A",
" . c #23A04C",
".. c #23A14C",
"X. c #23A24D",
"o. c #AD876D",
"O. c #7B7A81",
"+. c #7F7E85",
"@. c #85848C",
"#. c #87868E",
"$. c #88878F",
"%. c #898890",
"&. c #D1A383",
"*. c #EDBA95",
"=. c #F3BE99",
"-. c #F5C09A",
";. c None",
/* pixels */
";.;.;.;.;.;.;.;.;.;.;.;.;.;.;.;.;.;.;.;.;.;.;.;.;.;.;.;.;.;.;.;.;.;.;.;.;.;.;.;.;.;.;.;.;.;.;.;.;.;.;.;.;.;.;.;.;.;.;.;.;.;.;.;.;.",
";.;.;.;.;.;.;.;.;.;.;.;.;.;.;.;.;.;.;.;.;.;.;.;.;.;.;.;.;.;.;.;.;.;.;.;.;.;.;.;.;.;.;.;.;.;.;.;.;.;.;.;.;.;.;.;.;.;.;.;.;.;.;.;.;.",
";.;.;.;.;.;.;.;.;.;.;.;.;.;.;.;.;.;.;.;.;.;.;.;.;.;.          ;.;.;.;.;.;.;.;.;.;.;.;.;.;.;.;.;.;.;.;.;.;.;.;.;.;.;.;.;.;.;.;.;.;.",
";.;.;.;.;.;.;.;.;.;.;.;.;.;.;.;.;.;.;.;.;.;.;.;.                ;.;.;.;.;.;.;.;.;.;.;.;.;.;.;.;.;.;.;.;.;.;.;.;.;.;.;.;.;.;.;.;.;.",
";.;.      ;.;.;.;.;.;.;.;.;.;.;.;.;.;.;.;.;.;.;.    < / / / o     ;.;.;.;.;.;.;.;.;.;.;.;.;.;.;.;.;.;.;.;.;.;.;.;.;.;.;.;.;.;.;.;.",
";.;.            ;.;.;.;.;.;.;.;.;.;.;.;.;.;.;.    Q / / / / / J     ;.;.;.;.;.;.;.;.;.;.;.;.;.;.;.;.;.;.;.;.;.;.;.;.;.;.;.;.;.;.;.",
";.;.    r                                                                                                 ;.;.;.;.;.;.;.;.;.;.;.;.",
";.;.    X.X.X.)                                                                                                 ;.;.;.;.;.;.;.;.;.",
";.;.    X.X.X.X.X.    -.-.-.-.    X.X.X.X.X.    0 -.-.-.-.-.-.-.    w X.X.X.X.X.X.X.X.X.X.X.X.X.X.X.X.X.A         ;.;.;.;.;.;.;.;.",
";.;.    X.X.X.X.X.    -.-.-.-.    X.X.X.X.X.    o.-.-.-.-.-.-.-.c   w X.X.X.X.X.X.X.X.X.X.X.X.X.X.X.X.X.X.X.X.        ;.;.;.;.;.;.",
";.;.    X.X.X.X._       -.-.H                                       w X.X.X.X.X.X.X.X.X.X.X.    X.X.    ) X.X.X.'       ;.;.;.;.;.",
";.;.    X.>             -.-.                                        w X.X.X.X.X.X.X.X.X.X.X.    X.X.        V X.X.X.    ;.;.;.;.;.",
";.;.              ;.    -.-.    ;.;.;.;.;.;.    / / / / / / / / N   w X.X.X.X.X.X.X.X.X.X.X.X.X.X.X.X.|         X.X.[     ;.;.;.;.",
";.;.        ;.;.;.;.            ;.;.;.;.;.;.    E / / / / / / / b   i X.X.X.X.X.X.X.X.X.X.X.X.X.X.X.X.X.X.X.      X.X.      ;.;.;.",
";.;.;.;.;.;.;.;.;.;.            ;.;.;.;.;.;.;.  . / / / / / / /     Z p } X.X.X.X.X.X.X.X.X.X.X.X.X.X.X.X.X.X.    u X.X.    ;.;.;.",
";.;.;.;.;.;.;.;.;.;.    %.%.    ;.;.;.;.;.;.;.    P / / / / / j               ` X.X.X.X.X.X.X.X.X.X.X.X.X.X.X.X.    X.X.    ;.;.;.",
";.;.;.;.;.;.;.;.;.;.    %.%.    ;.;.;.;.;.;.;.;.                    f B           X X.X.X.X.X.X.X.X.X.X.X.X.X.X.    S X.}     ;.;.",
";.;.;.;.;.;.;.;.;.;.    %.%.    ;.;.;.;.;.;.;.;.;.              %.%.%.%.%.%.@.          C X.X.X.X.X.X.X.X.X.X.X. .    X.X.    ;.;.",
";.;.;.;.;.;.;.;.;.;.    %.%.    ;.;.;.;.;.;.          l %.%.%.%.%.%.%.%.%.%.%.%.%.v         # X.X.X.X.X.X.X.X.X.X.    X.X.    ;.;.",
";.;.;.;.;.;.;.;.;.;.    %.%.    ;.;.;.;.          %.%.%.%.%.%.%.%.%.%.(   O.%.%.%.%.%.%.O       X.X.X.X.X.X.X.X.X.    X.X.    ;.;.",
";.;.;.;.;.;.;.;.;.;.    %.%.    ;.          h %.%.%.%.%.%.%.%.%..               %.%.%.%.%.%.      X.X.X.X.X.X.X.X.    X.X.    ;.;.",
";.;.;.;.;.;.;.;.;.;.    %.%.            $.%.%.%.%.%.%.%.6                           - %.%.%.%.    X.X.X.X.X.X.X.X.    X.X.    ;.;.",
";.;.;.;.;.;.;.;.;.;.    %.%.%.    M %.%.%.%.%.%.+.              T %.%.%.    X.G           %.%.z   * X.X.X.X.X.X.X.X.X.X.X.    ;.;.",
";.;.;.;.;.;.;.;.;.;.    $.%.%.%.%.%.%.%.%.%.            g %.%.%.%.%.%.%.O   p X.X.X.y       %.%.    X.X.X.X.X.X.X.X.X.X.X.    ;.;.",
";.;.;.;.;.;.;.;.;.;.;.    %.%.%.%.%.%..               %.%.%.%.%.%.g           X.X.X.X.X.    %.%.    X.X.X.X.X.X.X.X.X.X.X.    ;.;.",
";.;.;.;.;.;.;.;.;.;.;.      ( %.5           ;.;.;.    %.%.U                   X.X.X.X.X.,   4 %.    { X.X.X.X.X.X.X.X.X.e     ;.;.",
";.;.;.;.;.;.;.;.;.;.;.;.                ;.;.;.;.;.                d %.%.%.    ] X.X.X.X.X.    %.!     X.X.X.X.X.X.X.X.X.    ;.;.;.",
";.;.;.;.;.;.;.;.;.;.;.;.;.;.      ;.;.;.;.;.;.;.;.        & %.%.%.%.%.%.%.(     X.X.X.X.X.    %.%.    X.X.X.X.X.X.X.X.|     ;.;.;.",
";.;.;.;.;.;.;.;.;.;.;.;.;.;.;.;.;.;.;.;.;.;.;.;.;.;.    %.%.%.%.%.%.L           X.X.X.X.X.            X.X.X.X.X.X.X.X.    ;.;.;.;.",
";.;.;.;.;.;.;.;.;.;.;.;.;.;.;.;.;.;.;.;.;.;.;.;.;.;.    %.%.$..                 X.X.X.X.X...          D X.X.X.X.X.X.X     ;.;.;.;.",
";.;.;.;.;.;.;.;.;.;.;.;.;.;.;.;.;.;.;.;.;.;.;.;.;.;.                + #.%.%.2   a X.X.X.X.X.    -.*.    X.X.X.X.X.=     ;.;.;.;.;.",
";.;.;.;.;.;.;.;.;.;.;.;.;.;.;.;.;.;.;.;.;.;.;.;.;.;.;.        ~ %.%.%.%.%.%       X.X.X.X.X.    -.-.    X.X.X.X.      ;.;.;.;.;.;.",
";.;.;.;.;.;.;.;.;.;.;.;.;.;.;.;.;.;.;.;.;.;.;.;.;.;.;.    %.%.%.%.W               F X.X.X.X.    &.-.    X.X.t       ;.;.;.;.;.;.;.",
";.;.;.;.;.;.;.;.;.;.;.;.;.;.;.;.;.;.;.;.;.;.;.;.;.;.;.    I n             1 J                 @ -.-.q             ;.;.;.;.;.;.;.;.",
";.;.;.;.;.;.;.;.;.;.;.;.;.;.;.;.;.;.;.;.;.;.;.;.;.;.;.                                        -.-.=.          ;.;.;.;.;.;.;.;.;.;.",
";.;.;.;.;.;.;.;.;.;.;.;.;.;.;.;.;.;.;.;.;.;.;.;.;.;.;.    ; ; ; ; ; ; ; ; ; ; ;     ;.;.;.              ;.;.;.;.;.;.;.;.;.;.;.;.;.",
";.;.;.;.;.;.;.;.;.;.;.;.;.;.;.;.;.;.;.;.;.;.;.;.;.;.;.    / / / / / / / / / / /     ;.;.;.;.        ;.;.;.;.;.;.;.;.;.;.;.;.;.;.;.",
";.;.;.;.;.;.;.;.;.;.;.;.;.;.;.;.;.;.;.;.;.;.;.;.;.;.;.    / / / / / / / / / / /     ;.;.;.;.;.;.;.;.;.;.;.;.;.;.;.;.;.;.;.;.;.;.;.",
";.;.;.;.;.;.;.;.;.;.;.;.;.;.;.;.;.;.;.;.;.;.;.;.;.;.;.    / / / / / / / / / / /     ;.;.;.;.;.;.;.;.;.;.;.;.;.;.;.;.;.;.;.;.;.;.;.",
";.;.;.;.;.;.;.;.;.;.;.;.;.;.;.;.;.;.;.;.;.;.;.;.;.;.;.  $ / / / / / / / / / / /     ;.;.;.;.;.;.;.;.;.;.;.;.;.;.;.;.;.;.;.;.;.;.;.",
";.;.;.;.;.;.;.;.;.;.;.;.;.;.;.;.;.;.;.;.;.;.;.;.;.;.    ^ / / / / / / / / / / /     ;.;.;.;.;.;.;.;.;.;.;.;.;.;.;.;.;.;.;.;.;.;.;.",
";.;.;.;.;.;.;.;.;.;.;.;.;.;.;.;.;.;.;.;.;.;.;.;.;.;.    / / / / s       : / / /     ;.;.;.;.;.;.;.;.;.;.;.;.;.;.;.;.;.;.;.;.;.;.;.",
";.;.;.;.;.;.;.;.;.;.;.;.;.;.;.;.;.;.;.;.;.;.;.;.;.;.    / / / /         . / / /     ;.;.;.;.;.;.;.;.;.;.;.;.;.;.;.;.;.;.;.;.;.;.;.",
";.;.;.;.;.;.;.;.;.;.;.;.;.;.;.;.;.;.;.;.;.;.;.;.;.;.    / / / 9     ;.  . / / /     ;.;.;.;.;.;.;.;.;.;.;.;.;.;.;.;.;.;.;.;.;.;.;.",
";.;.;.;.;.;.;.;.;.;.;.;.;.;.;.;.;.;.;.;.;.;.;.;.;.;.  O / / /     ;.;.  . / / /     ;.;.;.;.;.;.;.;.;.;.;.;.;.;.;.;.;.;.;.;.;.;.;.",
";.;.;.;.;.;.;.;.;.;.;.;.;.;.;.;.;.;.;.;.;.;.;.;.;.    K / / x     ;.;.  . / / /     ;.;.;.;.;.;.;.;.;.;.;.;.;.;.;.;.;.;.;.;.;.;.;.",
";.;.;.;.;.;.;.;.;.;.;.;.;.;.;.;.;.;.;.;.;.;.;.;.;.    / / / 8     ;.;.    / / /     ;.;.;.;.;.;.;.;.;.;.;.;.;.;.;.;.;.;.;.;.;.;.;.",
";.;.;.;.;.;.;.;.;.;.;.;.;.;.;.;.;.;.;.;.;.;.;.;.;.    / / / 8     ;.;.    / / /     ;.;.;.;.;.;.;.;.;.;.;.;.;.;.;.;.;.;.;.;.;.;.;.",
";.;.;.;.;.;.;.;.;.;.;.;.;.;.;.;.;.;.;.;.;.;.;.;.;.    / / / 8     ;.;.    / / /     ;.;.;.;.;.;.;.;.;.;.;.;.;.;.;.;.;.;.;.;.;.;.;.",
";.;.;.;.;.;.;.;.;.;.;.;.;.;.;.;.;.;.;.;.;.;.;.;.;.    / / / 8     ;.;.    7 / /     ;.;.;.;.;.;.;.;.;.;.;.;.;.;.;.;.;.;.;.;.;.;.;.",
";.;.;.;.;.;.;.;.;.;.;.;.;.;.;.;.;.;.;.;.;.;.;.;.;.    / / / 8     ;.;.;.    / / m     ;.;.;.;.;.;.;.;.;.;.;.;.;.;.;.;.;.;.;.;.;.;.",
";.;.;.;.;.;.;.;.;.;.;.;.;.;.;.;.;.;.;.;.;.;.;.;.;.    / / / 8     ;.;.;.    / / /     ;.;.;.;.;.;.;.;.;.;.;.;.;.;.;.;.;.;.;.;.;.;.",
";.;.;.;.;.;.;.;.;.;.;.;.;.;.;.;.;.;.;.;.;.;.;.;.;.    / / / 8     ;.;.;.    / / /     ;.;.;.;.;.;.;.;.;.;.;.;.;.;.;.;.;.;.;.;.;.;.",
";.;.;.;.;.;.;.;.;.;.;.;.;.;.;.;.;.;.;.;.;.;.;.;.;.    / / / 8     ;.;.;.    g / /     ;.;.;.;.;.;.;.;.;.;.;.;.;.;.;.;.;.;.;.;.;.;.",
";.;.;.;.;.;.;.;.;.;.;.;.;.;.;.;.;.;.;.;.;.;.;.;.;.    / / / 8     ;.;.;.;.    / /     ;.;.;.;.;.;.;.;.;.;.;.;.;.;.;.;.;.;.;.;.;.;.",
";.;.;.;.;.;.;.;.;.;.;.;.;.;.;.;.;.;.;.;.;.;.;.;.;.    / / / 8     ;.;.;.;.    / / 3     ;.;.;.;.;.;.;.;.;.;.;.;.;.;.;.;.;.;.;.;.;.",
";.;.;.;.;.;.;.;.;.;.;.;.;.;.;.;.;.;.;.;.;.;.;.;.;.    / / / 8     ;.;.;.;.    / / R     ;.;.;.;.;.;.;.;.;.;.;.;.;.;.;.;.;.;.;.;.;.",
";.;.;.;.;.;.;.;.;.;.;.;.;.;.;.;.;.;.;.;.;.;.;.;.      / / / 8     ;.;.;.;.    k / /     ;.;.;.;.;.;.;.;.;.;.;.;.;.;.;.;.;.;.;.;.;.",
";.;.;.;.;.;.;.;.;.;.;.;.;.;.;.;.;.;.;.;.;.;.;.        / / / 8     ;.;.        Y / /     ;.;.;.;.;.;.;.;.;.;.;.;.;.;.;.;.;.;.;.;.;.",
";.;.;.;.;.;.;.;.;.;.;.;.;.;.;.;.;.;.;.;.;.;.      / / / / / 8     ;.;.    / / / / /     ;.;.;.;.;.;.;.;.;.;.;.;.;.;.;.;.;.;.;.;.;.",
";.;.;.;.;.;.;.;.;.;.;.;.;.;.;.;.;.;.;.;.;.;.    / / / / / /     ;.;.;.  . / / / / /     ;.;.;.;.;.;.;.;.;.;.;.;.;.;.;.;.;.;.;.;.;.",
";.;.;.;.;.;.;.;.;.;.;.;.;.;.;.;.;.;.;.;.;.;.                    ;.;.;.                  ;.;.;.;.;.;.;.;.;.;.;.;.;.;.;.;.;.;.;.;.;.",
";.;.;.;.;.;.;.;.;.;.;.;.;.;.;.;.;.;.;.;.;.;.;.                ;.;.;.;.                ;.;.;.;.;.;.;.;.;.;.;.;.;.;.;.;.;.;.;.;.;.;.",
";.;.;.;.;.;.;.;.;.;.;.;.;.;.;.;.;.;.;.;.;.;.;.;.;.;.;.;.;.;.;.;.;.;.;.;.;.;.;.;.;.;.;.;.;.;.;.;.;.;.;.;.;.;.;.;.;.;.;.;.;.;.;.;.;.",
";.;.;.;.;.;.;.;.;.;.;.;.;.;.;.;.;.;.;.;.;.;.;.;.;.;.;.;.;.;.;.;.;.;.;.;.;.;.;.;.;.;.;.;.;.;.;.;.;.;.;.;.;.;.;.;.;.;.;.;.;.;.;.;.;."
};
