/* XPM */
static char *result[] = {
/* columns rows colors chars-per-pixel */
"65 65 117 2 ",
"   c #000000",
".  c #090704",
"X  c #050906",
"o  c #0A0A06",
"O  c #070608",
"+  c #090709",
"@  c #060B08",
"#  c #0A0A0A",
"$  c #0B140C",
"%  c #13100C",
"&  c #100E10",
"*  c #0D1810",
"=  c #141214",
"-  c #141C13",
";  c #1D1913",
":  c #19171A",
">  c #1D1A1D",
",  c #261E17",
"<  c #1B2519",
"1  c #1F2A1D",
"2  c #252019",
"3  c #212D1F",
"4  c #1F1B20",
"5  c #211E22",
"6  c #252226",
"7  c #272428",
"8  c #2A252A",
"9  c #2E292E",
"0  c #273625",
"q  c #2D3E2A",
"w  c #2F2B30",
"e  c #322D32",
"r  c #353236",
"t  c #373138",
"y  c #3A353B",
"u  c #3E3A3F",
"i  c #41372B",
"p  c #453A2E",
"a  c #493E30",
"s  c #374D34",
"d  c #384F34",
"f  c #3A5236",
"g  c #35583E",
"h  c #415C3E",
"j  c #684F38",
"k  c #433D44",
"l  c #473F48",
"z  c #3B5F44",
"x  c #474149",
"c  c #4B444C",
"v  c #4E494F",
"b  c #4F4A50",
"n  c #534C54",
"m  c #574E58",
"M  c #584F59",
"N  c #5B545C",
"B  c #56764F",
"V  c #4D7C5B",
"C  c #5E5661",
"Z  c #645B64",
"A  c #665D69",
"S  c #695F6A",
"D  c #666067",
"F  c #676168",
"G  c #6B626D",
"H  c #6E686F",
"J  c #6F6572",
"K  c #6E6870",
"L  c #706773",
"P  c #726A74",
"I  c #766D79",
"U  c #786E79",
"Y  c #777179",
"T  c #7B737D",
"R  c #816F58",
"E  c #84735B",
"W  c #9A7756",
"Q  c #8D7A61",
"!  c #578D67",
"~  c #5A926A",
"^  c #678E61",
"/  c #69AB7C",
"(  c #7EAC77",
")  c #AA835F",
"_  c #9B8569",
"`  c #7E7781",
"'  c #7E7880",
"]  c #837C85",
"[  c #867F88",
"{  c #6DB080",
"}  c #7BC590",
"|  c #BDA380",
" . c #C5AA86",
".. c #D0B48F",
"X. c #E5B281",
"o. c #E7BA8B",
"O. c #F2BD8A",
"+. c #8EC185",
"@. c #81CF97",
"#. c #84D49B",
"$. c #88DA9F",
"%. c #9CD594",
"&. c #9ED895",
"*. c #A3DE9A",
"=. c #A9E69F",
"-. c #8BDFA3",
";. c #8DE2A5",
":. c #93E3A4",
">. c #99E7A5",
",. c #A7E6A0",
"<. c #A9E7A0",
"1. c #A5ECA6",
"2. c #ADEDA5",
"3. c #B0EFA6",
"4. c #F2C695",
"5. c #F2D2A6",
"6. c None",
/* pixels */
"6.6.6.6.6.6.6.6.6.6.6.6.6.6.6.6.6.6.6.6.6.6.6.6.6.6.6.6.6.6.6.6.            6.6.6.6.6.6.6.6.6.6.6.6.6.6.6.6.6.6.6.6.6.6.6.6.6.6.6.",
"6.6.6.6.6.6.6.6.6.6.6.6.6.6.6.6.6.6.6.6.6.6.6.6.6.6.6.6.6.6.      + & #       6.6.6.6.6.6.6.6.6.6.6.6.6.6.6.6.6.6.6.6.6.6.6.6.6.6.",
"6.6.6.6.6.6.6.6.6.6.6.6.6.6.6.6.6.6.6.6.6.6.6.6.6.6.6.6.6.    4 P [ [ [ T y     6.6.6.6.6.6.6.6.6.6.6.6.6.6.6.6.6.6.6.6.6.6.6.6.6.",
"6.6.6.6.6.6.6.6.6.6.6.6.6.6.6.6.6.6.6.6.6.6.6.6.6.6.6.6.    8 ` [ [ [ [ +.] n     6.6.6.6.6.6.6.6.6.6.6.6.6.6.6.6.6.6.6.6.6.6.6.6.",
"6.6.6.6.6.6.6.6.6.6.6.6.6.6.6.6.6.6.6.6.6.6.6.6.6.6.6.6.    A ` [ [ [ [ ] ] ] #   6.6.6.6.6.6.6.6.6.6.6.6.6.6.6.6.6.6.6.6.6.6.6.6.",
"6.6.6.6.6.6.6.6.6.6.6.6.6.6.6.6.6.6.6.6.6.6.6.6.6.6.6.6.  : J ] [ ] x +           6.6.6.6.6.6.6.6.6.6.6.6.6.6.6.6.6.6.6.6.6.6.6.6.",
"6.6.6.6.6.6.6.6.6.6.6.6.6.6.6.6.6.6.6.6.6.6.6.6.6.6.6.6.  , J ] [ y   . % % & #   6.6.6.6.6.6.6.6.6.6.6.6.6.6.6.6.6.6.6.6.6.6.6.6.",
"6.6.6.6.6.6.6.6.6.6.6.6.6.6.6.6.6.6.6.6.6.6.6.6.6.6.6.6.  > J ` ]   o ..5.5.5.E   6.6.6.6.6.6.6.6.6.6.6.6.6.6.6.6.6.6.6.6.6.6.6.6.",
"6.6.6.6.6.6.6.6.6.6.6.6.6.6.6.6.6.6.6.6.6.6.6.6.6.6.6.6.  > J ] Y   2 5.5.5.5.E   6.6.6.6.6.6.6.6.6.6.6.6.6.6.6.6.6.6.6.6.6.6.6.6.",
"6.6.6.6.6.6.6.6.6.6.6.6.6.6.6.6.6.6.6.6.6.6.6.6.6.6.6.6.  = J ` [ =   a Q Q Q p   6.6.6.6.6.6.6.6.6.6.6.6.6.6.6.6.6.6.6.6.6.6.6.6.",
"6.6.6.6.6.6.6.6.6.6.6.6.6.6.6.6.6.6.6.6.6.6.6.6.6.6.6.6.    S I ] C +             6.6.6.6.6.6.6.6.6.6.6.6.6.6.6.6.6.6.6.6.6.6.6.6.",
"6.6.6.6.6.6.6.6.6.6.6.6.6.6.6.6.6.6.6.6.6.6.6.6.6.6.6.6.    e A ] +.] N x x 7     6.6.6.6.6.6.6.6.6.          6.6.6.6.6.6.6.6.6.6.",
"6.6.6.6.6.6.6.6.6.6.6.6.6.6.6.6.6.6.6.6.6.6.                    O J [ [ [ Z     6.6.6.6.6.6.6.6.6.    . r ; .   6.6.6.6.6.6.6.6.6.",
"6.6.6.6.6.6.6.6.6.6.6.6.6.6.6.6.6.6.6.6.      o # $ $ o     O O     Z Z :       6.6.6.6.6.6.6.6.6.  . o.5.5.%   6.6.6.6.6.6.6.6.6.",
"6.6.6.6.6.6.6.6.6.6.6.6.6.6.6.6.6.6.      0 %.3.3.3.2.^   > J J t             6.6.6.6.6.6.6.6.6.    ) 4.5.5.;   6.6.6.6.6.6.6.6.6.",
"6.6.6.6.6.6.6.6.6.6.6.6.6.6.6.6.6.    $ =.3.3.3.2.+.( q   l J J Z   + j W     6.6.6.6.6.6.6.6.      X.O.5.5..   6.6.6.6.6.6.6.6.6.",
"6.6.6.6.6.6.6.6.6.6.6.6.6.6.6.6.6.  B 3.3.3.3.d           l J J G   ; 5. .      6.6.6.6.6.6.6.        X.O.,     6.6.6.6.6.6.6.6.6.",
"6.6.6.6.6.6.6.6.6.6.6.6.6.6.6.6.;.2.3.3.3.3.h     4 w &   k J J J . o 5._   O O   6.6.6.6.6.    Z O           6.6.6.6.6.6.6.6.6.6.",
"6.6.6.6.6.6.6.6.6.6.6.6.6.6.6.:.2.3.3.3.3.3.$   C J J w   k J J J #   | O   A M     6.6.6.    5 J J l       6.6.6.6.6.6.6.6.6.6.6.",
"6.6.6.6.6.6.6.6.6.6.6.6.6.6.  z 3.3.3.3.3.3.  + J J J e   k J J L =       w ] J     6.6.6.  O J J L L t     6.6.6.6.6.6.6.6.6.6.6.",
"6.6.6.6.6.6.6.6.6.6.6.6.6.    =.3.3.3.3.3.3.o   G J J t   u J J J 5   # Z ] +.C     6.6.    Z J J J Z .   6.6.6.6.6.6.6.6.6.6.6.6.",
"6.6.6.6.6.6.6.6.6.6.6.6.    g 3.3.3.3.3.3.3.1   k J J y   y J J J 8   C [ [ ] k           e L L L S =     6.6.6.6.6.6.6.6.6.6.6.6.",
"6.6.6.6.6.6.6.6.6.6.6.6.  X :.2.3.3.3.3.3.3.%.    S J u   t J J J r   b [ [ ] 6   e     + L J L L Z +   6.6.6.6.6.6.6.6.6.6.6.6.6.",
"6.6.6.6.6.6.6.6.6.6.6.6.  $ 1.3.3.3.3.3.3.2.<.s   y J k   e J J J y   k [ [ ] O   J A c A J J L Z Z 6.6.6.6.6.6.6.6.6.6.6.6.6.6.6.",
"6.6.6.6.6.6.6.6.6.6.6.    ~ 2.3.3.3.3.3.3.3.3.*.X   Z M   k L J J k   r +.] `   # L L J L J L S Z Z 6.6.6.6.6.6.6.6.6.6.6.6.6.6.6.",
"6.6.6.6.6.6.6.6.6.6.6.    -.3.3.3.3.3.3.3.3.3.3.s   9 A C G L J L c   w ] ] A   : L L J J J L Z O O 6.6.6.6.6.6.6.6.6.6.6.6.6.6.6.",
"6.6.6.6.6.6.6.6.6.6.6.  X ;.3.3.3.3.3.3.3.3.3.3.f     n Z G J J J m   6 [ [ n   6 S J J J L A =     6.6.6.6.6.6.6.6.6.6.6.6.6.6.6.",
"6.6.6.6.6.6.6.6.6.6.6.  @ ;.1.3.3.3.3.3.3.3.3.3.q     , Z G J J J C   > [ [ e   . 7 Z G J S b     6.6.6.6.6.6.6.6.6.6.6.6.6.6.6.6.",
"6.6.6.6.6.6.6.6.6.6.6.  X ;.>.3.3.3.3.3.3.3.3.3.0       c G J J J S   = [ [ #       O 8 n x     6.6.6.6.6.6.6.6.6.6.6.6.6.6.6.6.6.",
"6.6.6.6.6.6.6.6.6.6.6.    ;.:.3.3.3.3.3.3.3.3.3.6   7   = G J J J J   + [ T     6.              6.6.6.6.6.6.6.6.6.6.6.6.6.6.6.6.6.",
"6.6.6.6.6.6.6.6.6.6.6.    ! ;.1.3.3.3.3.3.3.3.3.<   Z =   c L J J S   & ] H     6.6.6.      6.6.6.6.6.6.6.6.6.6.6.6.6.6.6.6.6.6.6.",
"6.6.6.6.6.6.6.6.6.6.6.6.  $ ;.;.3.3.3.3.3.3.3.3.<   G n   # A L J w   4 +.] w 6.6.6.6.6.6.6.6.6.6.6.6.6.6.6.6.6.6.6.6.6.6.6.6.6.6.",
"6.6.6.6.6.6.6.6.6.6.6.6.    / ;.:.3.3.3.3.3.3.3.&   J ] 4     : #   + K [ [ 6.6.6.6.6.6.6.6.6.6.6.6.6.6.6.6.6.6.6.6.6.6.6.6.6.6.6.",
"6.6.6.6.6.6.6.6.6.6.6.6.6.  X #.;.>.3.2.3.3.3.3.+   ` ] ] e O     4 K [ [ [ 6.6.6.6.6.6.6.6.6.6.6.6.6.6.6.6.6.6.6.6.6.6.6.6.6.6.6.",
"6.6.6.6.6.6.6.6.6.6.6.6.6.    $ #.;.:.1.3.3.3.3.  + Y +.[ [ ] I ` [ [ [ ] 6   6.6.6.6.6.6.6.6.6.6.6.6.6.6.6.6.6.6.6.6.6.6.6.6.6.6.",
"6.6.6.6.6.6.6.6.6.6.6.6.6.6.      ~ ;.;.:.1.1.,.  & T [ [ [ [ [ [ [ [ [ K     6.6.6.6.6.6.6.6.6.6.6.6.6.6.6.6.6.6.6.6.6.6.6.6.6.6.",
"6.6.6.6.6.6.6.6.6.6.6.6.6.6.6.      $ V { @.;.}   4 I ` U Y ` ` ` ` ` ` m     6.6.6.6.6.6.6.6.6.6.6.6.6.6.6.6.6.6.6.6.6.6.6.6.6.6.",
"6.6.6.6.6.6.6.6.6.6.6.6.6.6.6.6.6.            $     & & Z L L 5 + & + & #   6.6.6.6.6.6.6.6.6.6.6.6.6.6.6.6.6.6.6.6.6.6.6.6.6.6.6.",
"6.6.6.6.6.6.6.6.6.6.6.6.6.6.6.6.6.6.6.                  C ] ] #             6.6.6.6.6.6.6.6.6.6.6.6.6.6.6.6.6.6.6.6.6.6.6.6.6.6.6.",
"6.6.6.6.6.6.6.6.6.6.6.6.6.6.6.6.6.6.6.6.6.6.6.6.  5 Y [ [ [ [ [ [ [ ] +.k     6.6.6.6.6.6.6.6.6.6.6.6.6.6.6.6.6.6.6.6.6.6.6.6.6.6.",
"6.6.6.6.6.6.6.6.6.6.6.6.6.6.6.6.6.6.6.6.6.6.6.6.    L ] [ [ [ [ [ [ [ [ ] #   6.6.6.6.6.6.6.6.6.6.6.6.6.6.6.6.6.6.6.6.6.6.6.6.6.6.",
"6.6.6.6.6.6.6.6.6.6.6.6.6.6.6.6.6.6.6.6.6.6.6.6.    n ] [ [ [ [ [ [ [ [ [ F     6.6.6.6.6.6.6.6.6.6.6.6.6.6.6.6.6.6.6.6.6.6.6.6.6.",
"6.6.6.6.6.6.6.6.6.6.6.6.6.6.6.6.6.6.6.6.6.6.6.6.    + G ] [ [ [ [ [ [ [ [ [ t     6.6.6.6.6.6.6.6.6.6.6.6.6.6.6.6.6.6.6.6.6.6.6.6.",
"6.6.6.6.6.6.6.6.6.6.6.6.6.6.6.6.6.6.6.6.6.6.6.    #   : G ] [ [ [ [ [ [ [ [ ` +   6.6.6.6.6.6.6.6.6.6.6.6.6.6.6.6.6.6.6.6.6.6.6.6.",
"6.6.6.6.6.6.6.6.6.6.6.    6.6.6.6.6.6.6.6.6.6.  > [ =     N U [ [ [ [ [ [ [ [ C     6.6.6.6.6.6.6.6.6.6.6.6.6.6.6.6.6.6.6.6.6.6.6.",
"6.6.6.6.6.6.6.6.6.6.                      6.    H [ [ 5     9 J ] [ [ [ [ [ [ [ 6     6.6.6.6.6.6.6.6.6.6.6.6.6.6.6.6.6.6.6.6.6.6.",
"6.6.6.6.6.6.6.6.6.6.  + N k 5     O           > [ [ [ [ n X   O C ` [ [ [ [ [ [ Y O O 6.6.6.6.6.6.6.6.6.6.6.6.6.6.6.6.6.6.6.6.6.6.",
"6.6.6.6.6.6.6.6.6.6.  # S J G     ] [ [ D u 6 T [ [ [ [ [ S       e J ] [ [ [ [ +.l     6.6.6.6.6.6.6.6.6.6.6.6.6.6.6.6.6.6.6.6.6.",
"6.6.6.6.6.6.6.6.6.6.  : G J S   + [ [ [ [ [ [ [ [ [ [ [ P >         + A ` [ [ [ ] ]     6.6.6.6.6.6.6.6.6.6.6.6.6.6.6.6.6.6.6.6.6.",
"6.6.6.6.6.6.6.6.6.6.  e L J M   4 +.[ [ [ [ [ [ [ [ ] ` 8     6.6.      e I [ [ ] +.=   6.6.6.6.6.6.6.6.6.6.6.6.6.6.6.6.6.6.6.6.6.",
"6.6.6.6.6.6.6.6.6.    c J J y   b ] [ [ [ ] ] [ [ [ ` k     6.6.6.6.6.    4 Y [ ] ]     6.6.6.6.6.6.6.6.6.6.6.6.6.6.6.6.6.6.6.6.6.",
"6.6.6.6.6.6.6.6.6.    Z J J :   6 m J J ` ` ] [ [ ] M     6.6.6.6.6.6.6.  : I [ ] `     6.6.6.6.6.6.6.6.6.6.6.6.6.6.6.6.6.6.6.6.6.",
"6.6.6.6.6.6.6.6.6.    Z J J           + # 8 n J J S +   6.6.6.6.6.6.6.6.  6 ` [ ] J O   6.6.6.6.6.6.6.6.6.6.6.6.6.6.6.6.6.6.6.6.6.",
"6.6.6.6.6.6.6.6.6.  + Z J b     6.              O O     6.6.6.6.6.6.6.    l ] [ ] l     6.6.6.6.6.6.6.6.6.6.6.6.6.6.6.6.6.6.6.6.6.",
"6.6.6.6.6.6.6.6.6.  O 9 =     6.6.6.6.6.6.6.        6.6.6.6.6.6.6.6.6.    A [ [ [ w   6.6.6.6.6.6.6.6.6.6.6.6.6.6.6.6.6.6.6.6.6.6.",
"6.6.6.6.6.6.6.6.6.          6.6.6.6.6.6.6.6.6.6.6.6.6.6.6.6.6.6.6.6.6.  + P [ [ [ +   6.6.6.6.6.6.6.6.6.6.6.6.6.6.6.6.6.6.6.6.6.6.",
"6.6.6.6.6.6.6.6.6.6.6.6.6.6.6.6.6.6.6.6.6.6.6.6.6.6.6.6.6.6.6.6.6.6.6.  > U [ [ T     6.6.6.6.6.6.6.6.6.6.6.6.6.6.6.6.6.6.6.6.6.6.",
"6.6.6.6.6.6.6.6.6.6.6.6.6.6.6.6.6.6.6.6.6.6.6.6.6.6.6.6.6.6.6.6.6.6.6.  8 T [ [ L     6.6.6.6.6.6.6.6.6.6.6.6.6.6.6.6.6.6.6.6.6.6.",
"6.6.6.6.6.6.6.6.6.6.6.6.6.6.6.6.6.6.6.6.6.6.6.6.6.6.6.6.6.6.6.6.6.6.      + + + O     6.6.6.6.6.6.6.6.6.6.6.6.6.6.6.6.6.6.6.6.6.6.",
"6.6.6.6.6.6.6.6.6.6.6.6.6.6.6.6.6.6.6.6.6.6.6.6.6.6.6.6.6.6.6.6.6.6.                      6.6.6.6.6.6.6.6.6.6.6.6.6.6.6.6.6.6.6.6.",
"6.6.6.6.6.6.6.6.6.6.6.6.6.6.6.6.6.6.6.6.6.6.6.6.6.6.6.6.6.6.6.6.6.6.  + A J J J J J n     6.6.6.6.6.6.6.6.6.6.6.6.6.6.6.6.6.6.6.6.",
"6.6.6.6.6.6.6.6.6.6.6.6.6.6.6.6.6.6.6.6.6.6.6.6.6.6.6.6.6.6.6.6.6.6.  > S J J J J J J m     6.6.6.6.6.6.6.6.6.6.6.6.6.6.6.6.6.6.6.",
"6.6.6.6.6.6.6.6.6.6.6.6.6.6.6.6.6.6.6.6.6.6.6.6.6.6.6.6.6.6.6.6.6.6.  8 Z A A A A A Z Z     6.6.6.6.6.6.6.6.6.6.6.6.6.6.6.6.6.6.6.",
"6.6.6.6.6.6.6.6.6.6.6.6.6.6.6.6.6.6.6.6.6.6.6.6.6.6.6.6.6.6.6.6.6.6.    + + . o + + + +     6.6.6.6.6.6.6.6.6.6.6.6.6.6.6.6.6.6.6.",
"6.6.6.6.6.6.6.6.6.6.6.6.6.6.6.6.6.6.6.6.6.6.6.6.6.6.6.6.6.6.6.6.6.6.                      6.6.6.6.6.6.6.6.6.6.6.6.6.6.6.6.6.6.6.6."
};
