/* XPM */
static char *result[] = {
/* columns rows colors chars-per-pixel */
"65 65 147 2 ",
"   c #272D3C",
".  c #2D3037",
"X  c #2D313B",
"o  c #323232",
"O  c #3F3833",
"+  c #3D3D3D",
"@  c #393632",
"#  c #443B33",
"$  c #4A3E35",
"%  c #45423F",
"&  c #5C4737",
"*  c #594437",
"=  c #6C4D34",
"-  c #654B38",
";  c #714F33",
":  c #72543E",
">  c #091F51",
",  c #1A2848",
"<  c #0A2156",
"1  c #0B235B",
"2  c #1C2C5B",
"3  c #262F47",
"4  c #252E4A",
"5  c #293041",
"6  c #202E54",
"7  c #0E2661",
"8  c #102866",
"9  c #132A6B",
"0  c #192D6D",
"q  c #1B306E",
"w  c #33396A",
"e  c #2F3E72",
"r  c #253D7D",
"t  c #463D65",
"y  c #384271",
"u  c #354375",
"i  c #414040",
"p  c #4E4641",
"a  c #5D4C42",
"s  c #5D4C48",
"d  c #414752",
"f  c #464F5F",
"g  c #4E4E56",
"h  c #545257",
"j  c #614E42",
"k  c #675140",
"l  c #6D5442",
"z  c #785943",
"x  c #795554",
"c  c #4E5A6F",
"v  c #525B6C",
"b  c #444475",
"n  c #515C72",
"m  c #546277",
"M  c gray42",
"N  c #91422F",
"B  c #984D3A",
"V  c #855B3C",
"C  c #AA6A33",
"Z  c #D57E35",
"A  c #825D43",
"S  c #A45E4A",
"D  c #916444",
"F  c #A26940",
"G  c #BF7844",
"H  c #BA7647",
"J  c #AA7D64",
"K  c #C07744",
"L  c #C47A44",
"P  c #E07D7C",
"I  c #D1B11F",
"U  c #D78037",
"Y  c #DA823A",
"T  c #FECE00",
"R  c #9B8F42",
"E  c #B4837A",
"W  c #D78347",
"Q  c #DF8541",
"!  c #DC8548",
"~  c #DE884E",
"^  c #DF8C53",
"/  c #D8965E",
"(  c #E18742",
")  c #E48946",
"_  c #E08648",
"`  c #E68A49",
"'  c #E69257",
"]  c #E69358",
"[  c #C78E71",
"{  c #C1927F",
"}  c #2D4484",
"|  c #2B498D",
" . c #314D8A",
".. c #395392",
"X. c #3E5897",
"o. c #3F5A98",
"O. c #5B6689",
"+. c #5F7194",
"@. c #63779C",
"#. c #4964A3",
"$. c #5D7AB7",
"%. c #687EA7",
"&. c #667BA3",
"*. c #6F87B5",
"=. c #7A8EB9",
"-. c #6B89C6",
";. c #7793CA",
":. c #7995CD",
">. c #7991C2",
",. c #7C9AD5",
"<. c #7F9EDA",
"1. c #7493D0",
"2. c #888888",
"3. c #979798",
"4. c #B79691",
"5. c #AD99A0",
"6. c #A59AAC",
"7. c #A0A0A0",
"8. c #F48B8B",
"9. c #F09D9D",
"0. c #D0A087",
"q. c #DEB293",
"w. c #E0B79D",
"e. c #E1B89E",
"r. c #EDBD9A",
"t. c #D6BFB5",
"y. c #D1BDBA",
"u. c #E6BFA3",
"i. c #DCC1B4",
"p. c #ECC7AC",
"a. c #ECC8AD",
"s. c #EFC2A3",
"d. c #909FCC",
"f. c #809ED7",
"g. c #82A2DE",
"h. c #B4B4C7",
"j. c #A3B2D0",
"k. c #83A3E0",
"l. c #89A7E0",
"z. c #8EABE0",
"x. c #BBC5D9",
"c. c #DADADA",
"v. c #DBD8D5",
"b. c #E9DED6",
"n. c #E8E1DC",
"m. c #E6E6E6",
"M. c None",
/* pixels */
"M.M.M.M.M.M.M.M.M.M.M.M.M.M.M.M.M.M.M.M.M.M.M.M.M.M.M.M.M.M.M.M.M.M.M.M.M.M.M.M.M.M.M.M.M.M.M.M.M.M.M.M.M.M.M.M.M.M.M.M.M.M.M.M.M.",
"M.M.M.M.M.M.M.M.M.M.M.M.M.M.M.M.M.M.M.M.M.M.M.M.M.M.M.M.M.M.M.M.M.M.M.M.M.M.M.M.M.M.M.M.M.M.M.M.M.M.M.M.M.M.M.M.M.M.M.M.M.M.M.M.M.",
"M.M.M.M.M.M.M.M.M.M.M.M.M.M.M.M.M.M.M.M.M.M.M.M.M.M.M.M.M.M.M.M.M.M.M.M.M.M.M.M.M.M.M.M.M.M.M.M.M.M.M.M.M.M.M.M.M.M.M.M.M.M.M.M.M.",
"M.M.M.M.M.M.M.M.M.M.M.M.M.M.M.M.M.M.M.M.M.M.M.M.M.M.M.M.M.M.M.M.M.M.M.M.M.M.M.M.M.M.M.M.M.M.M.M.M.M.M.M.M.M.M.M.M.M.M.M.M.M.M.M.M.",
"M.M.M.M.M.M.M.M.M.M.M.M.M.M.M.M.M.M.M.M.M.M.M.M.M.M.M.M.M.M.M.M.M.M.M.M.M.M.M.M.M.M.M.M.M.M.M.M.M.M.M.M.M.M.M.M.M.M.M.M.M.M.M.M.M.",
"M.M.M.M.M.M.M.M.M.M.M.M.|  .m | M.M.M.M.M.M.M.M.M.M.M.M.M.M.M.M.M.M.M.M.M.M.M.M.M.M.M.M.M.M.M.M.M.M.M.M.M.M.M.M.M.M.M.M.M.M.M.M.M.",
"M.M.M.M.M.M.M.M.M.M.M.| | R T | | M.M.M.M.M.M.M.M.M.M.M.M.M.M.M.M.M.M.M.M.M.M.M.M.M.M.M.M.M.M.M.M.M.M.M.M.M.M.M.M.M.M.M.M.M.M.M.M.",
"M.M.M.M.M.M.M.M.M.| | | |  .I | | M.M.M.M.M.M.M.M.M.M.M.M.M.M.M.M.M.M.M.M.M.M.M.M.M.M.M.M.M.M.M.M.M.M.M.M.M.M.M.M.M.M.M.M.M.M.M.M.",
"M.M.M.M.M.M.M.M.M.| | | | | | } } M.M.M.M.M.M.M.M.M.M.M.M.M.M.M.M.M.M.M.M.M.M.M.M.M.M.M.M.M.M.M.M.M.M.M.M.M.M.M.M.M.M.M.M.M.M.M.M.",
"M.M.M.M.M.M.M.M.M.M.b t t e u y w M.M.M.M.M.M.M.M.M.M.M.M.M.M.M.M.M.M.M.M.M.M.M.M.M.M.M.M.M.M.M.M.M.M.M.M.M.M.M.M.M.M.M.M.M.M.M.M.",
"M.M.M.M.M.M.M.M.M.M.N B q.p.p.p.0.M.M.M.M.M.M.M.M.M.M.M.M.M.M.M.M.M.M.M.M.M.M.M.M.M.M.M.M.M.M.M.M.M.M.M.M.M.M.M.M.M.M.M.M.M.M.M.M.",
"M.M.M.M.M.M.M.M.M.M.e.S a.p.p.p.p.M.M.M.M.M.M.M.M.M.M.M.M.M.M.M.M.M.M.M.M.M.M.M.M.M.M.M.M.M.M.M.M.M.M.M.M.M.M.M.M.M.M.M.M.M.M.M.M.",
"M.M.M.M.M.M.M.M.M.M.p.p.a.a.a.a.a.M.M.M.M.M.M.M.M.M.M.M.M.M.M.M.M.M.M.M.M.M.M.M.M.M.M.M.M.M.M.M.M.M.M.M.M.M.M.M.M.M.M.M.M.M.M.M.M.",
"M.M.M.M.M.M.M.M.M.M.M.M.a.a.a.a.M.M.M.M.M.M.M.M.M.M.M.M.M.M.M.M.M.M.M.M.M.M.M.M.M.M.M.M.M.M.M.M.M.M.M.M.M.M.M.M.M.M.M.M.M.M.M.M.M.",
"M.M.M.M.M.M.M.M.M.M.M.M.u.s.a.p.M.M.M.M.M.M.M.M.M.M.M.M.M.M.M.M.M.M.M.M.M.M.M.M.M.M.M.M.M.M.M.M.M.M.M.M.M.M.M.M.M.M.M.M.M.M.M.M.M.",
"M.M.M.M.M.M.M.M.M.M.M.M.q.w.u.M.M.M.M.M.M.M.M.M.M.M.M.M.M.M.M.M.M.M.M.M.M.M.M.M.M.M.M.M.M.M.M.M.M.M.M.M.M.M.M.M.M.M.M.M.M.M.M.M.M.",
"M.M.M.M.M.M.M.M.M.M.M.M.u q.q.0 M.M.M.M.M.M.M.M.M.M.M.M.M.M.M.M.M.M.M.M.M.M.M.M.M.M.M.M.M.M.M.M.M.M.M.M.M.M.M.M.M.M.M.M.M.M.M.M.M.",
"M.M.M.M.M.M.M.M.M.k.k.<.9 q O.9 k.k.k.M.M.M.M.M.M.M.M.M.M.M.M.M.M.M.M.M.M.M.M.M.M.M.M.M.M.M.M.M.M.M.M.M.M.M.M.M.M.M.M.M.M.M.M.M.M.",
"M.M.M.M.M.M.M.M.k.k.k.k.1...k.-.k.k.k.k.k.M.M.M.M.M.M.M.M.M.M.M.M.M.M.M.M.M.M.M.M.M.M.M.M.M.M.M.M.M.M.M.M.M.M.M.M.M.M.M.M.M.M.M.M.",
"M.M.M.M.M.M.M.k.k.k.k.k.k.k.k.k.k.k.k.k.k.M.M.M.M.M.M.M.M.M.M.M.M.M.M.M.M.M.M.M.M.M.M.M.M.M.M.M.M.M.M.M.M.M.M.M.M.M.M.M.M.M.M.M.M.",
"M.M.M.M.M.M.M.k.k.k.k.k.k.k.k.k.k.k.,.k.k.k.M.M.M.M.M.M.M.M.M.M.M.M.M.M.M.M.M.M.M.M.M.M.M.M.M.M.M.M.M.M.M.M.M.M.M.M.M.M.M.M.M.M.M.",
"M.M.M.M.M.M.g.k.k.k.k.<.k.k.k.k.k.g.:.<.k.k.k.M.M.M.M.M.M.M.M.M.M.M.M.M.M.M.M.M.M.M.M.M.M.M.M.M.M.M.M.M.M.M.M.M.M.M.M.M.M.M.M.M.M.",
"M.M.M.M.M.M.k.k.k.<.,.0 r k.k.k.k.k.M.;.f.k.y.M.M.M.M.M.M.M.M.M.M.M.M.M.M.M.M.M.M.M.M.M.M.M.M.M.M.M.M.M.M.M.M.M.M.M.M.M.M.M.M.M.M.",
"M.M.M.M.M.M.k.k.k.<.<.#.$.k.k.k.k.k.M.M.:.t.a.p.M.M.M.M.M.M.M.M.M.M.M.M.M.M.M.M.M.M.M.M.M.M.M.M.M.M.M.M.M.M.M.M.M.M.M.M.M.M.M.M.M.",
"M.M.M.M.M.M.i.h.g.M.f.k.k.k.k.k.k.k.k.M.M.a.a.p.p.M.M.M.M.M.M.M.M.M.M.M.M.M.M.M.M.M.M.M.M.M.M.M.M.M.M.M.M.M.M.M.M.M.M.M.M.M.M.M.M.",
"M.M.M.M.M.a.a.a.M.M.f.k.k.k.k.k.k.k.g.M.M.M.p.p.a.p.M.M.M.M.M.M.M.M.M.M.M.M.M.M.M.M.M.M.M.M.M.M.M.M.M.M.M.M.M.M.M.M.M.M.M.M.M.M.M.",
"M.M.M.M.M.p.p.p.M.M.:.k.k.k.k.k.k.k.k.M.M.M.M.a.p.p.a.M.M.M.M.M.M.M.M.M.M.M.M.M.M.M.M.M.M.M.M.M.M.M.M.M.M.M.M.M.M.M.M.M.M.M.M.M.M.",
"M.M.M.M.M.p.p.a.M.M.:.k.k.k.k.k.k.k.k.M.M.M.M.M.M.p.p.a.a.M.M.M.M.M.M.M.M.M.M.M.M.M.M.M.M.M.M.M.M.M.M.M.M.M.M.M.M.M.M.M.M.M.M.M.M.",
"M.M.M.M.M.a.p.M.M.M.:.k.k.k.k.k.k.k.k.M.M.M.M.M.M.M.M.a.a.v.c.c.M.M.M.M.M.M.M.M.M.M.M.M.M.M.M.M.M.M.M.M.M.M.M.M.M.M.M.M.M.M.M.M.M.",
"M.M.M.M.M.a.a.M.M.M.:.k.k.k.k.k.k.k.k.M.M.M.M.M.M.M.M.M.M.c.c.m.2.= ; C M.M.M.M.M.M.M.M.M.M.M.M.M.M.M.M.M.M.M.M.M.M.M.M.M.M.M.M.M.",
"M.M.M.M.M.a.p.M.M.M.:.k.k.k.k.k.k.g.k.M.M.M.M.M.M.M.M.M.o M m.m./ U Z = M.M.M.M.M.M.M.M.M.M.M.M.M.M.M.M.M.M.M.M.M.M.M.M.M.M.M.M.M.",
"M.M.M.M.M.a.p.M.M.M.f m +.@.%.&.@.O.c M.M.M.M.M.M.M.M.M.M.M.M.M.Z U Z M.o M.M.M.M.M.M.M.M.M.M.M.M.M.M.M.M.) M.M.M.M.M.M.M.M.M.M.M.",
"M.M.M.M.M.n.b.M.M.M.2 2 4 4 3 3 4 , , M.M.M.M.M.M.M.M.M.M.M.M.Z Z Z M.M.M.M.M.M.M.M.M.M.M.M.M.M.M.M.M.M.M.U M.M.M.M.M.M.M.M.M.M.M.",
"M.M.M.M.M.m.m.M.M.M.8 9 9 9 9 9 9 1 > M.M.M.M.M.M.M.M.M.M.M.Z Z Z Z M.M.M.o M.M.M.M.M.M.M.M.M.M.M.M.M.M.` Z Y M.M.M.M.M.M.M.M.M.M.",
"M.M.M.M.M.m.m.M.M.M.9 9 9 9 9 9 8 1 > M.M.M.M.M.M.M.M.M.M.M.Z Z Z M.M.M.M.M.M.M.M.M.M.M.M.M.M.M.M.M.i ! ` ) ` ` M.M.M.M.M.M.M.M.M.",
"M.M.M.M.M.m.m.M.M.M.9 9 9 9 9 9 7 1 > M.M.M.M.M.M.M.M.M.M.Z Z M.M.M.M.M.M.M.o M.M.M.M.M.M.M.M.M.M.i A ` ` ` ` K z M.M.M.M.M.M.M.M.",
"M.M.M.M.M.M.m.M.M.M.M.9 9 9 9 9 7 1 > M.M.M.M.M.M.M.M.M.M.M.M.M.M.M.M.M.M.M.M.o M.M.M.M.M.M.M.M.i i W ` ` ` ` L k i a M.M.M.M.M.M.",
"M.M.M.M.M.M.M.M.M.M.M.9 9 9 9 9 7 1 > M.M.M.M.M.M.M.M.M.M.M.M.M.M.M.M.M.M.M.M.M.M.M.M.M.M.M.M.p i i ` ` ` ` ` ` a i i i M.M.M.M.M.",
"M.M.M.M.M.M.M.M.M.M.M.9 9 9 9 9 7 1 > M.M.M.M.M.M.M.M.M.M.M.M.M.M.M.M.M.M.M.M.M.@ i M.M.M.M.5 p i p ` ` ` ` ` H x s p j M.M.M.M.M.",
"M.M.M.M.M.M.M.M.M.M.M.9 9 9 9 9 8 1 > M.M.M.M.M.M.M.M.M.M.M.M.M.M.M.M.M.M.M.M.M.i o i M.M.i + % i H ` ` ` ` ` E 9.8.P M.M.M.M.M.M.",
"M.M.M.M.M.M.M.M.M.M.M.9 9 9 9 9 9 1 < M.M.M.M.M.M.M.M.M.M.M.M.M.M.M.M.M.M.M.M.M.M.M.f.>.+ + : A D ` ` ` ` ` ` k l j l M.M.M.M.M.M.",
"M.M.M.M.M.M.M.M.M.M.M.M.9 9 9 9 9 1 > M.M.M.M.M.M.M.M.M.M.M.M.M.M.M.M.M.M.M.M.M.=.v g.k.n o W ` ` ` ` ` ` ` ` M.M.M.M.M.M.M.M.M.M.",
"M.M.M.M.M.M.M.M.M.M.M.M.9 9 9 9 9 1 > M.M.M.M.M.M.M.M.M.M.M.M.M.M.M.M.M.& # o o :.k.g.k.g.g ` ` ` ` ` ` ` ` M.M.M.M.M.M.M.M.M.M.M.",
"M.M.M.M.M.M.M.M.M.M.M.M.9 9 9 9 9 1 > M.M.M.M.M.M.M.M.M.M.M.M.M.M.* o o o o o o g.k.,.-.<.g.4.^ ` ` ` ` ` ` M.M.M.M.M.M.M.M.M.M.M.",
"M.M.M.M.M.M.M.M.M.M.M.M.9 9 9 9 9 1 > M.M.M.M.M.M.M.M.M.M.M.& o o o o o o o o o k.<.9 9 ..k.k.k.d.6.~ ] ] ` M.M.M.M.M.M.M.M.M.M.M.",
"M.M.M.M.M.M.M.M.M.M.M.M.M.9 9 9 9 < > M.M.M.M.M.M.M.M.M.& o o o o o o o o o o o g.k.X.9 -.k.k.k.k.k.d 7.3.o M.M.M.M.M.M.M.M.M.M.M.",
"M.M.M.M.M.M.M.M.M.M.M.M.M.9 9 9 9 1 > M.M.M.M.M.M.M.M.o # o o o o o o o o o o o ,.k.<.X.g.k.k.k.k.k.[ r.s.! M.M.M.M.M.M.M.M.M.M.M.",
"M.M.M.M.M.M.M.M.M.M.M.M.M.9 9 9 9 7 M.M.M.M.M.M.M.M.o o ! H O @ o o o o o o o o *.k.l.3.j.k.k.k.k.5.` ` ` M.M.M.M.M.M.M.M.M.M.M.M.",
"M.M.M.M.M.M.M.M.M.M.M.M.1 8 0 9 9 9 M.M.M.M.M.M.M.M.o M.` ` ` ` ` ~ K C V - $ @ h g.z.2.x.k.k.6.` ` ` ` ` M.M.M.M.M.M.M.M.M.M.M.M.",
"M.M.M.M.M.M.M.M.M.M.M.1 1 7 9 9 9 9 M.M.M.M.M.M.M.o M.M.` ` ` ` ` ` ` ` ` ` ` ` ) ) 4.o J ` ` ` ` ` ` ` M.M.M.M.M.M.M.M.M.M.M.M.M.",
"M.M.M.M.M.M.M.M.M.M.1 1 1 1 9 9 9 9 M.M.M.M.M.M.o o M.M.) ` ` ` ` ` ` ) ` ` ` ` ` ` ` o K ` ` ` ` ` ` ` M.M.M.M.M.M.M.M.M.M.M.M.M.",
"M.M.M.M.M.M.M.M.M.M.1 1 1 > 9 9 9 9 M.M.M.M.M.M.M.M.M.M.` ` ` ` ` ` ) Z Z Z M.M.M.M.M.M.M.M.` ` ` ` ` M.M.M.M.M.M.M.M.M.M.M.M.M.M.",
"M.M.M.M.M.M.M.M.M.1 1 1 > > 9 9 9 9 M.M.M.M.M.M.M.M.M.` ` ` ` ` ` ( Z Z Z Z M.M.M.M.M.M.M.M.` ` ` ` Y M.M.M.M.M.M.M.M.M.M.M.M.M.M.",
"M.M.M.M.M.M.M.M.. 1 1 > > M.M.9 9 9 M.M.M.M.M.M.M.M.` ` ` ` ` ) Y Z Z Z Z M.M.M.M.M.M.M.M.M.` ` ` ( Z M.M.M.M.M.M.M.M.M.M.M.M.M.M.",
"M.M.M.M.M.M.M.o o   1 > M.M.M.9 9 9 M.M.M.M.M.M.M.M.` ` ` M.M.U Z Z Z M.M.M.M.M.M.M.M.M.M.M.M.` ` Z Z M.M.M.M.M.M.M.M.M.M.M.M.M.M.",
"M.M.M.M.M.M.M.o o o   M.M.M.M.9 9 9 9 M.M.M.M.M.M.M.` ` M.M.Z Z Z M.M.M.M.M.M.M.M.M.M.M.M.M.M.` ` Z Z M.M.M.M.M.M.M.M.M.M.M.M.M.M.",
"M.M.M.M.M.M.M.M.o o o M.M.M.M.9 9 9 9 M.M.M.M.M.M.M.` ` M.M.Z Z Z M.M.M.M.M.M.M.M.M.M.M.M.M.M.` ` U Z M.M.M.M.M.M.M.M.M.M.M.M.M.M.",
"M.M.M.M.M.M.M.M.M.o o M.M.M.M.M.5 X . M.M.M.M.M.M.M.` M.M.M.M.Z Z M.M.M.M.M.M.M.M.M.M.M.M.M.M.` ` ) Z M.M.M.M.M.M.M.M.M.M.M.M.M.M.",
"M.M.M.M.M.M.M.M.M.o o o M.M.M.M.o o o o o o M.M.M.M.` M.M.M.M.M.Z Z M.M.M.M.M.M.M.M.M.M.M.M.M.M.` ` ( Z M.M.M.M.M.M.M.M.M.M.M.M.M.",
"M.M.M.M.M.M.M.M.M.M.o o M.M.M.M.o o o o o o o M.M.M.` ` M.M.M.M.M.Z Z Z M.M.M.M.M.M.M.M.M.M.M.M.` ` ` Z Z M.M.M.M.M.M.M.M.M.M.M.M.",
"M.M.M.M.M.M.M.M.M.M.M.M.M.M.M.M.M.M.M.M.M.M.M.M.M.M.M.M.M.M.M.M.M.M.M.M.M.M.M.M.M.M.M.M.M.M.M.M.M.M.M.M.M.M.M.M.M.M.M.M.M.M.M.M.M.",
"M.M.M.M.M.M.M.M.M.M.M.M.M.M.M.M.M.M.M.M.M.M.M.M.M.M.M.M.M.M.M.M.M.M.M.M.M.M.M.M.M.M.M.M.M.M.M.M.M.M.M.M.M.M.M.M.M.M.M.M.M.M.M.M.M.",
"M.M.M.M.M.M.M.M.M.M.M.M.M.M.M.M.M.M.M.M.M.M.M.M.M.M.M.M.M.M.M.M.M.M.M.M.M.M.M.M.M.M.M.M.M.M.M.M.M.M.M.M.M.M.M.M.M.M.M.M.M.M.M.M.M.",
"M.M.M.M.M.M.M.M.M.M.M.M.M.M.M.M.M.M.M.M.M.M.M.M.M.M.M.M.M.M.M.M.M.M.M.M.M.M.M.M.M.M.M.M.M.M.M.M.M.M.M.M.M.M.M.M.M.M.M.M.M.M.M.M.M.",
"M.M.M.M.M.M.M.M.M.M.M.M.M.M.M.M.M.M.M.M.M.M.M.M.M.M.M.M.M.M.M.M.M.M.M.M.M.M.M.M.M.M.M.M.M.M.M.M.M.M.M.M.M.M.M.M.M.M.M.M.M.M.M.M.M."
};
