/* XPM */
static char *result[] = {
/* columns rows colors chars-per-pixel */
"65 65 146 2 ",
"   c #2E323D",
".  c #353535",
"X  c #383635",
"o  c #31343B",
"O  c #3C3C3C",
"+  c #3C3936",
"@  c #443C37",
"#  c #453D38",
"$  c #4C4038",
"%  c #594639",
"&  c #5E493A",
"*  c #674C38",
"=  c #715136",
"-  c #1D2A49",
";  c #112452",
":  c #132759",
">  c #13285B",
",  c #242F49",
"<  c #2B3242",
"1  c #2A324B",
"2  c #303440",
"3  c #21305C",
"4  c #253155",
"5  c #162B63",
"6  c #182C67",
"7  c #1A2E6B",
"8  c #1C316E",
"9  c #21346E",
"0  c #393E6B",
"q  c #293F7C",
"w  c #423C64",
"e  c #354172",
"r  c #3D4674",
"t  c #434242",
"y  c #4D4642",
"u  c #504843",
"i  c #5D4E44",
"p  c #5E4D4A",
"a  c #454C59",
"s  c #525259",
"d  c #614F44",
"f  c #615044",
"g  c #6C5443",
"h  c #705645",
"j  c #795B45",
"k  c #7B5656",
"l  c #4D4166",
"z  c #485060",
"x  c #555E6F",
"c  c #464775",
"v  c #505B70",
"b  c #54627B",
"n  c #576371",
"m  c #676767",
"M  c #8E4233",
"N  c #964D3C",
"B  c #845B3E",
"V  c #A86936",
"C  c #D47D37",
"Z  c #D47D38",
"A  c #805D45",
"S  c #A25E4C",
"D  c #906446",
"F  c #A16842",
"G  c #AE7147",
"H  c #BB7545",
"J  c #BF7A4D",
"K  c #A57963",
"L  c #C27846",
"P  c #E07C7B",
"I  c #D1B01F",
"U  c #D9803D",
"Y  c #FFCE00",
"T  c #948A48",
"R  c #B1827A",
"E  c #DE8443",
"W  c #D5824A",
"Q  c #DB8449",
"!  c #DC884F",
"~  c #DE8B55",
"^  c #E18646",
"/  c #E0874A",
"(  c #E5894A",
")  c #E59258",
"_  c #D89664",
"`  c #C38E76",
"'  c #C2927F",
"]  c #2F4A8C",
"[  c #2F4481",
"{  c #334987",
"}  c #334C89",
"|  c #334784",
" . c #39518F",
".. c #405996",
"X. c #455E9B",
"o. c #5B6B89",
"O. c #616689",
"+. c #607194",
"@. c #64779C",
"#. c #4D67A4",
"$. c #5B76B3",
"%. c #677CA4",
"&. c #6C83AF",
"*. c #6682BF",
"=. c #788BB5",
"-. c #6B88C5",
";. c #7693CB",
":. c #7895CB",
">. c #7991C2",
",. c #7997D0",
"<. c #7C9BD5",
"1. c #7F9EDA",
"2. c #818181",
"3. c #929293",
"4. c #9D9D9D",
"5. c #B59592",
"6. c #A899A6",
"7. c #A19AB0",
"8. c #F48B8B",
"9. c #EF9C9C",
"0. c #D2A38C",
"q. c #DDB192",
"w. c #DFB59B",
"e. c #E3BA9F",
"r. c #ECB996",
"t. c #CEBCB9",
"y. c #D6BEB4",
"u. c #E6BFA2",
"i. c #DBC0B3",
"p. c #EBC6AB",
"a. c #EAC8AE",
"s. c #EFC3A5",
"d. c #8E9ECC",
"f. c #809FDB",
"g. c #82A2DF",
"h. c #88A6DF",
"j. c #A9B1CB",
"k. c #82A3E0",
"l. c #8DAAE0",
"z. c #BCC5D7",
"x. c #D9D9D9",
"c. c #D9D6D3",
"v. c #E7DCD5",
"b. c #E7E0DB",
"n. c #E6E6E6",
"m. c None",
/* pixels */
"m.m.m.m.m.m.m.m.m.m.m.m.m.m.m.m.m.m.m.m.m.m.m.m.m.m.m.m.m.m.m.m.m.m.m.m.m.m.m.m.m.m.m.m.m.m.m.m.m.m.m.m.m.m.m.m.m.m.m.m.m.m.m.m.m.",
"m.m.m.m.m.m.m.m.m.m.m.m.m.m.m.m.m.m.m.m.m.m.m.m.m.m.m.m.m.m.m.m.m.m.m.m.m.m.m.m.m.m.m.m.m.m.m.m.m.m.m.m.m.m.m.m.m.m.m.m.m.m.m.m.m.",
"m.m.m.m.m.m.m.m.m.m.m.m.m.m.m.m.m.m.m.m.m.m.m.m.m.m.m.m.m.m.m.m.m.m.m.m.m.m.m.m.m.m.m.m.m.m.m.m.m.m.m.m.m.m.m.m.m.m.m.m.m.m.m.m.m.",
"m.m.m.m.m.m.m.m.m.m.m.m.m.m.m.m.m.m.m.m.m.m.m.m.m.m.m.m.m.m.m.m.m.m.m.m.m.m.m.m.m.m.m.m.m.m.m.m.m.m.m.m.m.m.m.m.m.m.m.m.m.m.m.m.m.",
"m.m.m.m.m.m.m.m.m.m.m.m.m.m.m.m.m.m.m.m.m.m.m.m.m.m.m.m.m.m.m.m.m.m.m.m.m.m.m.m.m.m.m.m.m.m.m.m.m.m.m.m.m.m.m.m.m.m.m.m.m.m.m.m.m.",
"m.m.m.m.m.m.m.m.m.m.m.m.m.m.m.m.m.m.m.m.m.m.m.m.m.m.m.m.m.m.m.m.m.m.m.m.m.m.m.m.m.m.m.m.m.m.m.m.m.] n } ] m.m.m.m.m.m.m.m.m.m.m.m.",
"m.m.m.m.m.m.m.m.m.m.m.m.m.m.m.m.m.m.m.m.m.m.m.m.m.m.m.m.m.m.m.m.m.m.m.m.m.m.m.m.m.m.m.m.m.m.m.m.] } Y T ] ] m.m.m.m.m.m.m.m.m.m.m.",
"m.m.m.m.m.m.m.m.m.m.m.m.m.m.m.m.m.m.m.m.m.m.m.m.m.m.m.m.m.m.m.m.m.m.m.m.m.m.m.m.m.m.m.m.m.m.m.m.] ] I } ] ] ] ] m.m.m.m.m.m.m.m.m.",
"m.m.m.m.m.m.m.m.m.m.m.m.m.m.m.m.m.m.m.m.m.m.m.m.m.m.m.m.m.m.m.m.m.m.m.m.m.m.m.m.m.m.m.m.m.m.m.m.[ { ] ] ] ] ] } m.m.m.m.m.m.m.m.m.",
"m.m.m.m.m.m.m.m.m.m.m.m.m.m.m.m.m.m.m.m.m.m.m.m.m.m.m.m.m.m.m.m.m.m.m.m.m.m.m.m.m.m.m.m.m.m.m.m.0 r e 0 w l c m.m.m.m.m.m.m.m.m.m.",
"m.m.m.m.m.m.m.m.m.m.m.m.m.m.m.m.m.m.m.m.m.m.m.m.m.m.m.m.m.m.m.m.m.m.m.m.m.m.m.m.m.m.m.m.m.m.m.m.0.p.p.p.w.N M m.m.m.m.m.m.m.m.m.m.",
"m.m.m.m.m.m.m.m.m.m.m.m.m.m.m.m.m.m.m.m.m.m.m.m.m.m.m.m.m.m.m.m.m.m.m.m.m.m.m.m.m.m.m.m.m.m.m.m.p.p.p.p.p.S e.m.m.m.m.m.m.m.m.m.m.",
"m.m.m.m.m.m.m.m.m.m.m.m.m.m.m.m.m.m.m.m.m.m.m.m.m.m.m.m.m.m.m.m.m.m.m.m.m.m.m.m.m.m.m.m.m.m.m.m.p.p.p.p.p.p.p.m.m.m.m.m.m.m.m.m.m.",
"m.m.m.m.m.m.m.m.m.m.m.m.m.m.m.m.m.m.m.m.m.m.m.m.m.m.m.m.m.m.m.m.m.m.m.m.m.m.m.m.m.m.m.m.m.m.m.m.m.p.p.p.p.m.m.m.m.m.m.m.m.m.m.m.m.",
"m.m.m.m.m.m.m.m.m.m.m.m.m.m.m.m.m.m.m.m.m.m.m.m.m.m.m.m.m.m.m.m.m.m.m.m.m.m.m.m.m.m.m.m.m.m.m.m.m.p.p.p.e.m.m.m.m.m.m.m.m.m.m.m.m.",
"m.m.m.m.m.m.m.m.m.m.m.m.m.m.m.m.m.m.m.m.m.m.m.m.m.m.m.m.m.m.m.m.m.m.m.m.m.m.m.m.m.m.m.m.m.m.m.m.m.m.u.q.q.m.m.m.m.m.m.m.m.m.m.m.m.",
"m.m.m.m.m.m.m.m.m.m.m.m.m.m.m.m.m.m.m.m.m.m.m.m.m.m.m.m.m.m.m.m.m.m.m.m.m.m.m.m.m.m.m.m.m.m.m.m.m.9 q.q.r m.m.m.m.m.m.m.m.m.m.m.m.",
"m.m.m.m.m.m.m.m.m.m.m.m.m.m.m.m.m.m.m.m.m.m.m.m.m.m.m.m.m.m.m.m.m.m.m.m.m.m.m.m.m.m.m.m.m.m.g.g.k.8 O.9 7 <.k.k.m.m.m.m.m.m.m.m.m.",
"m.m.m.m.m.m.m.m.m.m.m.m.m.m.m.m.m.m.m.m.m.m.m.m.m.m.m.m.m.m.m.m.m.m.m.m.m.m.m.m.m.m.m.m.k.g.g.g.g.-.g. .;.k.g.g.k.m.m.m.m.m.m.m.m.",
"m.m.m.m.m.m.m.m.m.m.m.m.m.m.m.m.m.m.m.m.m.m.m.m.m.m.m.m.m.m.m.m.m.m.m.m.m.m.m.m.m.m.m.m.g.g.g.g.g.g.g.g.g.g.k.k.g.k.m.m.m.m.m.m.m.",
"m.m.m.m.m.m.m.m.m.m.m.m.m.m.m.m.m.m.m.m.m.m.m.m.m.m.m.m.m.m.m.m.m.m.m.m.m.m.m.m.m.m.m.k.g.g.<.g.k.g.g.g.g.g.k.k.g.g.m.m.m.m.m.m.m.",
"m.m.m.m.m.m.m.m.m.m.m.m.m.m.m.m.m.m.m.m.m.m.m.m.m.m.m.m.m.m.m.m.m.m.m.m.m.m.m.m.m.m.g.g.g.<.:.g.g.g.k.g.k.1.k.k.g.g.g.m.m.m.m.m.m.",
"m.m.m.m.m.m.m.m.m.m.m.m.m.m.m.m.m.m.m.m.m.m.m.m.m.m.m.m.m.m.m.m.m.m.m.m.m.m.m.m.m.m.t.g.1.;.m.g.g.g.g.g.q 8 <.1.g.g.g.m.m.m.m.m.m.",
"m.m.m.m.m.m.m.m.m.m.m.m.m.m.m.m.m.m.m.m.m.m.m.m.m.m.m.m.m.m.m.m.m.m.m.m.m.m.m.m.m.p.p.i.;.m.k.g.g.g.g.g.$.#.1.<.g.g.g.m.m.m.m.m.m.",
"m.m.m.m.m.m.m.m.m.m.m.m.m.m.m.m.m.m.m.m.m.m.m.m.m.m.m.m.m.m.m.m.m.m.m.m.m.m.m.m.p.p.p.p.m.m.g.g.g.g.g.g.g.g.1.m.g.j.i.m.m.m.m.m.m.",
"m.m.m.m.m.m.m.m.m.m.m.m.m.m.m.m.m.m.m.m.m.m.m.m.m.m.m.m.m.m.m.m.m.m.m.m.m.m.m.p.p.p.p.m.m.m.g.g.g.g.g.g.g.g.<.m.m.p.p.p.m.m.m.m.m.",
"m.m.m.m.m.m.m.m.m.m.m.m.m.m.m.m.m.m.m.m.m.m.m.m.m.m.m.m.m.m.m.m.m.m.m.m.m.m.p.p.p.p.m.m.m.m.k.g.g.g.g.g.g.g.,.m.m.p.p.p.m.m.m.m.m.",
"m.m.m.m.m.m.m.m.m.m.m.m.m.m.m.m.m.m.m.m.m.m.m.m.m.m.m.m.m.m.m.m.m.m.m.m.p.p.p.p.m.m.m.m.m.m.k.g.g.g.g.g.g.g.:.m.m.p.p.p.m.m.m.m.m.",
"m.m.m.m.m.m.m.m.m.m.m.m.m.m.m.m.m.m.m.m.m.m.m.m.m.m.m.m.m.m.m.m.m.c.x.c.a.p.m.m.m.m.m.m.m.m.g.g.g.g.g.g.g.g.:.m.m.m.p.p.m.m.m.m.m.",
"m.m.m.m.m.m.m.m.m.m.m.m.m.m.m.m.m.m.m.m.m.m.m.m.m.m.m.m.m.V = * 3.n.x.x.m.m.m.m.m.m.m.m.m.m.g.g.g.k.g.g.g.g.:.m.m.m.p.p.m.m.m.m.m.",
"m.m.m.m.m.m.m.m.m.m.m.m.m.m.m.m.m.m.m.m.m.m.m.m.m.m.m.m.m.= Z Z _ n.n.m . m.m.m.m.m.m.m.m.m.g.g.k.k.g.g.k.k.:.m.m.m.p.p.m.m.m.m.m.",
"m.m.m.m.m.m.m.m.m.m.m.^ m.m.m.m.m.m.m.m.m.m.m.m.m.m.m.m.. m.Z Z Z m.m.m.m.m.m.m.m.m.m.m.m.m.x o.@.%.%.@.+.b z m.m.m.p.p.m.m.m.m.m.",
"m.m.m.m.m.m.m.m.m.m.m.Z m.m.m.m.m.m.m.m.m.m.m.m.m.m.m.m.m.m.m.Z Z Z m.m.m.m.m.m.m.m.m.m.m.m.- , 1 1 1 1 1 4 3 m.m.m.v.b.m.m.m.m.m.",
"m.m.m.m.m.m.m.m.m.m.E Z ( m.m.m.m.m.m.m.m.m.m.m.m.m.m.. m.m.m.Z Z Z Z m.m.m.m.m.m.m.m.m.m.m.; > 7 7 7 7 7 7 7 m.m.m.n.n.m.m.m.m.m.",
"m.m.m.m.m.m.m.m.m.( ( ( ( Q t m.m.m.m.m.m.m.m.m.m.m.. m.m.m.m.m.Z Z Z m.m.m.m.m.m.m.m.m.m.m.; > 6 7 7 7 7 7 7 m.m.m.n.n.m.m.m.m.m.",
"m.m.m.m.m.m.m.m.j H ( ( ( ( j t m.m.m.m.m.m.m.m.m.m.. m.m.m.m.m.m.Z Z Z m.m.m.m.m.m.m.m.m.m.; > 5 7 7 7 7 7 7 m.m.m.n.n.m.m.m.m.m.",
"m.m.m.m.m.m.i t h L ( ( ( ( W t t m.m.m.m.m.m.m.m.. m.m.m.m.m.m.m.m.m.m.m.m.m.m.m.m.m.m.m.m.; : > 7 7 7 7 7 m.m.m.m.n.m.m.m.m.m.m.",
"m.m.m.m.m.t t t d ( ( ( ( ( Q t t t m.m.m.m.m.m.m.m.m.m.m.m.m.m.m.m.m.m.m.m.m.m.m.m.m.m.m.m.; > 5 7 7 7 7 7 m.m.m.m.m.m.m.m.m.m.m.",
"m.m.m.m.m.p u p k L ( ( ( ( ( y t t t m.m.m.m.O O m.m.m.m.m.m.m.m.m.m.m.m.m.m.m.m.m.m.m.m.m.; > 6 7 7 7 7 7 m.m.m.m.m.m.m.m.m.m.m.",
"m.m.m.m.m.m.P 8.9.R ( ( ( ( ( G y t t t m.m.t . t m.m.m.m.m.m.m.m.m.m.m.m.m.m.m.m.m.m.m.m.m.; > 5 7 7 7 7 7 m.m.m.m.m.m.m.m.m.m.m.",
"m.m.m.m.m.m.g f h g ( ( ( ( ( ( D j g O O >.f.m.m.m.m.m.m.m.m.m.m.m.m.m.m.m.m.m.m.m.m.m.m.m.; > 7 7 7 7 7 m.m.m.m.m.m.m.m.m.m.m.m.",
"m.m.m.m.m.m.m.m.m.m.( ( ( ( ( ( ( ( Q X b g.f.x =.m.m.m.m.m.m.m.m.m.m.m.m.m.m.m.m.m.m.m.m.m.; > 7 7 7 7 7 m.m.m.m.m.m.m.m.m.m.m.m.",
"m.m.m.m.m.m.m.m.m.m.m.( ( ( ( ( ( ( ( s 1.g.g.g.>.. . # * m.m.m.m.m.m.m.m.m.m.m.m.m.m.m.m.m.; > 7 7 7 7 7 m.m.m.m.m.m.m.m.m.m.m.m.",
"m.m.m.m.m.m.m.m.m.m.m.( ( ( ( ( ( ~ 5.k.1.-.<.g.f.. . . o . . % m.m.m.m.m.m.m.m.m.m.m.m.m.m.; > 7 7 7 7 8 m.m.m.m.m.m.m.m.m.m.m.m.",
"m.m.m.m.m.m.m.m.m.m.m.Q ) ) ! 6.d.g.g.g. .7 7 1.g.. . . . . . . . . & m.m.m.m.m.m.m.m.m.m.m.; : 7 7 7 7 8 m.m.m.m.m.m.m.m.m.m.m.m.",
"m.m.m.m.m.m.m.m.m.m.m.. 4.4.a g.k.g.g.g.*.7 X.g.<.. . . . . . . . . . X % m.m.m.m.m.m.m.m.m.; : 7 7 7 7 m.m.m.m.m.m.m.m.m.m.m.m.m.",
"m.m.m.m.m.m.m.m.m.m.m.Q s.r.` g.g.g.g.g.g...1.g.<.. . . . . . . . . . . # . m.m.m.m.m.m.m.m.; > 7 7 7 7 m.m.m.m.m.m.m.m.m.m.m.m.m.",
"m.m.m.m.m.m.m.m.m.m.m.m.( ( ( 6.g.g.g.k.j.3.g.g.&.. . . . . . . . X @ H Q . . m.m.m.m.m.m.m.m.5 7 7 7 7 m.m.m.m.m.m.m.m.m.m.m.m.m.",
"m.m.m.m.m.m.m.m.m.m.m.m.( ( ( ( ( 7.g.k.z.2.h.g.s @ $ * B F L Q ( ( ( ( ( m.. m.m.m.m.m.m.m.m.7 7 7 7 6 > m.m.m.m.m.m.m.m.m.m.m.m.",
"m.m.m.m.m.m.m.m.m.m.m.m.m.( ( ( ( ( ( ( K X ' ~ ( ( ( ( ( ( ( ( ( ( ( ( ( m.m.. m.m.m.m.m.m.m.7 7 7 7 > > > m.m.m.m.m.m.m.m.m.m.m.",
"m.m.m.m.m.m.m.m.m.m.m.m.m.( ( ( ( ( ( ( H . ( ( ( ( ( ( ( ( ( ( ( ( ( ( ( m.m.. . m.m.m.m.m.m.7 7 7 7 > > > > m.m.m.m.m.m.m.m.m.m.",
"m.m.m.m.m.m.m.m.m.m.m.m.m.m.( ( ( ( ( m.m.m.m.m.m.m.m.Z C C ^ ( ( ( ( ( ( m.m.m.m.m.m.m.m.m.m.7 7 7 7 ; > > > m.m.m.m.m.m.m.m.m.m.",
"m.m.m.m.m.m.m.m.m.m.m.m.m.m.U ( ( ( ( m.m.m.m.m.m.m.m.Z Z Z Z ^ ( ( ( ( ( ( m.m.m.m.m.m.m.m.m.7 7 7 7 ; ; > > > m.m.m.m.m.m.m.m.m.",
"m.m.m.m.m.m.m.m.m.m.m.m.m.m.C E ( ( ( m.m.m.m.m.m.m.m.m.Z Z Z Z U ( ( ( ( ( ( m.m.m.m.m.m.m.m.7 7 7 m.m.; ; > > o m.m.m.m.m.m.m.m.",
"m.m.m.m.m.m.m.m.m.m.m.m.m.m.C Z ( ( m.m.m.m.m.m.m.m.m.m.m.m.Z Z Z m.m.m.( ( ( m.m.m.m.m.m.m.m.7 7 7 m.m.m.; >   . . m.m.m.m.m.m.m.",
"m.m.m.m.m.m.m.m.m.m.m.m.m.m.Z Z ( ( m.m.m.m.m.m.m.m.m.m.m.m.m.Z Z Z Z m.m.( ( m.m.m.m.m.m.m.7 7 7 7 m.m.m.m.< . . . m.m.m.m.m.m.m.",
"m.m.m.m.m.m.m.m.m.m.m.m.m.m.Z U ( ( m.m.m.m.m.m.m.m.m.m.m.m.m.m.Z Z Z m.m.( ( m.m.m.m.m.m.m.7 7 7 7 m.m.m.m.. . . m.m.m.m.m.m.m.m.",
"m.m.m.m.m.m.m.m.m.m.m.m.m.m.C ( ( ( m.m.m.m.m.m.m.m.m.m.m.m.m.m.Z Z m.m.m.m.( m.m.m.m.m.m.m.o 2 < m.m.m.m.m.. . m.m.m.m.m.m.m.m.m.",
"m.m.m.m.m.m.m.m.m.m.m.m.m.C E ( ( m.m.m.m.m.m.m.m.m.m.m.m.m.m.Z C m.m.m.m.m.( m.m.m.m.. . . . . . m.m.m.m.. . . m.m.m.m.m.m.m.m.m.",
"m.m.m.m.m.m.m.m.m.m.m.m.C U ( ( ( m.m.m.m.m.m.m.m.m.m.m.m.C Z Z m.m.m.m.m.( ( m.m.m.. . . . . . . m.m.m.m.. m.m.m.m.m.m.m.m.m.m.m.",
"m.m.m.m.m.m.m.m.m.m.m.m.m.m.m.m.m.m.m.m.m.m.m.m.m.m.m.m.m.m.m.m.m.m.m.m.m.m.m.m.m.m.m.m.m.m.m.m.m.m.m.m.m.m.m.m.m.m.m.m.m.m.m.m.m.",
"m.m.m.m.m.m.m.m.m.m.m.m.m.m.m.m.m.m.m.m.m.m.m.m.m.m.m.m.m.m.m.m.m.m.m.m.m.m.m.m.m.m.m.m.m.m.m.m.m.m.m.m.m.m.m.m.m.m.m.m.m.m.m.m.m.",
"m.m.m.m.m.m.m.m.m.m.m.m.m.m.m.m.m.m.m.m.m.m.m.m.m.m.m.m.m.m.m.m.m.m.m.m.m.m.m.m.m.m.m.m.m.m.m.m.m.m.m.m.m.m.m.m.m.m.m.m.m.m.m.m.m.",
"m.m.m.m.m.m.m.m.m.m.m.m.m.m.m.m.m.m.m.m.m.m.m.m.m.m.m.m.m.m.m.m.m.m.m.m.m.m.m.m.m.m.m.m.m.m.m.m.m.m.m.m.m.m.m.m.m.m.m.m.m.m.m.m.m.",
"m.m.m.m.m.m.m.m.m.m.m.m.m.m.m.m.m.m.m.m.m.m.m.m.m.m.m.m.m.m.m.m.m.m.m.m.m.m.m.m.m.m.m.m.m.m.m.m.m.m.m.m.m.m.m.m.m.m.m.m.m.m.m.m.m."
};
