/* XPM */
static char *result[] = {
/* columns rows colors chars-per-pixel */
"65 65 78 1 ",
"  c #02141D",
". c #031721",
"X c #031A25",
"o c #081D27",
"O c #041E29",
"+ c #0A1E2A",
"@ c #04212D",
"# c #0A222D",
"$ c #062632",
"% c #0C2632",
"& c #052836",
"* c #0D2935",
"= c #072A39",
"- c #0D2C3A",
"; c #112732",
": c #112A36",
"> c #122D3A",
", c #0F313E",
"< c #14313D",
"1 c #18313E",
"2 c #143442",
"3 c #193643",
"4 c #163846",
"5 c #1A3946",
"6 c #163B4A",
"7 c #1B3D4B",
"8 c #1D3F50",
"9 c #203E4C",
"0 c #14414E",
"q c #1D404E",
"w c #1E4453",
"e c #1F4857",
"r c #1F4959",
"t c #22424E",
"y c #214554",
"u c #234957",
"i c #2A4B57",
"p c #224758",
"a c #244D5C",
"s c #294E5B",
"d c #314F5A",
"f c #26505F",
"g c #2A505E",
"h c #31505B",
"j c #234F60",
"k c #255161",
"l c #2B5362",
"z c #2E5966",
"x c #295768",
"c c #275868",
"v c #2D5B6B",
"b c #315563",
"n c #325967",
"m c #395A66",
"M c #325D6C",
"N c #395E6C",
"B c #2F5F71",
"V c #325F70",
"C c #34606F",
"Z c #3A606E",
"A c #2F6173",
"S c #346374",
"D c #396574",
"F c #396877",
"G c #356679",
"H c #386678",
"J c #36697B",
"K c #3B6A7B",
"L c #436773",
"P c #416977",
"I c #436C7A",
"U c #46707E",
"Y c #3B6E80",
"T c #457382",
"R c #46798A",
"E c #4D7D8D",
"W c #558494",
"Q c #598897",
/* pixels */
"@-222211<,33422wwe76864---<-@X@#$:&**#$*%%&*&%%*--2*->*>22>*:552@",
"azblMbMZSDDDFFJKRYJGAABvKvnk6@quMzzDCDSHJGDSSHSSSGGVVVDHDDDDNMli-",
"MMzaauiuisuuaSCwrarrraakkjva2@kvaararffjvxSSvVVVBBxxbnbbbmLNNmi7=",
"VMsasiaisuaauaaqekjrjajajjjw4@vWuaarjjjjjjaajaaaaaaassidsissikb7&",
"DDjssiuauaauasu7raaakakaajja4OkTfrrjjjjjjjaafaffaaaasiiiiiijlkN7&",
"DHsssasuiauiuaazkakfckraaaj82Ojvraffjjjjkkksffajjaassissidkjjjv2$",
"kPksaauuaaaaasakfkkkafkrjacw2Ojvaafrjjjjkkkfaajraaassssskijjjll2&",
"wHsssaaaauusaaak4kkfkajraacy2@jvuakrjjjjfkfkkjjrjaassssdiljj2;8%&",
"wDsaauaaaaasaakntafffaajaffu4@rvaaaurffffffrkjjjjjpddjidji8iaki2&",
"kDaigsaaaaaaaaaafggtfkjkjaan7@rvearrrffrfffjrjrjpikjjdjj>;8ijjp2&",
"SMuaiaaaaaafajsagggu7aaafaafq@wvaraausaarfrjraaaikjddg5dkkijjjN2$",
"VTaaaaskasaakzbggsss:aafaffl7@evaaausasajrjraaaaikdjbddjidlijjN*&",
"xkaaaasskaakkassssssstssffiC5@fvauasiuafrraeaaaakkmdggglkljjjjl2&",
"fkafsaasfakfksssssssstsiifgt4@lQaasiisiaaaiuuasiii3jsdgbbljjjj82=",
"vl85545N7557y99591553>5557tt4@aI51<1<qt<<<qqqq9>>399952222286>;*&",
"ww2>;%***:::1> ;::1<:::<:<<<<@<<:;;#:::##*:>>;#o+;:;12++;+@2*%%@@",
"=--&$$@@O@@@@@XO@@@@@=@@@&--&@@$$$,=,=&$@-$-$@@@%@@@O$$-$$O@@OO@$",
"FHSCCMCMVMvlaasuw3@3vCHvDFDSMbfSFDDMzzlDCCvfe2X<vYHxMJVVGSJJJHGJD",
"vCDSvDFDnVDHDDDDMt@fDsflCgghfglCCfsaaaMZZPuarv$0VEYYBBKHAHMSSDUKT",
"lllllkaaaaasafggg5Oabhggdggssssafssaaaqaaiaarq-qBjjrlDxkjassssffl",
"bbnkckkkjagsdkbgz<@figddhsgssssaisaisasiuuuara#wvjxjj3aajssssshbb",
"lbbbkkkasssdldskl<@gihdhdsdsfkaaaasfsauiauarr2@pljpaj7kksssissllb",
"sbbgfkkalisssllkf<Xsdddddbsfffsagiisii1aaeuer<OaTjpapwkassiidsbkl",
"lklgskkaslsdllkkf,Xidddddhssffkssgisssaauauur-OeYjaaiaaisisssflll",
"skkiffsasshgllkkf>#iLhhhgfffsksdigsisafiuusup>XwYzaryaakusiuaaskk",
"kslsakkssgsglkkkf>Xgmhhhglfkklbsisssasaaaiuur1OwYxuaaaaaussaasaaa",
"jaajaaassssgskkks>@iIhggkMzkllbhggisaasiuuueut@wJlasaaaaaaaaaraaj",
"rjpjaassdssgfklls>XsIgqqkvnzbbg55Ugfsiaaauaua3XwSaaaarrraupaaaraa",
"jjaaaassssfskklhi1@uCgkfkzlllllsffUsussuauupu1Oazarraraareuaaaraj",
"ajaaaaaaaasaakllh1@sCcgflllblllkffasstssaaau7&Oraarrraerraraaaaja",
">>>>->>122>221111;@ua5<<>>1>>>>;:::11;>>1>><-*O672227541<>17742*>",
"; o+o..O+++oo.oX@@@#@@@o++o+    #     @@#####XOOO@OOO@*%**;%%XO#%",
"*:,:@X#-*-$**>>#:>:::-->>>>*##@%# #><<---*2,<,<,22=,-$$%%&#@#%--%",
"zgff4X<eiggczzhigcggzzzMvvznzkklq@0uzAAAABCvvzvvvAAvvxxxxvyklzzvV",
"cffr5@<gfafigsssgsasgffkkfkbaaam< qCWTFclllzllkzzglclccccDzssskzn",
"fffq<X4taaasssgggaafffskkkksffay<@0DJjrfaasasafaaaaaaarra%auaasaa",
"arfq<@4yaaafsfgsaagfafsgkkfsaaf7,Xqvkrjjaassasassaasbaarabtsauaaa",
"rjfq<X6wrraasfsyafffsllllfkaaaaq: qzjjrfsasaaaskfssaaaaaua5asauaj",
"rffq<Xqeraiaalkkffffkgglgkksaaaq*Xqcfaffaasafsjssssasjraai7iaaaaj",
"kff6>Xwfrafaffkj0jffshggglaljkaa%.wcraaaasaaaassafasakkasquaajaaj",
"jkj6*Xwzaaaasajwfrffggggkbsaajak%.4Eksaasaaaaasjsffrrfasa1aaarjjj",
"jkk6>Xweaaaaakkckfggglllklajraaa>.yNI9saaaaaaaassafjjafssLyirfjjj",
"kjk2*O0Maaaaajkkkgfffllljaajjrjs;.7za9ysajaaasssafrkjafaasDajrjjk",
"kkj4>X6wasaaaajjfffggfkkjjjajaas>.yzsan9arwaskskaffaafzwsa5arjjjj",
"kja4>O6Maaaaaralsssssfjaajjasbss>.pDsaaMaajajakjkaajiifisaaajjjkc",
"wwp6>X2www778877iyyyywww88wwustt2.8zuuuaakpywpwwuaaauiguslaMjrjkj",
"22>*&X%2*>>-%%%++;*:>>*-%*::;;;:>X57>>>>><>>22222311>11><>>***=,-",
"OX#@OXOOXX.X......XX  X.oo........X.oo+oO@$OXXXX@#@@#@##@#oXo@X@X",
"62=$@@*2warr64248w887O.27772>225wwwwwww,$@<qajapy4@@@%&<@XX#<,,,-",
"GAABccBVBSSVBVBBxckjw%O4ulbnMCVDSvvxFDCInSDDHnjzlnzllnN5*O$wkCcxS",
"kccAAAAvDaapiuapaarj4O+7VbsasjkafjkkffatunFkaaassaggkla4%.-acjkkk",
"kjjjraarrauupaaajrra4X#7lsasaasjjfkfafsu:aaaaasaiaisaaau>X>kcjkkj",
"jkkarjaaaauuuuaarrjj2+%5ussafsfakklkaaasIuaasssiaiaaaaaa4 %cckjkl",
"jjjarkkrewpauaaajrjr2O%7ussggkfaklkkkaaa5uaussssiaareaaf> @cBrjja",
"jjjklkaaawraaraaaaaa2X+wuasbbglllbblfrafqraassssaaararrk% XeAjjkj",
"jaaaaafraeawaauprrwr>X$wssssgllbnblkkarwwrralsssuauaarrF% XcAarkk",
"saagarraraaaaaaaarww2X@wuuiakdlsklblsaakwrcaaasaaaaaarra*.OlSaaka",
"afsuwauafajrraarwaar>O#pusaslllbglfbffar6raakkaaaasfarra-.@zlaaak",
"asaaeuaaajakuapwawra2X%wusallbllfffkkarjwwralkfsaaafarer> *lfiass",
"iasaaaauaaraauaaaaar2X%wuaslhkkasfsajjjrr2jjlsfsaaaaaaar> >laaass",
"agaaauuaafaaaauslaar8XOpuaskjkkaajaaaaajjSrjajaaararrrra< <luasas",
"sasaaaaaakaauaiurarrz+Okpaaajjaasaaaajajakaraarrraaraaau7 :fuiags",
"777y7uuwrkuuygaeprwa7XX8weaaaapsbpuuanak7w666jwaq7wasag5:.;iiyu54",
"##*%*#%**-<:::<-*%**%+O%%%#++#++++o+++++###+##+#O++#+####X##o##;#",
"XXXXXXX.X@#.XoX#+..oXX.X.X.. .  .                  ........ . .oo"
};
