/* XPM */
static char *result[] = {
/* columns rows colors chars-per-pixel */
"80 80 200 2 ",
"   c #2D2B28",
".  c #2C2A29",
"X  c #2D2A29",
"o  c #2C2B29",
"O  c #2D2B29",
"+  c #2E2B28",
"@  c #2E2B29",
"#  c #2D2B2A",
"$  c #2D2C29",
"%  c #2E2C29",
"&  c #2E2C2A",
"*  c #2E2D2A",
"=  c #2F2D2A",
"-  c #2F2D2B",
";  c #2F2E2A",
":  c #302F2B",
">  c #312F2D",
",  c #31302B",
"<  c #31312B",
"1  c #31322C",
"2  c #31332C",
"3  c #32322C",
"4  c #33322C",
"5  c #32332C",
"6  c #33332C",
"7  c #33312F",
"8  c #32352C",
"9  c #33352D",
"0  c #34342D",
"q  c #35352D",
"w  c #34362E",
"e  c #34372E",
"r  c #36362E",
"t  c #35392E",
"y  c #37382E",
"u  c #363A2F",
"i  c #373C2F",
"p  c #343230",
"a  c #353432",
"s  c #373533",
"d  c #393B30",
"f  c #383D30",
"g  c #3A3C30",
"h  c #393E30",
"j  c #3F3D3B",
"k  c #3A4031",
"l  c #3B4232",
"z  c #3E4132",
"x  c #404534",
"c  c #414B36",
"v  c #424D36",
"b  c #474E38",
"n  c #445038",
"m  c #475539",
"M  c #4A5239",
"N  c #4B533A",
"B  c #48573A",
"V  c #4E563B",
"C  c #4E573C",
"Z  c #4C593C",
"A  c #4B5C3C",
"S  c #505B3D",
"D  c #515B3D",
"F  c #535D3F",
"G  c #4D603D",
"H  c #4F613E",
"J  c #50633F",
"K  c #50643F",
"L  c #51653F",
"P  c #434240",
"I  c #444241",
"U  c #474544",
"Y  c #4A4846",
"T  c #555452",
"R  c #556140",
"E  c #516540",
"W  c #5A6742",
"Q  c #566D43",
"!  c #5C6943",
"~  c #5E6D45",
"^  c #5F6E45",
"/  c #597145",
"(  c #597245",
")  c #5A7445",
"_  c #5C7747",
"`  c #5E7A48",
"'  c #617146",
"]  c #657549",
"[  c #657649",
"{  c #667749",
"}  c #66784A",
"|  c #617F4A",
" . c #6A7D4C",
".. c #6C6B6A",
"X. c #64834B",
"o. c #698B4E",
"O. c #70844E",
"+. c #738850",
"@. c #6F9552",
"#. c #799053",
"$. c #709853",
"%. c #719954",
"&. c #729A54",
"*. c #749D56",
"=. c #759F56",
"-. c #76A057",
";. c #73AF55",
":. c #7AA659",
">. c #7CAB5B",
",. c #7EAD5C",
"<. c #7FAE5C",
"1. c #7ABB57",
"2. c #88A45C",
"3. c #8BA95E",
"4. c #8DAC5F",
"5. c #80B15D",
"6. c #82B45E",
"7. c #83B55F",
"8. c #8FAE60",
"9. c #85BA61",
"0. c #89BF63",
"q. c #99BC66",
"w. c #82C85A",
"e. c #8AC163",
"r. c #8BC365",
"t. c #8EC866",
"y. c #90CA67",
"u. c #90CB67",
"i. c #93CF69",
"p. c #93D069",
"a. c #95D26A",
"s. c #95D36A",
"d. c #95D36B",
"f. c #96D56B",
"g. c #98D66C",
"h. c #98D76C",
"j. c #99D96D",
"k. c #9ADB6E",
"l. c #9BDC6E",
"z. c #9CDC6E",
"x. c #A0C56A",
"c. c #A1C76B",
"v. c #A2C76B",
"b. c #A9D06F",
"n. c #ABD470",
"m. c #ACD571",
"M. c #A1DE70",
"N. c #A2DE70",
"B. c #A4DF71",
"V. c #B1DB73",
"C. c #B1DC74",
"Z. c #B2DC74",
"A. c #B2DD74",
"S. c #B3DE74",
"D. c #B3DE75",
"F. c #B4DF75",
"G. c #B0E375",
"H. c #B1E375",
"J. c #B4E075",
"K. c #B4E076",
"L. c #B5E076",
"P. c #B3E476",
"I. c #B4E476",
"U. c #B5E577",
"Y. c #B7E477",
"T. c #B6E577",
"R. c #B7E577",
"E. c #B8E678",
"W. c #B9E678",
"Q. c #B9E679",
"!. c #BAE679",
"~. c #999897",
"^. c #9C9B9A",
"/. c #9E9D9D",
"(. c #A1A09F",
"). c #A2A1A1",
"_. c #A3A2A1",
"`. c #A3A2A2",
"'. c #A5A4A3",
"]. c #A9A9A8",
"[. c #ADACAB",
"{. c gray74",
"}. c #C5EA8F",
"|. c #D5F0AD",
" X c gray83",
".X c #D7D6D6",
"XX c gray85",
"oX c #E0DFDF",
"OX c #E3E2E2",
"+X c #E9E9E8",
"@X c #EFEFEF",
"#X c #F3F2F2",
"$X c #F4F4F4",
"%X c #F6F6F6",
"&X c gray97",
"*X c #FBFDF7",
"=X c #FCFEFA",
"-X c #FEFEFE",
";X c white",
":X c None",
/* pixels */
":X:X:X:X:X:X:X:X:X:X:X:X:X:X:X:X:X:X:X:X:X:X:X:X:X:X:X:X% O O O :X:X:X:X:X:X:X:X:X:X:X:X:X:X:XO O O O :X:X:X:X:X:X:X:X:X:X:X:X:X:X:X:X:X:X:X:X:X:X:X:X:X:X:X:X:X",
":X:X:X:X:X:X:X:X:X:X:X:X:X:X:X:X:X:X:X:X:X:X:X:X:X:X:XO O O O O O O O :X:X:X:X:X:X:X:X:XO O O O O O O O :X:X:X:X:X:X:X:X:X:X:X:X:X:X:X:X:X:X:X:X:X:X:X:X:X:X:X:X",
":X:X:X:X:X:X:X:X:X:X:X:X:X:X:X:X:X:X:X:X:X:X:X:X:X:X:XO O O % O O O O O O O O & @ O O O O O O O O O O O :X:X:X:X:X:X:X:X:X:X:X:X:X:X:X:X:X:X:X:X:X:X:X:X:X:X:X:X",
":X:X:X:X:X:X:X:X:X:X:X:X:X:X:X:X:X:X:X:X:X:X:X:X:X:X:XO O O l.l.j.= O O O O O O O O O O O O V.W.W.O O O :X:X:X:X:X:X:X:X:X:X:X:X:X:X:X:X:X:X:X:X:X:X:X:X:X:X:X:X",
":X:X:X:X:X:X:X:X:X:X:X:X:X:X:X:X:X:X:X:X:X:X:X:X:X:X:X:XO O 7.l.l.W.W.W.R O O O O O x W.W.W.W.W.W.O O :X:X:X:X:X:X:X:X:X:X:X:X:X:X:X:X:X:X:X:X:X:X:X:X:X:X:X:X:X",
":X:X:X:X:X:X:X:X:X:X:X:X:X:X:X:X:X:X:X:X:X:X:X:X:X:X:X:XO O O l.l.R.W.W.W.W.W.W.W.W.W.W.W.W.W.W.W.O O :X:X:X:X:X:X:X:X:X:X:X:X:X:X:X:X:X:X:X:X:X:X:X:X:X:X:X:X:X",
":X:X:X:X:X:X:X:X:X:X:X:X:X:X:X:X:X:X:X:X:X:X:X:X:X:X:X:XO O O l.l.l.W.W.W.W.W.W.W.W.W.W.W.W.W.W.q O O :X:X:X:X:X:X:X:X:X:X:X:X:X:X:X:X:X:X:X:X:X:X:X:X:X:X:X:X:X",
":X:X:X:X:X:X:X:X:X:X:X:X:X:X:X:X:X:X:X:X:X:X:X:X:X:X:X:X:XO O s.l.l.W.F.^ W.W.W.W.W.W.^ F.W.W.W.O O O :X:X:X:X:X:X:X:X:X:X:X:X:X:X:X:X:X:X:X:X:X:X:X:X:X:X:X:X:X",
":X:X:X:X:X:X:X:X:X:X:X:X:X:X:X:X:X:X:X:X:X:X:X:X:X:X:X:X:XO O $ l.l.W.O O { W.W.W.W.{ O O W.W.W.O O :X:X:X:X:X:X:X:X:X:X:X:X:X:X:X:X:X:X:X:X:X:X:X:X:X:X:X:X:X:X",
":X:X:X:X:X:X:X:X:X:X:X:X:X:X:X:X:X:X:X:X:X:X:X:X:X:X:X:X:XO O O l.l.z.O O O W.W.W.W.O O O W.W.x.O O :X:X:X:X:X:X:X:X:X:X:X:X:X:X:X:X:X:X:X:X:X:X:X:X:X:X:X:X:X:X",
":X:X:X:X:X:X:X:X:X:X:X:X:X:X:X:X:X:X:X:X:X:X:X:X:X:X:X:X:X:XO O y.l.l.D.O O J.W.W.J.O O S.W.W.< O O :X:X:X:X:X:X:X:X:X:X:X:X:X:X:X:X:X:X:X:X:X:X:X:X:X:X:X:X:X:X",
":X:X:X:X:X:X:X:X:X:X:X:X:X:X:X:X:X:X:X:X:X:X:X:X:X:X:X:X:X:XO O O l.l.E.O O O W.W.O O O W.W.W.O O O :X:X:X:X:X:X:X:X:X:X:X:X:X:X:X:X:X:X:X:X:X:X:X:X:X:X:X:X:X:X",
":X:X:X:X:X:X:X:X:X:X:X:X:X:X:X:X:X:X:X:X:X:X:X:X:X:X:X:X:X:X# O O l.l.l.M O O W.W.O O b W.W.W.O O :X:X:X:X:X:X:X:X:X:X:X:X:X:X:X:X:X:X:X:X:X:X:X:X:X:X:X:X:X:X:X",
":X:X:X:X:X:X:X:X:X:X:X:X:X:X:X:X:X:X:X:X:X:X:X:X:X:X:X:X:X:X:XO O f.l.l.W.O O ! ! O O W.W.W.m.O O :X:X:X:X:X:X:X:X:X:X:X:X:X:X:X:X:X:X:X:X:X:X:X:X:X:X:X:X:X:X:X",
":X:X:X:X:X:X:X:X:X:X:X:X:X:X:X:X:X:X:X:X:X:X:X:X:X:X:X:X:X:XO O O O O O O O O O O O O O O O O O O O :X:X:X:X:X:X:X:X:X:X:X:X:X:X:X:X:X:X:X:X:X:X:X:X:X:X:X:X:X:X",
":X:X:X:X:X:X:X:X:X:X:X:X:X:X:X:X:X:X:X:X:X:X:X:X:X:X:X:X:XO O O O O O O O O O O O O O O O O O O O O O :X:X:X:X:X:X:X:X:X:X:X:X:X:X:X:X:X:X:X:X:X:X:X:X:X:X:X:X:X",
":X:X:X:X:X:X:X:X:X:X:X:X:X:X:X:X:X:X:X:X:X:X:X:X:X:X:X:X:XO O 2 ;.;.;.;.w.w.w.w.w.w.w.w.w.w.w.w.8 O O :X:X:X:X:X:X:X:X:X:X:X:X:X:X:X:X:X:X:X:X:X:X:X:X:X:X:X:X:X",
":X:X:X:X:X:X:X:X:X:X:X:X:X:X:X:X:X:X:X:X:X:X:X:X:X:X:X:X:XO O ;.;.;.;.1.w.w.w.w.w.w.w.w.w.w.w.w.w.O O :X:X:X:X:X:X:X:X:X:X:X:X:X:X:X:X:X:X:X:X:X:X:X:X:X:X:X:X:X",
":X:X:X:X:X:X:X:X:X:X:X:X:X:X:X:X:X:X:X:X:X:X:X:X:X:X:X:X:XO O O ;.;.;.;.w.w.w.w.w.w.w.w.w.w.w.w.O O O :X:X:X:X:X:X:X:X:X:X:X:X:X:X:X:X:X:X:X:X:X:X:X:X:X:X:X:X:X",
":X:X:X:X:X:X:X:X:X:X:X:X:X:X:X:X:X:X:X:X:X:X:X:X:X:X:X:X:XO O O O O O O O O O O O O O O O O O O O O O :X:X:X:X:X:X:X:X:X:X:X:X:X:X:X:X:X:X:X:X:X:X:X:X:X:X:X:X:X",
":X:X:X:X:X:X:X:X:X:X:X:X:X:X:X:X:X:X:X:X:X:X:X:X:X:X:X:XO O O O O O O O O O O O O O O O O O O O O O O O :X:X:X:X:X:X:X:X:X:X:X:X:X:X:X:X:X:X:X:X:X:X:X:X:X:X:X:X",
":X:X:X:X:X:X:X:X:X:X:X:X:X:X:X:X:X:X:X:X:X:X:X:X:X:X. O O O w l.l.l.l.O O O W.W.W.W.O O O W.W.W.W.r O O O . :X:X:X:X:X:X:X:X:X:X:X:X:X:X:X:X:X:X:X:X:X:X:X:X:X:X",
":X:X:X:X:X:X:X:X:X:X:X:X:X:X:X:X:X:X:X:X:X:X:X:X:X  O O O g.l.l.l.l.O O O Y.W.W.W.W.Y.O O O W.W.W.W.K.O O O   :X:X:X:X:X:X:X:X:X:X:X:X:X:X:X:X:X:X:X:X:X:X:X:X:X",
":X:X:X:X:X:X:X:X:X:X:X:X:X:X:X:X:X:X:X:X:X:X:X:XO O O O l.l.l.l.l.U.O O y W.W.W.W.W.W.y O O W.W.W.W.W.W.O O O O :X:X:X:X:X:X:X:X:X:X:X:X:X:X:X:X:X:X:X:X:X:X:X:X",
":X:X:X:X:X:X:X:X:X:X:X:X:X:X:X:X:X:X:X:X:X:X:XO O O 3 l.l.l.l.l.E.W.O O W.W.W.W.W.W.W.W.O O W.W.W.W.W.W.W.6 O O O :X:X:X:X:X:X:X:X:X:X:X:X:X:X:X:X:X:X:X:X:X:X:X",
":X:X:X:X:X:X:X:X:X:X:X:X:X:X:X:X:X:X:X:X:X:XO O O m l.l.l.l.l.W.W.W.W.W.W.W.W.W.W.W.W.W.W.W.W.W.W.W.W.W.W.W.C O O O :X:X:X:X:X:X:X:X:X:X:X:X:X:X:X:X:X:X:X:X:X:X",
":X:X:X:X:X:X:X:X:X:X:X:X:X:X:X:X:X:X:X:X:XO O O / l.l.l.l.l.E.W.W.W.W.W.W.W.W.W.W.W.W.W.W.W.W.W.W.W.W.W.W.W.W.] O O O :X:X:X:X:X:X:X:X:X:X:X:X:X:X:X:X:X:X:X:X:X",
":X:X:X:X:X:X:X:X:X:X:X:X:X:X:X:X:X:X:X:XO O O ( l.l.l.l.l.T.W.W.W.W.W.W.W.W.W.W.W.W.W.W.W.W.W.W.W.W.W.W.W.W.W.W.[ O O O :X:X:X:X:X:X:X:X:X:X:X:X:X:X:X:X:X:X:X:X",
":X:X:X:X:X:X:X:X:X:X:X:X:X:X:X:X:X:X:XO O O K l.l.l.l.l.G.W.W.W.W.W.W.W.W.W.W.W.W.W.W.W.W.W.W.W.W.W.W.W.W.W.W.W.W.W O O O :X:X:X:X:X:X:X:X:X:X:X:X:X:X:X:X:X:X:X",
":X:X:X:X:X:X:X:X:X:X:X:X:X:X:X:X:X:XX O O 5 l.l.l.l.l.M.W.W.W.W.W.W.W.W.W.W.W.W.W.W.W.W.W.W.W.W.W.W.W.W.W.W.W.W.W.W.0 O O   :X:X:X:X:X:X:X:X:X:X:X:X:X:X:X:X:X:X",
":X:X:X:X:X:X:X:X:X:X:X:X:X:X:X:X:X:XO O O l.l.l.l.l.l.W.W.W.W.W.W.W.W.W.W.W.$ O O $ W.W.W.W.W.W.W.W.W.W.W.W.W.W.W.W.W.O O O :X:X:X:X:X:X:X:X:X:X:X:X:X:X:X:X:X:X",
":X:X:X:X:X:X:X:X:X:X:X:X:X:X:X:X:XO O O l.l.l.l.l.l.W.W.W.W.W.W.W.W.W.W.W.O O O O O O W.W.W.W.W.W.W.W.W.W.W.W.W.W.W.W.W.O O O :X:X:X:X:X:X:X:X:X:X:X:X:X:X:X:X:X",
":X:X:X:X:X:X:X:X:X:X:X:X:X:X:X:XO O O l.l.l.l.l.l.E.W.W.W.W.W.W.W.W.W.W.F O O J J O O S W.W.W.W.W.W.W.W.W.W.W.W.W.W.W.W.W.O O O :X:X:X:X:X:X:X:X:X:X:X:X:X:X:X:X",
":X:X:X:X:X:X:X:X:X:X:X:X:X:X:X$ O O 6.l.l.l.l.l.N.W.W.W.W.W.W.W.W.W.4.O O O O l.l.O O O O 3.W.W.W.W.W.W.W.W.W.W.W.W.W.W.W.q.O O + :X:X:X:X:X:X:X:X:X:X:X:X:X:X:X",
":X:X:X:X:X:X:X:X:X:X:X:X:X:X:XO O * l.l.l.l.l.l.W.W.W.W.W.W.W.W.c.O O O O O k l.l.f O O O O O 8.W.W.W.W.W.W.W.W.W.W.W.W.W.W.= O O :X:X:X:X:X:X:X:X:X:X:X:X:X:X:X",
":X:X:X:X:X:X:X:X:X:X:X:X:X:XO O O l.l.l.l.l.l.W.W.W.W.W.W.W.W.: O O O O $.l.l.l.l.l.l.-.O O O O O W.W.W.W.W.W.W.W.W.W.W.W.W.W.O O O :X:X:X:X:X:X:X:X:X:X:X:X:X:X",
":X:X:X:X:X:X:X:X:X:X:X:X:XO O O d.l.l.l.l.l.M.W.W.W.W.W.W.W.O O O O l.l.l.l.l.l.l.l.l.l.l.l.O O O O W.W.W.W.W.W.W.W.W.W.W.W.W.Z.O O O :X:X:X:X:X:X:X:X:X:X:X:X:X",
":X:X:X:X:X:X:X:X:X:X:X:X:XO O O l.l.l.l.l.l.W.W.W.W.W.W.W.g O O % l.l.l.l.l.:.` _ ,.l.l.l.l.l.3 O O 4 W.W.W.W.W.W.W.W.W.W.W.W.W.O O O :X:X:X:X:X:X:X:X:X:X:X:X:X",
":X:X:X:X:X:X:X:X:X:X:X:XO O O l.l.l.l.l.l.T.W.W.W.W.W.W.W.O O O l.l.l.t.O O O O O O O O r.l.l.l.* O O W.W.W.W.W.W.W.W.W.W.W.W.W.W.O O O :X:X:X:X:X:X:X:X:X:X:X:X",
":X:X:X:X:X:X:X:X:X:X:X:XO O n l.l.l.l.l.l.W.W.W.W.W.W.W.O O O l.l.l.O O O O O O O O O O O O l.l.l.O O O !.W.W.W.W.W.W.W.W.W.W.W.W.N O O :X:X:X:X:X:X:X:X:X:X:X:X",
":X:X:X:X:X:X:X:X:X:X:XO O O l.l.l.l.l.l.R.W.W.W.W.W.W.;XO O ` l.l.t O O O  X;X;X;X;XXXO O O e l.l.X.O O ;XW.W.W.W.W.W.W.W.W.W.W.W.W.O O O :X:X:X:X:X:X:X:X:X:X:X",
":X:X:X:X:X:X:X:X:X:X:XO O | l.l.l.l.l.l.W.W.W.W.W.W.*X@XO O l.l.l.O O & ;X;X;X;X;X;X;X;X- O O l.l.l.O O +X;XW.W.W.W.W.W.W.W.W.W.W.W.O.O O :X:X:X:X:X:X:X:X:X:X:X",
":X:X:X:X:X:X:X:X:X:XO O O l.l.l.l.l.l.W.W.W.W.W.W.W.;X/.O O l.l.>.O O ;X;X;X;X;X;X;X;X;X;XO O &.l.l.O O [.;XW.W.W.W.W.W.W.W.W.W.W.W.W.O O O :X:X:X:X:X:X:X:X:X:X",
":X:X:X:X:X:X:X:X:X:XO O ) l.l.l.l.l.l.W.W.W.W.W.W.=X;X^.O O l.l.=.O O ;X;X;X;X;X;X;X;X;X;XO O v l.l.O O ].;X;XW.W.W.W.W.W.W.W.W.W.W.W.} O O :X:X:X:X:X:X:X:X:X:X",
":X:X:X:X:X:X:X:X:X# O O l.l.l.l.l.l.H.W.W.W.W.W.W.;X;XoXO O l.l.l.O O P ;X;X;X;X;X;X;X;X;X> O O O O O O ;X;X;XW.W.W.W.W.W.W.W.W.W.W.W.W.O O O :X:X:X:X:X:X:X:X:X",
":X:X:X:X:X:X:X:X:XO O 1 l.l.l.l.l.l.W.W.W.W.W.W.}.;X;X;XO O <.l.l.% O O & ;X;X;X;X;X;X;X;X;XO O O O O U ;X;X;X|.W.W.W.W.W.W.W.W.W.W.W.W.3 O O :X:X:X:X:X:X:X:X:X",
":X:X:X:X:X:X:X:X:XO O l.l.l.l.l.l.l.W.W.W.W.W.W.;X;X;X;XO O O l.l.l.O O O O O O O O I $X;X;X;Xj O O #X;X;X;X;X;XW.W.W.W.W.W.W.W.W.W.W.W.W.O O :X:X:X:X:X:X:X:X:X",
":X:X:X:X:X:X:X:XO O O l.l.l.l.l.l.W.W.W.W.W.W.W.;X;X;X;X%XO O l l.l.l.L O O O O O O O O O & ;X;X;X;X;X;X;X;X;X;XW.W.W.W.W.W.W.W.W.W.W.W.W.O O O :X:X:X:X:X:X:X:X",
":X:X:X:X:X:X:X:XO O Q l.l.l.l.l.l.W.W.W.W.W.W.W.;X;X;X;X;XO O O E l.l.l.l.a.: O O O O O O O O s ;X;X;X;X;X;X;X;XW.W.W.W.W.W.W.W.W.W.W.W.W.' O O :X:X:X:X:X:X:X:X",
":X:X:X:X:X:X:X:XO O l.l.l.l.l.l.z.W.W.W.W.W.W.W.;X;X;X;X;X;XO O O O l.l.l.l.l.l.l.l.l.l.v O O O O ;X;X;X;X;X;X;XW.W.W.W.W.W.W.W.W.W.W.W.W.W.O O :X:X:X:X:X:X:X:X",
":X:X:X:X:X:X:XO O O l.l.l.l.l.l.E.W.W.W.W.W.W.W.;X;X;X;X;X;X;XO O O O 9 l.l.l.l.l.l.l.l.l.l.; O O O ;X;X;X;X;X;XW.W.W.W.W.W.W.W.W.W.W.W.W.W.O O O :X:X:X:X:X:X:X",
":X:X:X:X:X:X:XO O : l.l.l.l.l.l.W.W.W.W.W.W.W.W.;X;X;X;X;X;X;X;XT O O O O O O O O O e.l.l.l.l.@.O O O ;X;X;X;X;XW.W.W.W.W.W.W.W.W.W.W.W.W.W., O O :X:X:X:X:X:X:X",
":X:X:X:X:X:X:XO O *.l.l.l.l.l.l.W.W.W.W.W.W.W.W.;X;X;X;X;X;X;X;X;X;XY O O O O O O O O O h l.l.l.G O O OX;X;X;X;XW.W.W.W.W.W.W.W.W.W.W.W.W.W.2.O O :X:X:X:X:X:X:X",
":X:X:X:X:X:X:XO O l.l.l.l.l.l.l.W.W.W.W.W.W.W.W.;X;X;X;X;X{.O O 7 ;X;X;X-X_.O O O O O O O O l.l.l.O O O ;X;X;X;XW.W.W.W.W.W.W.W.W.W.W.W.W.W.W.O O :X:X:X:X:X:X:X",
":X:X:X:X:X:X:XO O l.l.l.l.l.l.B.W.W.W.W.W.W.W.W.}.;X;X;Xa O O O O O ;X;X;X;X;X;X;X;X;Xp O O O l.l.9.O O ;X;X;X|.W.W.W.W.W.W.W.W.W.W.W.W.W.W.W.O O :X:X:X:X:X:X:X",
":X:X:X:X:X:XO O O l.l.l.l.l.l.P.W.W.W.W.W.W.W.W.W.;X;X;XO O O O O O & ;X;X;X;X;X;X;X;X;X..O O l.l.l.O O .X;X;XW.W.W.W.W.W.W.W.W.W.W.W.W.W.W.W.O O o :X:X:X:X:X:X",
":X:X:X:X:X:XO O O l.l.l.l.l.l.W.W.W.W.W.W.W.W.W.W.=X;X).O O l.l.B O O ;X;X;X;X;X;X;X;X;X;XO O %.l.l.O O ~.;X;XW.W.W.W.W.W.W.W.W.W.W.W.W.W.W.W.O O O :X:X:X:X:X:X",
":X:X:X:X:X:XO O O l.l.l.l.l.l.W.W.W.W.W.W.W.W.W.W.W.;X(.O O l.l.5.O O ;X;X;X;X;X;X;X;X;X;XO O 5.l.l.O O `.;XW.W.W.W.W.W.W.W.W.W.W.W.W.W.W.W.W.O O O :X:X:X:X:X:X",
":X:X:X:X:X:XO O O l.l.l.l.l.l.W.W.W.W.W.W.W.W.W.W.W.*X&XO O l.l.l.O O O ;X;X;X;X;X;X;X;XO O O l.l.l.O O &X;XW.W.W.W.W.W.W.W.W.W.W.W.W.W.W.W.W.O O O :X:X:X:X:X:X",
":X:X:X:X:X:XO O O l.l.l.l.l.l.W.W.W.W.W.W.W.W.W.W.W.W.;XO O H l.l.c O O O '.;X;X;X;X'.O O O c l.l.J O O ;XW.W.W.W.W.W.W.W.W.W.W.W.W.W.W.W.W.W.O O O :X:X:X:X:X:X",
":X:X:X:X:X:XO O O l.l.l.l.l.l.W.W.W.W.W.W.W.W.W.W.W.W.W.& O O l.l.l.u O O O O O O O O O O u l.l.l.O O & Q.W.W.W.W.W.W.W.W.W.W.W.W.W.W.W.W.W.W.O O O :X:X:X:X:X:X",
":X:X:X:X:X:XO O O l.l.l.l.l.l.R.W.W.W.W.W.W.W.W.W.W.W.W.W.O O O l.l.l.l.O O O O O O O O l.l.l.l.O O O W.W.W.W.W.W.W.W.W.W.W.W.W.W.W.W.W.W.W.W.O O O :X:X:X:X:X:X",
":X:X:X:X:X:XO O O l.l.l.l.l.l.G.W.W.W.W.W.W.W.W.W.W.W.W.W.V O O O l.l.l.l.l.a.:.:.a.l.l.l.l.l.O O O V W.W.W.W.W.W.W.W.W.W.W.W.W.W.W.W.W.W.W.W.O O   :X:X:X:X:X:X",
":X:X:X:X:X:X:XO O l.l.l.l.l.l.l.W.W.W.W.W.W.W.W.W.W.W.W.W.W.O O O O i.l.l.l.l.l.l.l.l.l.l.p.O O O O W.W.W.W.W.W.W.W.W.W.W.W.W.W.W.W.W.W.W.W.W.O O :X:X:X:X:X:X:X",
":X:X:X:X:X:X:XO O h.l.l.l.l.l.l.W.W.W.W.W.W.W.W.W.W.W.W.W.W.W.z O O O O A k.l.l.l.l.k.A O O O O z W.W.W.W.W.W.W.W.W.W.W.W.W.W.W.W.W.W.W.W.W.L.O O :X:X:X:X:X:X:X",
":X:X:X:X:X:X:XO O u l.l.l.l.l.l.W.W.W.W.W.W.W.W.W.W.W.W.W.W.W.W.C.O O O O O 1 l.l.5 O O O O O C.W.W.W.W.W.W.W.W.W.W.W.W.W.W.W.W.W.W.W.W.W.W.d O O :X:X:X:X:X:X:X",
":X:X:X:X:X:X:XO O O l.l.l.l.l.l.E.W.W.W.W.W.W.W.W.W.W.W.W.W.W.W.W.W.A.% O O O l.l.O O O % A.W.W.W.W.W.W.W.W.W.W.W.W.W.W.W.W.W.W.W.W.W.W.W.W.O O O :X:X:X:X:X:X:X",
":X:X:X:X:X:X:X:XO O 0.l.l.l.l.l.l.W.W.W.W.W.W.W.W.W.W.W.W.W.W.W.W.W.W.W.{ O O i i O O { W.W.W.W.W.W.W.W.W.W.W.W.W.W.W.W.W.W.W.W.W.W.W.W.W.v.O O :X:X:X:X:X:X:X:X",
":X:X:X:X:X:X:X:XO O O l.l.l.l.l.l.W.W.W.W.W.W.W.W.W.W.W.W.W.W.W.W.W.W.W.W.O O O O O O W.W.W.W.W.W.W.W.W.W.W.W.W.W.W.W.W.W.W.W.W.W.W.W.W.W.O O O :X:X:X:X:X:X:X:X",
":X:X:X:X:X:X:X:X:XO O o.l.l.l.l.l.l.W.W.W.W.W.W.W.W.W.W.W.W.W.W.W.W.W.W.W.W.q O O q W.W.W.W.W.W.W.W.W.W.W.W.W.W.W.W.W.W.W.W.W.W.W.W.W.W.#.O O :X:X:X:X:X:X:X:X:X",
":X:X:X:X:X:X:X:X:XO O O l.l.l.l.l.l.U.W.W.W.W.W.W.W.W.W.W.W.W.W.W.W.W.W.W.W.W.W.W.W.W.W.W.W.W.W.W.W.W.W.W.W.W.W.W.W.W.W.W.W.W.W.W.W.W.W.O O O :X:X:X:X:X:X:X:X:X",
":X:X:X:X:X:X:X:X:X:XO O O l.l.l.l.l.l.W.W.W.W.W.W.W.W.W.W.W.W.W.W.W.W.W.W.W.W.W.W.W.W.W.W.W.W.W.W.W.W.W.W.W.W.W.W.W.W.W.W.W.W.W.W.W.W.O O O :X:X:X:X:X:X:X:X:X:X",
":X:X:X:X:X:X:X:X:X:X:XO O O l.l.l.l.l.l.W.W.W.W.W.W.W.W.W.W.W.W.W.W.W.W.W.W.W.W.W.W.W.W.W.W.W.W.W.W.W.W.W.W.W.W.W.W.W.W.W.W.W.W.W.W.O O O :X:X:X:X:X:X:X:X:X:X:X",
":X:X:X:X:X:X:X:X:X:X:X:XO O O u.l.l.l.l.l.W.W.W.W.W.W.W.W.W.W.W.W.W.W.W.W.W.W.W.W.W.W.W.W.W.W.W.W.W.W.W.W.W.W.W.W.W.W.W.W.W.W.W.n.O O O :X:X:X:X:X:X:X:X:X:X:X:X",
":X:X:X:X:X:X:X:X:X:X:X:X:XO O O O l.l.l.l.l.I.W.W.W.W.W.W.W.W.W.W.W.W.W.W.W.W.W.W.W.W.W.W.W.W.W.W.W.W.W.W.W.W.W.W.W.W.W.W.W.W.O O O O :X:X:X:X:X:X:X:X:X:X:X:X:X",
":X:X:X:X:X:X:X:X:X:X:X:X:X:XO O O O O l.l.l.l.l.W.W.W.W.W.W.W.W.W.W.W.W.W.W.W.W.W.W.W.W.W.W.W.W.W.W.W.W.W.W.W.W.W.W.W.W.W.O O O O O :X:X:X:X:X:X:X:X:X:X:X:X:X:X",
":X:X:X:X:X:X:X:X:X:X:X:X:X:X:XO O O O O O O t.l.l.l.W.W.W.W.W.W.W.W.W.W.W.W.W.W.W.W.W.W.W.W.W.W.W.W.W.W.W.W.W.W.W.b.O O O O O O O :X:X:X:X:X:X:X:X:X:X:X:X:X:X:X",
":X:X:X:X:X:X:X:X:X:X:X:X:X:X:X:X:Xo O O O O O O O O O O Z ~  .+.+.+.+.+.+.+.+.+.+.+.+.+.+.+.+.+.+. .~ D O O O O O O O O O O o :X:X:X:X:X:X:X:X:X:X:X:X:X:X:X:X:X",
":X:X:X:X:X:X:X:X:X:X:X:X:X:X:X:X:X:X:X:XO O O O O O O O O O O O O O O O O O O O O O O O O O O O O O O O O O O O O O O O :X:X:X:X:X:X:X:X:X:X:X:X:X:X:X:X:X:X:X:X",
":X:X:X:X:X:X:X:X:X:X:X:X:X:X:X:X:X:X:X:X:X:X:X:X  O O O O O O O O O O O O O O O O O O O O O O O O O O O O O O O :X:X:X:X:X:X:X:X:X:X:X:X:X:X:X:X:X:X:X:X:X:X:X:X"
};
